<?xml version="1.0" encoding="utf-8"?>
<!-- Generator: Adobe Illustrator 19.1.0, SVG Export Plug-In . SVG Version: 6.00 Build 0)  -->
<svg version="1.1" xmlns="http://www.w3.org/2000/svg" xmlns:xlink="http://www.w3.org/1999/xlink" x="0px" y="0px"
	 viewBox="0 0 384 68.7" style="enable-background:new 0 0 384 68.7;" xml:space="preserve">
<style type="text/css">
	.st0{display:none;}
	.st1{fill:#FFFFFF;}
	.st2{fill:none;stroke:#FFFFFF;stroke-width:3.1323;stroke-miterlimit:10;}
	.st3{fill:#010101;}
</style>
<g id="Scraps">
	<rect x="0" class="st0" width="384" height="89.5"/>
</g>
<g id="Mark_Only__x28_Hollow_x29_">
</g>
<g id="Mark_Only__x28_Filled_x29_">
</g>
<g id="Inverse_Filled">
	<path class="st1" d="M157.9,36.3l-0.1,0.9v7.9l0.2,3.1v0.9l0.1,7.1v0.9l-0.1,0.4l-0.1,0.9l-0.2,2.6l0.1,3.1l-0.1,0.8l-0.2,0.6
		l-0.4,0.6l-0.5,0.4l-0.5,0.2l-0.7,0.1l-2.7,0.1l-0.9,0.1l-1.3,0.1h-0.9l-0.7-0.2l-0.6-0.3l-0.6-0.5l-0.5-0.7l-0.8-1.6l-0.5-0.7
		l-2.1-2.6l-0.5-0.6l-2.1-2.6l-0.5-0.7l-1.9-2.8l-0.5-0.6l-2.1-2.6l-0.5-0.6l-2-2.6l-0.5-0.4l-0.4,0.2l-0.2,0.6l-0.1,2.7v0.9
		l0.1,2.7v0.9l0.1,3v0.9l-0.2,3l0.1,0.9l0.3,2.1l0.1,0.9l-0.2,0.7l-0.4,0.4l-0.4,0.1l-0.6,0.1l-0.4,0.1l-0.9,0.1l-2.5-0.1h-0.9
		l-2.2,0.1h-0.9l-0.8-0.1l-0.6-0.1l-0.4-0.3l-0.2-0.4l-0.1-0.5l-0.1-0.4v-0.8l0.1-1.8l0.1-0.9l-0.2-2.8V58l0.1-6.5l0.1-0.9l0.2-2.8
		l0.1-0.9v-3.7l-0.2-2.8v-0.9l0.2-2.8l-0.1-0.9l-0.2-2.9l-0.1-0.9v-1.2l0.1-0.8l0.1-0.8l0.1-0.6l0.2-0.4l0.3-0.2l0.6-0.1l1.6-0.1
		l1.6,0.1h4l0.6,0.1l0.3,0.2l0.3,0.5l2.3,2.4l0.5,0.6l2,2.6l0.5,0.6l2,2.6l0.5,0.6l1.9,2.7l0.5,0.6l2,2.6l0.5,0.6l1.9,2.7l0.4,0.4
		l0.4,0.1l0.4-0.3v-0.6l-0.4-2.3l-0.1-0.9l0.2-2.3v-0.9l-0.2-3.3v-0.9l0.2-3.3l-0.1-0.9l-0.2-2v-1.3l0.2-0.7l0.2-0.4l0.4-0.2
		l0.6-0.1h0.5l0.9-0.1l2.4,0.2h0.9l1.8-0.1l0.8,0.1l1.2,0.1l0.6,0.1l0.4,0.2l0.3,0.4l0.1,0.8l0.1,0.5l0.1,0.9l-0.1,1.7l-0.1,0.9
		L157.9,36.3z"/>
	<path class="st1" d="M35.1,42l0.1,0.8l-0.1,0.8L35,44.6l-0.3,1.3l-0.2,0.9l-0.4,1.1l-0.3,0.7l-0.5,1l-0.5,0.7l-0.7,1L31.5,52
		l-0.7,0.6l-0.7,0.6l-0.7,0.5l-0.7,0.5l-1.2,0.5l-0.8,0.4l-0.9,0.4L25,55.7L23.8,56L23,56.2l-0.8,0.1l-0.9,0.1l-1.4,0.1h-4.5
		l-0.9-0.1l-0.9,0.1l-0.9,0.1l-0.6,0.1L11.9,57l-0.1,0.7l-0.2,3.6v0.9l0.1,1.6l-0.1,0.8l-0.1,1.2l-0.1,0.6l-0.2,0.3L11,66.8
		l-0.6,0.1L8.7,67l-2.1-0.1H5.8L4.1,67L3.2,67L2,66.9l-0.7-0.2L1,66.4l-0.1-0.6l-0.1-0.8l-0.1-0.9v-5.7l0.2-2.8v-0.9l-0.2-2.8v-0.9
		l-0.1-6.5v-0.9l0.2-2.9v-0.9L0.7,37v-0.9l0.2-2.8v-0.8l-0.1-1.6L0.8,30l0.1-0.4L1,29l0.2-0.3l0.3-0.3L2,28.4l1.6-0.1l1.2,0.1h0.8
		l3.6-0.1h3.6l3.6,0.2h3.5l2-0.1l0.7,0.1h0.4l0.8,0.2l1.2,0.3l0.9,0.3l0.9,0.3l0.8,0.4l0.8,0.5l0.7,0.5l1,0.9l0.6,0.5l0.3,0.3l1,1
		l0.5,0.7l0.3,0.3l0.4,0.6l0.2,0.3l0.3,0.7l0.3,0.8l0.2,0.8l0.1,0.4l0.2,0.8l0.1,0.4l0.2,0.8l0.3,1.5V42z M19.1,47.3l1-0.1L21,47
		l0.4-0.2l0.7-0.4l0.3-0.2l0.5-0.5l0.2-0.3l0.4-0.7l0.2-0.4l0.2-0.9L24,43v-1.3l-0.2-0.8l-0.2-0.4l-0.3-0.7l-0.2-0.3l-0.6-0.6
		l-0.4-0.3l-0.8-0.4l-1.4-0.4l-0.9-0.1h-1.2l-1.6,0.1l-2.4-0.2h-0.8l-0.4,0.1l-0.6,0.1l-0.2,0.2l-0.2,0.4l-0.1,0.6v1.2l0.2,2
		l0.1,0.9l0.1,3.1l0.1,0.6l0.2,0.4l0.6,0.2l2.8,0.2L19.1,47.3z"/>
	<path class="st1" d="M69.7,64.4l-0.1,0.9v0.5l-0.2,0.6l-0.3,0.4L68.8,67l-0.5,0.1h-0.4l-0.7,0.1l-5.9-0.3h-4l-4.8,0.3l-3.1-0.2h-4
		l-2.5,0.2h-0.8L41.2,67l-0.6-0.1l-0.4-0.2L40,66.4l-0.1-0.6v-0.9l0.3-2l0.1-0.8L40,59.2v-0.9l0.1-2.8v-0.9l0.1-6.5v-0.9L40,40.7
		v-0.9L39.9,37v-4.6l-0.1-1.6V30l0.1-0.5l0.2-0.7l0.2-0.3l0.4-0.2l0.6-0.1h0.4l0.8-0.1l2.6,0.2h0.9l3.8-0.1h0.5l0.4,0.2l0.3,0.4v4.7
		l0.1,3.1v0.9l-0.2,3.1v0.9l0.1,3.1v0.9l0.2,3.1v0.9l-0.3,7.1l0.1,0.5l0.1,0.3l0.1,0.3l0.3,0.2l0.6,0.1l1.8,0.1l1.6-0.1h0.9l7.7-0.1
		l0.9-0.1l1.8-0.2l0.9-0.1h0.8l0.6,0.2l0.4,0.3l0.2,0.4l0.1,0.6l0.1,3l0.1,0.9L69.7,64.4z"/>
	<g>
		<g>
			<path class="st1" d="M230.6,33.7c0,0,0.1,0.1,0.3,0.1c0.2,0.1,0.4,0.5,0.6,1.1c-0.4,0.3-0.7,0.6-0.9,1c0,0.5-0.2,1-0.4,1.3
				c-0.4,0.5-0.8,0.7-1.3,0.7c-0.1,0-0.3,0-0.4,0.2c-0.1,0.2-0.2,0.3-0.3,0.4c-0.2,0.1-0.3,0.2-0.4,0.2c0,0.1,0.1,0.2,0.1,0.4
				c0,0.4-0.2,0.7-0.6,1c-0.2,0.1-0.4,0.3-0.7,0.4c-0.2,0.1-0.5,0.2-0.8,0.2c0,0.1,0.2,0.2,0.4,0.2c0.2,0,0.3,0,0.3,0.2
				c-0.2,0.1-0.5,0.3-0.9,0.6c-0.4,0.3-0.7,0.5-0.9,0.6c-0.2,0.1-0.4,0.2-0.7,0.6c-0.3,0.3-0.6,0.5-1,0.6c-0.1,0.1,0,0.2,0.1,0.3
				c0.1,0.1,0.1,0.1,0.1,0.2H223c-0.1,0-0.2,0.1-0.4,0.2c-0.2,0.1-0.4,0.2-0.6,0.1c-0.1,0-0.1,0-0.1,0.1c0,0.1,0,0.1-0.1,0.1
				c-0.1,0.1-0.1,0.1-0.1,0.1c0,0.1,0,0.1,0,0.1l0.3,0.2c-0.1,0.1-0.2,0.1-0.4,0c-0.1,0-0.3,0-0.4,0c-0.1,0.6-0.3,1.1-0.6,1.5
				c-0.4,0.3-0.9,0.7-1.7,1.1c-0.3-0.1-0.5-0.2-0.6-0.2c-0.1,0-0.3,0.2-0.4,0.5c-0.4,1.1-1.4,1.7-2.8,1.9c-0.4,0-0.6,0-0.7,0.1
				c-0.1,0.1-0.2,0.2-0.3,0.6c-0.4,0.3-1,0.4-1.7,0.6c-0.3,0.1-0.6,0.1-0.9,0.2c-0.3,0.1-0.6,0.1-0.8,0.1c-0.1,0.1-0.3,0.3-0.4,0.7
				c-0.1,0.3-0.3,0.5-0.6,0.6c0,0.1,0.1,0.3,0.1,0.4c0,0.1,0,0.3-0.1,0.6c-0.1,0.2-0.1,0.4,0,0.6v0.1c0,0.2-0.1,0.3-0.3,0.3
				c-0.2,0.1-0.4,0.1-0.4,0.1v0.1c0,0.1,0.1,0.2,0.2,0.3c0.1,0.1,0.2,0.2,0.2,0.3s-0.1,0.1-0.2,0.1s-0.2,0-0.3,0
				c0.1,0.2,0.2,0.4,0.2,0.7c0,0.3,0.1,0.5,0.3,0.7c0.1,0.2,0.3,0.3,0.6,0.4c1.8,0,3.3-0.3,4.5-0.8c1.4-0.6,2.6-1,3.4-1.1
				c0.2,0,0.4-0.2,0.7-0.3c0.2-0.2,0.4-0.3,0.5-0.3l6.3-2.7c0.4-0.1,0.8-0.3,1.2-0.4c0.4-0.1,0.8-0.2,1.2-0.4
				c0.2-0.1,0.4-0.1,0.6-0.1c0.2,0,0.4,0.1,0.5,0.2c0.2,0.4,0.2,0.8,0,1c-0.7,1.2-1.3,2-1.9,2.5c-0.7,0.7-1.4,1.1-2.1,1.3
				c-0.7,0.3-1.3,0.8-1.7,1.3c0,0.1,0.2,0.2,0.3,0.3c0.2,0.1,0.3,0.1,0.3,0.2V58c0,0.1,0.1,0.1,0.2,0.3c0.1,0.1,0.2,0.2,0.2,0.3
				c-0.5,0.1-0.9,0.5-1.3,1c-0.4,0.5-0.7,0.9-0.9,1.1v0.1c0,0.1,0,0.2,0.1,0.3c0.1,0.1,0.1,0.2,0,0.3c-0.1,0.1-0.3,0.2-0.4,0.4
				c-0.1,0.2-0.3,0.3-0.4,0.4c-0.1,0.1-0.3,0.1-0.5,0c0-0.1,0.1-0.2,0.2-0.2c0.1,0,0.1-0.1,0.2-0.2c-0.1-0.1-0.2-0.1-0.3-0.2
				c-0.1-0.1-0.2-0.1-0.3-0.1c0,0,0.1,0,0.1-0.1c0-0.1,0-0.1,0-0.2c-0.1-0.1-0.1-0.2-0.2-0.2c-0.1,0-0.2,0-0.3,0l-0.5,0.2
				c-0.3,0.2-0.5,0.4-0.7,0.6c-0.2,0.2-0.4,0.4-0.6,0.6c0,0.2,0.1,0.3,0.3,0.3c0.1,0.1,0.2,0.1,0.3,0.1c-0.1,0.1-0.3,0.4-0.6,0.8
				c-0.2,0.4-0.5,0.6-0.9,0.6c-0.3-0.3-0.6-0.4-0.8-0.4c-0.1,0-0.3,0.1-0.7,0.4c0,0.2,0.2,0.3,0.4,0.4c-0.1,0.1-0.2,0.1-0.2,0.1
				h-0.8c-0.4,0.1-0.6,0.2-0.7,0.3c-0.1,0.2,0,0.4,0.2,0.6c0,0.1,0.1,0.2,0.1,0.4c-0.1,0.1-0.1,0.2-0.2,0.3
				c-0.1,0.1-0.3,0.1-0.5,0.2c-0.1-0.1-0.2-0.2-0.2-0.3c0,0,0.2-0.2,0.5-0.4c-0.3-0.1-0.5-0.2-0.7-0.2c-0.2,0-0.4,0.1-0.5,0.4
				c0,0.1-0.2,0.1-0.5,0.2c-0.2,0-0.5,0-0.7,0.1c-0.2,0.1-0.4,0.1-0.6,0.1c-0.3,0.1-0.5,0.1-0.9,0l-0.3-0.1c-0.1,0-0.3,0-0.6,0.1
				c-0.2,0.1-0.4,0.1-0.5,0c-0.7-0.3-1.3-0.4-1.6-0.4c-0.1,0.1-0.3,0.1-0.4,0c-0.1-0.2-0.3-0.3-0.6-0.4c-0.3-0.1-0.4-0.1-0.5-0.2
				c-0.2-0.1-0.8-0.5-1.7-1.1l-1.3-0.9c-0.4-0.2-0.7-0.6-0.8-1c-0.1-0.5-0.4-0.8-0.9-0.8c-0.1,0-0.3-0.1-0.4-0.2
				c0-0.1,0-0.2,0.1-0.2c0.1,0,0.1-0.1,0.1-0.2l-0.1-0.1c-0.2-0.1-0.4-0.3-0.6-0.7c-0.2-0.3-0.3-0.6-0.5-0.7
				c-0.1-0.1-0.1-0.1-0.1-0.2c0-0.2,0.1-0.3,0.4-0.4c-0.3-0.2-0.6-0.7-0.8-1.4l-0.5-2.5c-0.1-0.2-0.1-0.5-0.1-0.9l0.1-2.1
				c0-1.4,0.3-3,0.8-4.8c0.2-0.3,0.4-0.7,0.5-1.2c0.1-0.4,0.3-0.8,0.5-1.1c0.1,0.1,0.3,0.3,0.6,0.5l0.4-0.5
				c-0.1-0.1-0.2-0.1-0.4-0.1c-0.2,0.1-0.3,0.1-0.4,0.1c-0.2,0-0.3-0.2-0.1-0.6c0.8-1.3,1.5-2.5,2-3.7c0-0.3,0.3-0.5,0.8-0.6
				c0.3-0.1,0.4-0.2,0.4-0.3c0-0.1-0.1-0.3-0.3-0.6c0.8-0.1,1.3-0.5,1.3-1.3c0-0.2,0.3-0.6,0.7-1.1c0,0,0.1-0.1,0.1-0.1
				c0,0,0.1-0.1,0.1-0.1c0.4-0.1,0.7-0.3,0.9-0.6c0.2-0.3,0.4-0.6,0.5-0.7c0-0.1,0.1-0.2,0.2-0.4c0.1-0.1,0.2-0.2,0.3-0.3
				c0,0,0.2-0.1,0.4-0.2c0.2-0.1,0.3-0.3,0.3-0.4c0,0,0.1-0.2,0.4-0.4c0.5,0,0.9-0.2,1.3-0.6c0.4-0.3,0.6-0.5,0.8-0.6
				c0.3-0.2,0.8-0.5,1.4-0.7c0.6-0.2,1-0.4,1.2-0.5c0.5-0.2,0.9-0.5,1.3-0.7c0.4-0.2,0.7-0.3,1-0.4c0.3-0.1,0.7-0.2,1.2-0.3
				c0.3,0,0.6-0.1,0.8-0.2c0.2-0.1,0.5-0.1,0.8-0.2h0.6c0.5,0,0.9-0.1,1.1-0.2l0.1-0.1c0.1,0.1,0.4,0.1,0.8,0.1c0.5,0,0.9,0,1.3-0.1
				c0.4,0,0.7-0.1,1-0.1c0.7,0,1.7,0.3,3,0.9c0.6,0.2,0.9,0.5,1,0.8c0.1,0.4,0.4,0.8,0.9,1.3c0.4,0.5,0.7,0.9,0.8,1.2
				c-0.2,0.1-0.2,0.3-0.1,0.4c0,0.2,0.1,0.3,0.3,0.4C230.3,33.6,230.6,33.7,230.6,33.7z M201,45.7c-0.4,0.2-0.7,0.5-0.7,0.9
				c0.2,0,0.4,0,0.5-0.1c0.1-0.1,0.2-0.2,0.2-0.3C200.9,46,200.9,45.8,201,45.7z M223.1,34.5c0,0-0.1-0.1-0.4-0.4
				c-0.5-0.4-1-0.7-1.4-0.7c-0.2,0-0.4,0.1-0.5,0.2c-0.1,0.1-0.3,0.2-0.6,0.2l-0.4-0.4h-0.1c-0.3-0.2-0.5-0.3-0.6-0.3
				c-0.2,0-0.4,0.1-0.6,0.4c0,0.1,0.2,0.1,0.4,0c0.2,0,0.3,0,0.4,0c0,0.1,0,0.1-0.1,0.1h0.1c0.2,0.1,0.3,0.3,0.1,0.3
				c-0.2,0.1-0.3,0.1-0.3,0.1c-0.3,0.1-0.5,0.2-0.7,0.3c-0.2,0.2-0.4,0.3-0.6,0.4v0.1c0.1,0,0.3,0,0.3,0.1c0.1,0.1,0.1,0.2,0.2,0.4
				c-0.4,0-1,0.2-1.8,0.6c0.2,0.1,0.4,0.1,0.5,0c0.1,0,0.2,0,0.3,0h0.1c0,0.1,0,0.2,0,0.3c0,0.1-0.1,0.2-0.3,0.3
				c-0.4,0.1-0.6,0.3-0.7,0.5c0,0.1,0.2,0.1,0.3,0.1c0.2,0,0.3,0,0.3,0c-0.1,0.1-0.2,0.4-0.4,0.7c-0.2,0.3-0.4,0.6-0.4,0.9
				c-0.1,0-0.3-0.1-0.6-0.1c-0.3,0-0.5,0.1-0.7,0.3c-0.1,0.1-0.1,0.1-0.2,0.1c-0.1,0-0.2,0-0.2,0.1c-0.1,0.1-0.3,0.1-0.5,0.1
				c-0.2,0.1-0.4,0.1-0.5,0.2c0.2,0.3,0.6,0.4,1,0.4c0.2,0.1,0.3,0.1,0.4,0.3c0,0.1,0.1,0.2,0.1,0.3c-0.1,0.1-0.3,0.2-0.3,0.6
				c-0.1,0.3-0.2,0.6-0.5,0.7c-0.1-0.2-0.3-0.3-0.4-0.3c-0.1,0-0.2,0-0.4,0c-0.2,0-0.3,0-0.4-0.2c-0.1,0.2-0.4,0.4-0.7,0.5
				c-0.3,0.1-0.5,0.1-0.7,0.2c-0.1,0.1-0.3,0.2-0.7,0.6c0.1,0,0.2,0,0.3,0c0.1,0,0.2,0.1,0.3,0.1c0.1,0.1,0.2,0.1,0.4,0.1
				c0.1,0,0.3,0,0.4-0.1c0.1-0.1,0.3-0.1,0.4,0c0-0.2,0.1-0.4,0.4-0.4c0.1,0,0.2,0,0.3,0.1c0.1,0.1,0.2,0.1,0.3,0
				c0.3,0,0.6-0.1,0.7-0.2c0.4-0.3,1.4-1.1,3-2.2l2.5-1.8l1-1.1c0.9-0.9,1.5-1.6,1.9-2C223,34.8,223.1,34.5,223.1,34.5z M215.4,37.8
				c-0.3,0-0.5,0.2-0.7,0.7c0,0,0.1-0.1,0.2-0.1l0.6,0.1c0.2,0,0.4-0.1,0.4-0.4C215.8,37.9,215.6,37.8,215.4,37.8z M215.3,36.3
				c-0.2,0.1-0.3,0.1-0.3,0.3c0.4,0,0.8-0.3,1.3-0.8c-0.3,0-0.6,0.1-0.7,0.4C215.6,36.2,215.5,36.2,215.3,36.3z M217.3,64.6
				c0,0.2,0.1,0.2,0.3,0.2c-0.3,0.3-0.6,0.6-0.9,1l-0.4-0.3c0.1-0.1,0.2-0.3,0.3-0.6c0.1-0.2,0.3-0.4,0.5-0.6
				C217.2,64.4,217.2,64.5,217.3,64.6z M218.1,63.9c0.2-0.1,0.5-0.2,0.7-0.3c-0.1,0.2-0.1,0.4-0.2,0.6c-0.1,0.2-0.2,0.4-0.3,0.5
				c-0.1,0.1-0.2,0.2-0.4,0.2c-0.1,0,0-0.2,0.1-0.3c0.1-0.2,0-0.3-0.3-0.3C217.7,64.1,217.8,64,218.1,63.9z M220.2,62.7
				c0.1-0.1,0.3-0.2,0.4-0.3c0.1,0,0.3,0,0.6,0.1c-0.1,0.1-0.3,0.2-0.5,0.4c-0.2,0.2-0.5,0.2-0.9,0.1
				C219.9,62.9,220,62.8,220.2,62.7z M220.4,61.3c-0.1,0-0.1,0-0.2,0h0.3C220.5,61.2,220.4,61.3,220.4,61.3z"/>
			<path class="st1" d="M271.1,44.1c0,0.1,0,0.2-0.1,0.2c-0.1,0.1-0.1,0.1-0.1,0.1c0.1,0.3,0.1,0.6-0.1,0.9
				c-0.2,0.2-0.3,0.4-0.3,0.5c0,0.1,0.1,0.1,0.3,0.1c-0.3,0.3-0.5,0.6-0.7,0.7c-0.1,0.1-0.2,0.3-0.4,0.6c-0.2,0.2-0.3,0.5-0.3,0.7
				c0,0.3-0.1,0.4-0.3,0.4c-0.2,0.1-0.3,0.3-0.4,0.5c0,0.1-0.1,0.3-0.3,0.5c-0.2,0.2-0.3,0.3-0.3,0.4c0,0.1,0,0.1-0.1,0.1
				c-0.1,0-0.1,0-0.1,0h-0.1c-0.1,0.2-0.1,0.4-0.1,0.5c0,0.1,0.2,0.2,0.4,0.3c-0.1,0.1-0.2,0.2-0.4,0.2c-0.4,0-0.8,0.2-1.1,0.7
				c0.1,0,0.2,0,0.4,0c0.2,0,0.3-0.1,0.4-0.3c0.2,0.1,0.3,0.1,0.4,0.3l-0.1,0.1c-0.4,0.2-0.6,0.4-0.7,0.6c0,0.1,0,0.1-0.1,0.2
				c-0.1,0.1-0.1,0.1-0.2,0c-0.1,0-0.1,0-0.2,0c-0.1,0.1-0.1,0.1,0,0.2c0,0.2,0,0.3-0.1,0.4c-0.3,0.1-0.4,0.2-0.6,0.4
				c-0.1,0.3-0.2,0.4-0.3,0.5c-0.1,0.3-0.3,0.5-0.4,0.5c-0.2,0.2-0.3,0.3-0.4,0.4c-0.1,0.1-0.2,0.3-0.3,0.6c-0.3,0-0.5,0.1-0.7,0.3
				c-0.1,0.1-0.1,0.3,0,0.4c0.1,0.1,0.1,0.2,0.1,0.2v0.1c-0.1,0.1-0.1,0.1-0.3,0c-0.1,0-0.2,0-0.3,0c-0.1,0.3-0.3,0.5-0.7,0.5
				c0,0.1,0,0.1,0,0.3s-0.1,0.3-0.2,0.5c-0.1,0.2-0.3,0.5-0.7,1c-0.5-0.1-0.9,0-1.2,0.3c0.1,0.1,0.1,0.2,0.3,0.2
				c0.1,0,0.2,0.1,0.3,0.1c-0.1,0.1-0.3,0.2-0.4,0.3c-0.2,0.1-0.3,0.1-0.4,0.2c-0.1,0.1-0.1,0.1,0,0.3c0,0.1,0,0.2,0,0.3
				c-0.1,0.1-0.2,0.1-0.3,0.1c-0.2,0-0.3,0.1-0.3,0.1l-0.1,0.6c-0.1,0.1-0.1,0.1-0.2,0.2c-0.1,0.1-0.2,0.1-0.2,0.1
				c-0.1,0.3-0.1,0.5-0.1,0.5c-0.1,0.1-0.1,0-0.2,0c-0.1-0.1-0.2-0.1-0.3,0c-0.1,0.1-0.2,0.2-0.4,0.3c-0.1,0.2-0.3,0.3-0.5,0.3h-0.2
				c0,0.4-0.1,0.7-0.1,0.8c0,0.1,0,0.2,0.1,0.2c0.1,0,0.1,0.1,0.2,0.1c-0.8,0.8-1.4,1.3-1.6,1.5c-0.3,0.3-0.6,0.5-1,0.7l-1,0.5
				c-0.4,0.1-0.8,0.1-1.1,0.1h-0.4c-0.7-0.1-1.2-0.3-1.6-0.5c-0.1-0.1-0.3-0.2-0.6-0.3c-0.2-0.1-0.4-0.1-0.6-0.2
				c-0.6-0.1-1-0.4-1.2-0.8c-0.1-0.1-0.2-0.3-0.4-0.4c-0.2-0.1-0.3-0.2-0.4-0.3c-0.5-0.3-0.8-0.9-0.8-1.6c0-0.3,0-0.5,0.1-0.7
				c0.1-0.2,0.2-0.3,0.2-0.4c0-0.6,0.1-1.6,0.3-2.9c0.2-1.1,0.3-1.9,0.3-2.5c0-0.6,0.2-1.3,0.3-2c0.2-0.7,0.3-1.3,0.3-1.6
				c0-0.3,0.1-0.9,0.2-1.8c0.1-0.9,0.2-1.6,0.3-2.3c0-0.1,0-0.3-0.1-0.4c-0.4,0.1-0.7,0.2-0.9,0.3c-0.2,0.2-0.2,0.4-0.2,0.7v0.5
				l-0.5,0.2c-0.3,0.1-0.4,0.2-0.2,0.4c0.2,0.1,0.2,0.1,0,0.3c-0.4,0.4-0.7,0.8-0.7,1.2c-0.1,0.1-0.2,0.2-0.3,0.2
				c-0.1,0.1-0.2,0.1-0.3,0.1c-0.4,0-0.7,0.2-0.8,0.6c-0.1,0.1-0.1,0.3-0.2,0.5c-0.1,0.2-0.2,0.4-0.2,0.6c0,0.1-0.1,0.3-0.1,0.8
				c-0.2-0.1-0.4-0.1-0.6,0.1c-0.2,0.2-0.3,0.3-0.4,0.3c0,0.3-0.2,0.8-0.4,1.3c-0.1,0.2-0.3,0.4-0.5,0.6c-0.2,0.2-0.4,0.4-0.5,0.5
				c-0.1,0.1-0.1,0.1-0.1,0.3c0,0.4-0.2,0.7-0.6,0.7c-0.2,0.1-0.3,0.2-0.4,0.3c-0.1,0.2-0.2,0.3-0.2,0.5c-0.1,0.4-0.2,0.8-0.3,1
				c-0.1,0.2-0.4,0.4-0.7,0.4c-0.2,0.4-0.3,0.7-0.3,0.9V62c0,0.1-0.1,0.3-0.2,0.6c-0.1,0.1-0.1,0.1-0.2,0.2
				c-0.1,0.1-0.1,0.2-0.1,0.3l0.1,0.3c-0.2,0-0.4,0.1-0.6,0.2c-0.1,0.1-0.2,0.3-0.2,0.4c0,0.2,0,0.3,0,0.3c-0.2,0.1-0.3,0-0.4,0
				c-0.1-0.1-0.2-0.1-0.2-0.2c-0.2,0.2-0.4,0.3-0.8,0.4c-0.1,0.1-0.3,0.2-0.3,0.4c-0.1,0.2-0.1,0.3-0.1,0.4
				c-0.2,0.1-0.3,0.2-0.6,0.3c-0.2,0.2-0.4,0.3-0.6,0.4c-0.1,0-0.2,0-0.4,0.1c-0.2,0.1-0.3,0-0.4-0.1c0,0-0.1-0.1-0.2-0.1
				c-0.3,0.1-0.4,0-0.6-0.2c-0.1-0.1-0.2-0.2-0.3-0.2c-0.1,0-0.2-0.1-0.3-0.1l-1-0.2c-0.3-0.1-0.4-0.3-0.6-0.5
				c-0.1-0.2-0.3-0.5-0.4-0.7c-0.1-0.1-0.2-0.2-0.3-0.4c-0.1-0.2-0.3-0.3-0.4-0.3c-0.1,0-0.2-0.1-0.3-0.3c-0.1-0.1-0.2-0.2-0.3-0.2
				c0-0.5,0-1.2,0.2-1.8c0.2-0.7,0.3-1.2,0.4-1.5c0.2-0.7,0.3-1.3,0.3-1.7c0-0.2,0-0.4,0.1-0.7c0.1-0.3,0.1-0.5,0.2-0.6
				c0.2-0.6,0.4-1.6,0.7-3.1l0.5-2.1c0-0.3,0.1-0.6,0.2-1c0.1-0.4,0.2-0.8,0.2-1.3c0-0.2,0.1-0.7,0.3-1.2c0.2-0.6,0.3-1,0.3-1.4
				c0-0.7,0.3-1.6,0.7-2.8c0-0.2,0.1-0.4,0-0.6c0-0.2,0-0.4,0-0.6l0.1-0.6c0.3-0.9,0.5-2.2,0.7-4c0.1-0.8,0.3-1.7,0.6-2.8
				c0.3-1.1,0.6-1.9,0.7-2.2c0-0.2,0-0.4,0-0.7c-0.1-0.2-0.1-0.5,0-0.7c0.2-0.1,0.4-0.2,0.6-0.4c0.2-0.1,0.5-0.3,0.8-0.4l1.6-1.1
				c0.2-0.1,0.3-0.1,0.4-0.1c0.4,0,0.9-0.1,1.3-0.4c0,0,0.1-0.1,0.3-0.1c0.1,0,0.2-0.1,0.3-0.1l1.5-0.4h0.9c0.1,0.1,0.3,0.1,0.6,0.1
				h0.2c0.3,0,0.5,0.1,0.5,0.4c0.1,0,0.2,0,0.3,0c0.1,0,0.2,0,0.3,0l0.1,0.1c-0.2,0.3-0.2,0.6,0.2,0.9l-0.2,0.4
				c-0.1,0.1-0.2,0.3-0.1,0.4c0.1,0.3,0.1,0.6-0.2,1c-0.1,0.3-0.2,0.6-0.3,1c-0.1,0.4-0.1,0.7-0.1,0.8s-0.1,0.5-0.1,1
				c-0.1,0.2-0.1,0.5-0.1,0.9c0,0.4-0.1,0.7-0.1,0.9c-0.1,0.3-0.2,0.8-0.3,1.4c-0.1,0.6-0.2,1.1-0.3,1.4c-0.1,0.2-0.1,0.4-0.2,0.6
				c-0.1,0.2-0.1,0.4-0.2,0.6c-0.1,0.1-0.1,0.3,0,0.5c0,0.2,0,0.4,0,0.6l0.2,0.1c-0.2,0.1-0.4,0.4-0.4,0.7c0,0.3-0.1,0.5-0.1,0.6
				c-0.1,0.1-0.2,0.4-0.2,0.7c-0.1,0.3-0.1,0.6-0.2,0.7c-0.1,0.1-0.1,0.1-0.1,0.2c0,0.1,0,0.2,0.1,0.3c0,0.2,0.1,0.4,0,0.5
				c0,0.1,0,0.3,0,0.4l0.2,0.1c0.4-0.3,0.8-0.9,1.3-1.6c0.6-0.8,1.1-1.4,1.5-1.8c0.4-0.5,0.7-0.9,0.8-1.2c0.4-0.6,1.2-1.5,2.2-2.7
				c0.2-0.3,0.5-0.6,0.7-0.9c0.2-0.3,0.4-0.6,0.7-0.9c0.1-0.1,0.2-0.3,0.4-0.5c0.2-0.2,0.3-0.4,0.4-0.6l0.1-0.3
				c-0.1-0.1-0.1-0.4-0.1-0.6c0-0.3,0.1-0.5,0.1-0.6c0-0.2,0-0.4,0.1-0.5c0.2-0.2,0.4-0.4,0.5-0.7c0.1-0.3,0.2-0.5,0.3-0.7
				c0.1-0.3,0.4-0.5,0.7-0.6c0.3,0,0.7-0.1,1.2-0.4c0.1-0.1,0.4-0.2,0.7-0.4c0.3-0.1,0.5-0.3,0.7-0.4c0.2-0.1,0.4-0.2,0.6-0.2
				c0.3,0,0.5-0.1,0.7-0.3c0.1,0,0.1-0.1,0.2-0.1c0.3,0,0.7-0.2,1.2-0.4c0.5-0.2,1-0.2,1.4-0.1c0.1,0.1,0.3,0,0.6-0.1
				c0.1,0.3,0.2,0.5,0.4,0.5L260,29c0.1,0,0.2-0.1,0.3-0.1c0.1,0,0.2-0.1,0.3-0.1h0.2c-0.1,0.1-0.1,0.2-0.2,0.3
				c-0.1,0.1-0.1,0.2-0.1,0.3c0.1,0.1,0.2,0.1,0.2,0.2c0,0.1,0.1,0.1,0.1,0.1c0.2,0.1,0.2,0.3,0.2,0.6l0.1,0.2
				c-0.1,0.3-0.1,0.5-0.1,0.7c0,0.3,0.1,0.5,0.2,0.7v0.4l-0.3,1.5c-0.1,0.9-0.3,1.8-0.5,2.5c-0.1,0.1-0.1,0.2-0.1,0.3
				c0,0.1-0.1,0.2-0.2,0.3c-0.1,0.1-0.2,0.3-0.2,0.6c-0.1,0.5-0.2,0.9-0.4,1.1c-0.1,0.2-0.2,0.5-0.2,0.7c0,0.2,0,0.3,0,0.4
				c-0.1,0.2-0.1,0.4-0.3,0.7c-0.1,0.3-0.2,0.5-0.3,0.7c0,0.1,0,0.1,0,0.3c0,0.1,0,0.2,0,0.3c0,0.3,0,0.6,0,1
				c-0.1,0.3-0.1,0.6-0.1,0.7c0,0.1,0,0.1-0.1,0.3c-0.1,0.1-0.1,0.2,0,0.3c0,0.1,0,0.3-0.1,0.4c-0.2,0.2-0.3,0.5-0.3,0.7
				c0,0.1,0.1,0.4,0.4,0.7c-0.1,0.1-0.1,0.2-0.2,0.4c-0.1,0.3-0.2,0.4-0.3,0.5c-0.1,0.1-0.1,0.1-0.1,0.3c0.1,0.3,0.2,0.6,0.2,1
				c0,0.4,0,0.7-0.1,1c-0.1,0.3-0.1,0.5-0.1,0.7c-0.1,0.4-0.1,1-0.1,1.9c-0.1,0.5-0.3,0.9-0.5,1.2c0,0.1,0.1,0.2,0.3,0.3
				c0.1,0.1,0.2,0.2,0.2,0.3v0.1c0.2-0.1,0.6-0.4,1.3-1c0.2,0.3,0.4,0.3,0.6,0c0.3-0.3,0.8-0.8,1.4-1.3c0.1-0.1,0.4-0.3,0.6-0.6
				c0.3-0.3,0.5-0.5,0.8-0.6c0.2-0.2,0.5-0.4,0.7-0.4c0.2-0.1,0.3-0.2,0.4-0.3c0.1-0.1,0.2-0.3,0.4-0.5c0.2-0.2,0.3-0.3,0.4-0.4
				c0.7-0.6,2.1-1.7,4.1-3.1c1.3-1,2.2-1.6,2.6-1.8c0,0.1,0,0.1,0,0.2C271.2,43.9,271.2,44,271.1,44.1C271.2,44,271.1,44,271.1,44.1
				z"/>
			<path class="st1" d="M313.4,20.1l0.5-0.1c0.2,0,0.4,0.1,0.5,0.4c-0.4,0.1-0.7,0.4-1.2,0.6c-0.4,0.3-0.8,0.5-1.2,0.6
				c-0.5,0.3-1,0.4-1.5,0.2c-0.2,0-0.4,0.1-0.4,0.1c-0.1,0.1,0,0.2,0,0.3c0.1,0.1,0.1,0.1,0.1,0.2c-1.1,0.4-1.9,0.7-2.4,1
				c-0.2,0.1-0.4,0.1-0.7,0.1c-0.3,0-0.5,0.2-0.7,0.5c-0.1,0.2-0.3,0.4-0.6,0.6c-0.3,0.1-0.5,0.3-0.7,0.4c-0.4,0.3-0.8,0.4-1.1,0.3
				c-0.1,0-0.2-0.1-0.3-0.1c-0.2,0-0.3,0.2-0.5,0.5c-0.1,0.3-0.3,0.5-0.5,0.6c-0.2,0.1-0.4,0.2-0.4,0.3l-0.8,0.6
				c-0.1,0-0.1-0.2-0.2-0.3c-0.1-0.2-0.1-0.3-0.2-0.3c0,0.5-0.4,0.9-1.1,1.2c-0.5,0.3-1,0.3-1.4,0.1c0,0.1,0,0.1-0.1,0.1
				c0,0.3,0.1,0.4,0.1,0.4c-0.5,0.2-1.1,0.5-1.7,1c-0.1,0-0.1,0-0.2,0.1c-0.1,0.1-0.2,0.1-0.3,0c-0.1-0.1,0-0.3,0.2-0.4
				c0.2-0.1,0.4-0.3,0.5-0.6c0.1-0.3,0.1-0.5,0-0.8l-0.1-0.2c0-0.1,0.1-0.3,0.2-0.6c0.1-0.1,0-0.3-0.1-0.4c-0.1-0.1-0.2-0.1-0.4-0.1
				c-0.2,0-0.3,0-0.3,0c-0.1,0-0.1,0.1-0.1,0.1c0,0.1,0,0.2,0.1,0.2c0.1,0.1,0.1,0.2,0.1,0.2c-0.1,0-0.2,0-0.4,0
				c-0.1,0-0.3,0-0.4-0.1c-0.1-0.1-0.2-0.1-0.2,0.1c-0.1,0.1-0.1,0.1-0.1,0.2c0,0.3,0.1,0.6,0.4,0.7c0.3,0.1,0.5,0.1,0.6,0.1
				c0.1,0.1,0.2,0.1,0.1,0.2c-0.1,0.1-0.1,0.2-0.1,0.3c-0.1-0.1-0.2-0.1-0.3-0.1c-0.1,0-0.2,0-0.3,0c-0.1,0.1-0.1,0.3,0,0.4
				c0.1,0.1,0.2,0.2,0.2,0.2c-0.1,0.1-0.1,0.1-0.2,0.1c-0.1,0-0.1,0-0.1,0.1l-0.2,0.1c0,0.1,0,0.2,0.1,0.3c0.1,0.2,0.2,0.3,0.3,0.4
				l-0.2,0.1c-0.1,0-0.1-0.1-0.1-0.1c0,0-0.1-0.1-0.1-0.1c-0.1,0.1-0.3,0.3-0.5,0.6c-0.2,0.2-0.5,0.4-0.7,0.6c0-0.1-0.1-0.2-0.4-0.2
				c-0.2,0.1-0.3,0.2-0.3,0.5c0,0.3,0,0.4-0.2,0.6c-0.5,0.3-1.3,0.9-2.2,1.7c-0.1,0.1-0.3,0.2-0.6,0.4c-0.3,0.2-0.5,0.3-0.6,0.5
				c-0.1,0.1-0.2,0.1-0.4,0c-0.3-0.2-0.5-0.1-0.7,0.2c-0.1,0-0.1-0.1-0.1-0.2c-0.1-0.1-0.1-0.2-0.2-0.1c-0.1,0.1-0.2,0.2-0.2,0.4
				c-0.1,0.1-0.2,0.2-0.4,0.4c-0.3,0.2-0.4,0.2-0.5,0.2c-0.1,0-0.1-0.1-0.1-0.2c0-0.1,0-0.1,0-0.2c-0.3,0-0.5,0.1-0.6,0.4
				c-0.2,0.3-0.3,0.4-0.5,0.5c0-0.1-0.1-0.3-0.3-0.4c-0.2-0.1-0.3-0.2-0.3-0.4c-0.1,0-0.2,0-0.3,0.1c-0.1,0.1-0.1,0.3,0,0.4
				c0.1,0.2,0.2,0.3,0.4,0.3c-0.2,0.1-0.4,0.2-0.7,0.4l-0.2,0.1l-0.3-0.1c-0.1,0-0.2,0.1-0.3,0.2c-0.1,0.1-0.2,0.2-0.3,0.3
				c-0.2,0.1-0.5,0.3-0.9,0.5c-0.3,0.2-0.6,0.4-0.9,0.5l-0.7,0.2c-0.1,0-0.1-0.1-0.1-0.2c0-0.1-0.1-0.1-0.1-0.1
				c-0.1,0-0.2,0.1-0.4,0.1c-0.1,0.1,0,0.1,0,0.1c0.1,0,0.1,0,0.2,0.1c-0.1,0.2-0.2,0.3-0.4,0.3c-0.2,0.1-0.3,0.1-0.5,0.2
				c-0.2,0.1-0.4,0.1-0.5,0.1c-0.2,0-0.2,0.1-0.2,0.2c-0.1,0.1-0.1,0.1-0.1,0.2c0,0.1,0,0.1-0.1,0h-0.1c-0.1,0-0.2,0.1-0.3,0.1
				c-0.1,0.1-0.2,0.1-0.3,0.1c-0.1,0-0.1-0.1,0-0.3c0-0.1,0.1-0.2,0.1-0.3c-0.4,0-0.6,0.3-0.5,0.7c0,0.1-0.1,0.2-0.1,0.5
				c-0.3,0.3-0.4,0.7-0.3,1.2c0,0.1,0,0.3,0,0.3c-0.1,0.1-0.1,0.1-0.1,0.3c0,0.1,0,0.2-0.1,0.3c-0.1,0.1-0.1,0.3-0.1,0.6
				c0,0.3,0,0.4,0,0.4c-0.1,0.1-0.1,0.2-0.1,0.4l0.1,0.6c0,0.1,0,0.1,0,0.2c0,0.1-0.1,0.2-0.2,0.2c-0.1,0.1-0.2,0.1-0.2,0.2
				c0,0.1,0,0.2,0.1,0.4v0.2c0,0.1-0.1,0.4-0.1,0.7c-0.3,0.4-0.5,0.7-0.7,0.8c-0.1,0.1-0.1,0.3,0,0.6c0.1,0,0.1-0.1,0.2-0.2
				c0.1-0.1,0.2-0.2,0.3-0.2c0.1,0.1,0.1,0.3,0.1,0.4c0,0.1,0,0.3-0.1,0.6c-0.1,0.2-0.1,0.4,0,0.6c0,0.1,0,0.1-0.1,0.2
				c-0.3,0.1-0.3,0.3-0.1,0.5c0.1,0.1,0.2,0.3,0.2,0.6c0,0.2,0,0.4,0,0.6v0.1c0,0.2-0.1,0.5-0.1,0.8c-0.1,0.3-0.1,0.6-0.1,0.8
				c0,0.1-0.1,0.2-0.1,0.3c-0.1,0.1-0.1,0.2,0,0.3c-0.1,0-0.1,0-0.3,0s-0.1,0.1,0,0.2c0.1,0.1,0.2,0.3,0.3,0.6
				c0.2,0.3,0.2,0.6,0,0.8c-0.1,0.1-0.1,0.3-0.1,0.5l0.1,0.4c0,0.3-0.1,0.5-0.3,0.7c-0.1,0.3-0.1,0.4,0.1,0.6
				c0.2,0.1,0.4,0.1,0.6-0.2c0.1-0.1,0.1-0.2,0.2-0.3c0.1-0.1,0.2-0.2,0.2-0.3c0-0.1,0-0.1,0.1-0.2c0-0.1,0.1-0.1,0.2,0
				c0.1,0,0.1,0,0.1-0.2c0.1-0.3,0.3-0.4,0.5-0.4c0,0,0.1,0,0.1-0.1c0.1-0.1,0.1-0.1,0.1-0.2c0.1-0.5,0.3-0.8,0.7-0.9
				c0.1,0,0.2-0.1,0.3-0.3c0.2-0.5,0.5-0.9,0.9-1l0.2-0.2c0.2-0.5,0.6-0.8,1-1c0.2-0.1,0.5-0.4,0.9-0.9c0.2-0.1,0.3-0.3,0.6-0.5
				c0.2-0.2,0.4-0.4,0.5-0.5c0.1-0.1,0.4-0.4,1-0.9l2.1-1.9l0.7-0.4c0.1,0.1,0.1,0.1,0.1,0.2c0,0.1,0,0.2,0,0.2
				c0.2,0.1,0.3,0.1,0.4-0.1c0-0.1,0-0.2-0.1-0.3c-0.1,0-0.2-0.1-0.2-0.1c0.2-0.2,0.5-0.5,1-0.9c0.5-0.3,0.8-0.6,1-0.8l-0.1,0.2
				c0,0.1,0.1,0.3,0.2,0.5c0.1,0.2,0.1,0.5,0,0.7c-0.2-0.1-0.3-0.2-0.3-0.2c-0.1,0-0.2,0.1-0.2,0.1c-0.1,0.1-0.1,0.2-0.2,0.2
				c-0.1,0.1-0.1,0.3-0.2,0.6c-0.1,0.2-0.3,0.4-0.4,0.6c-0.1,0-0.2-0.1-0.4-0.1c-0.2,0-0.3,0.1-0.4,0.2c-0.1,0.1-0.2,0.3-0.4,0.5
				c-0.1-0.1-0.2-0.2-0.3-0.2s-0.3,0-0.3-0.1c-0.1,0.1-0.1,0.3-0.1,0.4c0,0.1-0.1,0.1-0.2,0.1c-0.1,0-0.2,0.1-0.1,0.3
				c0.3,0,0.5-0.1,0.6-0.4c0,0.1,0,0.2,0.1,0.2c0,0.1,0,0.1-0.1,0.1c-0.1,0.1-0.1,0.1,0,0.1c0,0.1,0.1,0.1,0.1,0.1c0,0,0.1,0,0.1,0
				c0,0.1,0,0.1,0,0.2c0,0.1,0,0.2,0.1,0.2c0.1,0.1,0.2,0,0.4-0.2l0.1-0.1c0.2,0.1,0.3,0.2,0.3,0.4c0,0.2-0.1,0.3-0.2,0.5
				c-0.3,0.2-0.5,0.3-0.7,0.4c-0.3,0.1-0.4,0.2-0.3,0.6c-0.1-0.1-0.2-0.1-0.2-0.1c0,0.1-0.1,0.1-0.1,0.1c-0.2,0.3-0.4,0.5-0.7,0.4
				c-0.2,0-0.3,0.1-0.3,0.1c-0.1,0.1-0.1,0.2,0,0.3c0,0.1,0,0.2,0,0.3c0,0.1,0,0.2,0.1,0.3c-0.1,0-0.2,0.1-0.2,0.3
				c-0.1,0.2-0.1,0.3-0.3,0.2c0.1,0.1,0.2,0.1,0.3,0.3c0.1,0.1,0.2,0.2,0.4,0.1c-0.1,0.3-0.1,0.6-0.1,0.8c-0.1-0.1-0.2-0.2-0.3-0.2
				c-0.1,0-0.2,0-0.2,0c0-0.3-0.1-0.5-0.2-0.7c-0.1,0.1-0.2,0.1-0.2,0.2c-0.1,0.1-0.1,0.1-0.1,0.2c-0.2-0.1-0.3-0.1-0.4,0
				c-0.1,0.1-0.2,0.1-0.3,0.2c-0.1,0-0.1-0.2-0.2-0.4c-0.1-0.2-0.2-0.4-0.4-0.4c-0.2,0.1-0.3,0.2-0.1,0.3c0.1,0.1,0.3,0.3,0.3,0.5
				c0.1,0.2,0.2,0.4,0.3,0.5c0.1,0.1,0.3,0.2,0.5,0.2v0.6l0.2,0.1c0,0.1,0,0.1,0.1,0.1c0.2,0,0.2-0.1,0.3-0.3
				c0.2-0.4,0.4-0.6,0.7-0.6h0.1c0,0,0-0.1,0.1-0.1h0.1c0.1-0.1,0.1-0.1,0.1-0.3c0-0.1,0.1-0.2,0.1-0.3l0.3,0.1
				c0.1,0.1,0.2,0.1,0.3,0c0.1,0,0.1-0.1,0-0.1c-0.1-0.1,0-0.3,0.2-0.4c0,0.1,0.1,0.2,0.1,0.4c0,0.2-0.1,0.4-0.4,0.6
				c-0.1-0.2-0.2-0.2-0.3-0.1c-0.2,0.1-0.2,0.1-0.1,0.2l0.3,0.3c-0.1,0-0.1,0-0.1,0.1c0,0.1,0.1,0.3,0.1,0.5c0,0.4-0.1,0.7-0.3,0.9
				c-0.1,0.1-0.1,0.3-0.3,0.6c-0.1,0.3-0.2,0.5-0.3,0.8c-0.3,0-0.4,0.1-0.4,0.3c0,0.1,0,0.1-0.1,0.1c-0.1,0-0.1,0-0.2,0.1
				c-0.3,0-0.4,0.1-0.2,0.4v0.2c-0.2,0.1-0.3,0.3-0.3,0.6c-0.1,0.3-0.2,0.5-0.3,0.6c-0.1,0.1-0.1,0.1-0.1,0.2
				c-0.1,0.5-0.3,0.9-0.7,1c-0.1,0.1-0.1,0.1-0.1,0.2c0,0.1,0,0.2-0.1,0.2c-0.1,0.2-0.2,0.4-0.3,0.6c-0.1,0.1-0.2,0.3-0.3,0.4
				c-0.2,0.1-0.3,0.2-0.2,0.4c0,0.1,0,0.1-0.1,0.1c-0.3,0.1-0.4,0.3-0.5,0.6c-0.1,0.3-0.2,0.5-0.3,0.7c-0.1,0.2-0.2,0.3-0.4,0.3
				c-0.2,0.2-0.3,0.4-0.4,0.5c-0.1,0.4-0.4,0.6-0.8,0.7c-0.3,0.1-0.4,0.3-0.4,0.4c-0.1,0.4-0.4,0.7-0.8,1c-0.4,0.3-0.9,0.4-1.3,0.4
				c-0.2,0-0.4-0.1-0.7-0.2c-0.1-0.1-0.2-0.1-0.3-0.1c-0.1,0-0.2,0-0.3,0l-0.6,0.1c-0.4,0-1.1-0.1-1.9-0.3c-0.3-0.1-0.8-0.3-1.4-0.7
				l-0.3-0.1h-0.1c-0.2,0-0.4-0.1-0.6-0.3c-0.2-0.2-0.4-0.3-0.6-0.3s-0.4-0.1-0.5-0.3l-0.1-0.1l-0.2,0.1c-0.2,0-0.5-0.1-0.6-0.3
				c-0.2-0.2-0.3-0.3-0.5-0.4c-0.7-0.3-1.2-0.6-1.5-0.8c-0.5-0.4-1-1-1.4-1.9c-0.2-0.2-0.3-0.5-0.4-0.9c0.2-0.4,0.4-0.9,0.4-1.4
				c0-0.3-0.1-0.7-0.2-1.1c-0.1-0.4-0.2-0.8-0.3-1l-0.6,0.2c0-0.4,0.1-1.2,0.2-2.4c0.1-1.2,0.3-2.4,0.6-3.4c0.2-0.7,0.3-1.9,0.4-3.4
				c0.1-0.7,0.2-1.3,0.4-1.7c0.3-0.7,0.5-1.5,0.6-2.4c0.1-0.9,0.2-1.4,0.3-1.6c0.3-1.7,0.9-3.5,1.6-5.2c0-0.2,0.1-0.4,0.1-0.7
				c0.1-0.3,0.2-0.6,0.3-1c0-0.1,0-0.3,0-0.6c0-0.3,0.2-0.5,0.4-0.7v-0.1c0-0.1,0.1-0.3,0.2-0.6c0.2-0.2,0.2-0.4,0.1-0.6
				c0,0,0-0.1,0-0.1c0,0,0.1-0.1,0.2-0.1c0.2,0,0.4-0.1,0.4-0.4c0-0.2,0.1-0.4,0.4-0.6c0.2-0.2,0.3-0.5,0.3-0.8
				c0-0.3,0.1-0.6,0.4-0.9c0.2-0.2,0.4-0.2,0.5-0.1c0.1-0.2,0.2-0.4,0.1-0.7c-0.1,0-0.2,0-0.2,0c-0.1,0.1-0.1,0.1-0.1,0.1
				c-0.1-0.1-0.2-0.2-0.2-0.4s0-0.3,0.1-0.3c0.1-0.1,0.1-0.2,0.2-0.3c0-0.1,0.2-0.2,0.4-0.3c0.2-0.1,0.3-0.2,0.2-0.4
				c-0.2-0.1-0.3-0.1-0.6,0.1c-0.1,0-0.1-0.1-0.1-0.3s0.1-0.4,0.4-0.7c0-0.1,0.2-0.2,0.3-0.4c0.2-0.2,0.2-0.4,0.1-0.6l-0.1-0.2
				c0-0.3,0.2-0.5,0.7-0.6l0.1-0.1c0.1,0,0.1,0,0.1-0.1c-0.3-0.3-0.3-0.7-0.1-1c0.1-0.2,0.2-0.5,0.3-0.8c0.1-0.3,0.2-0.6,0.3-0.8
				l0.5-1.1l0.1,0.2c0,0.1,0.1,0.1,0.2,0.1c0,0,0.1-0.1,0.1-0.2c0-0.1,0-0.1,0.1-0.2c0,0,0.1,0,0.3,0.1c0.1,0.1,0.2,0,0.3-0.3
				l0.1,0.4c0.2,0.1,0.3,0.1,0.4-0.1c0,0-0.1-0.1-0.2-0.3c-0.2,0-0.3-0.1-0.3-0.3c-0.1-0.1-0.1-0.2-0.2-0.3l-0.1-0.1
				c0.2-0.1,0.3-0.3,0.4-0.5c0-0.1,0.1-0.3,0.2-0.5c0.1-0.2,0.1-0.3,0-0.4v-0.2c0-0.2,0.1-0.5,0.4-0.9c0,0,0.1,0,0.1-0.1
				c0-0.1,0-0.1,0-0.2c-0.1-0.2,0-0.3,0.2-0.3c0.1,0,0.2-0.1,0.3-0.2c0.1-0.1,0.1-0.2,0-0.2l-0.1-0.3c0-0.2,0.1-0.5,0.4-0.9
				c0.1-0.1,0.2-0.2,0.2-0.3c0-0.1,0-0.1,0-0.2c0-0.2,0-0.3,0.1-0.4c0.2-0.1,0.3-0.3,0.3-0.5c0-0.2,0-0.4,0-0.5
				c0.1-0.2,0.2-0.4,0.5-0.6c0.1-0.1,0.2-0.3,0.1-0.4v-0.1c0-0.2,0.1-0.5,0.4-0.7c0.1-0.1,0.2-0.3,0.3-0.5c0-0.1,0-0.2,0.1-0.4
				c0.1-0.1,0.1-0.3,0.2-0.4l1.9-3.5c0.1-0.2,0.3-0.4,0.7-0.4c0.2,0,0.4,0,0.6-0.1c0.2-0.1,0.3-0.3,0.4-0.5c0.3-0.6,0.8-0.9,1.6-0.7
				c0.2,0.1,0.3,0,0.6-0.1c0.4-0.2,0.7-0.2,1,0c0.2,0.1,0.6,0.3,1.2,0.4c0.4,0,0.7,0.1,0.9,0.4c0.1,0.2,0.2,0.3,0.4,0.3
				c0,0,0.1,0,0.2,0c0.1,0.1,0.1,0.1,0.1,0.1c0.1,0.2,0.2,0.4,0.3,0.5c0.2,0.1,0.3,0.2,0.3,0.3c0.4,0.4,0.7,0.9,0.7,1.3v0.1
				c-0.2,0.2-0.3,0.5-0.4,0.9c-0.1,0.4-0.1,0.7-0.2,0.9c0,0.1-0.1,0.1-0.1,0.1c-0.2,0.1-0.2,0.3-0.2,0.6c0,0.5-0.2,0.9-0.6,1.2
				c-0.3,0.2-0.5,0.5-0.5,0.9c0,0.3,0,0.6,0,0.7c0,0.3-0.2,0.6-0.4,0.9c-0.4,0.4-0.7,0.9-0.7,1.3c0,0.4-0.1,0.7-0.4,0.9
				c-0.1,0-0.2,0.1-0.2,0.3l0.1,0.4c0,0.3-0.2,0.6-0.7,0.7c-0.3,0.1-0.4,0.2-0.4,0.4c0,0.1,0.1,0.3,0.3,0.4l0.2,0.2
				c-0.2,0.1-0.3,0.4-0.3,0.6c-0.1,0.3-0.1,0.5-0.2,0.7c-0.2,0.3-0.4,0.7-0.6,1.1c-0.1,0-0.2,0-0.3-0.1c-0.1-0.1-0.2,0-0.2,0.1
				c-0.1,0.1-0.1,0.2,0,0.3c0.1,0.1,0.1,0.1,0.1,0.2v0.3c0,0.3,0,0.5-0.1,0.7c-0.1,0.1-0.1,0.2-0.2,0.3c-0.1,0.1-0.1,0.2-0.2,0.3
				c-0.5,0.6-0.7,1.3-0.7,1.9c0,0.4-0.2,0.6-0.7,0.7c0,0.4,0,0.8-0.1,1c-0.1,0.3-0.2,0.4-0.5,0.6c-0.1,0.1-0.1,0.1-0.1,0.2
				c0,0,0.1,0,0.1,0.1c0,0.1,0,0.3-0.1,0.4l-0.2,0.1v0.1c0,0.1,0,0.2-0.1,0.3c-0.1,0.1-0.1,0.2-0.1,0.3c0,0.2,0.1,0.4,0.2,0.6
				c0.1,0.1,0.3,0.2,0.5,0.1l0.3-0.1c0.3,0,0.6,0.2,0.8,0.5c0.1-0.2,0.3-0.3,0.6-0.3l-0.1-0.1c0-0.3,0.1-0.5,0.2-0.6
				c0.2-0.1,0.3-0.1,0.5,0c0.1-0.2,0.4-0.4,0.7-0.4c0.4,0,0.8,0.2,1,0.7c0.1,0.1,0.2,0.1,0.3,0.1c0.2,0,0.2-0.1,0.2-0.2
				c-0.1-0.1,0-0.3,0-0.6c0.1-0.3,0-0.5-0.1-0.7c0.3,0.1,0.6,0.1,0.9-0.1c0.1,0,0.2-0.1,0.4-0.3c0.2-0.1,0.5-0.2,0.7-0.2
				c0.1,0,0.4-0.1,0.6-0.2c0.3-0.1,0.5-0.2,0.6-0.2c0.1,0,0.2,0,0.4,0c0.2,0,0.4-0.1,0.7-0.2h0.2c0.4-0.5,0.7-0.5,0.7,0.1
				c0,0.1,0,0.1,0.2,0.1c0.1,0,0.1,0,0.1-0.1c-0.1-0.1,0-0.2,0-0.2c0.1,0,0.1-0.1,0.2-0.1c0.1-0.1,0.2-0.2,0.4-0.2
				c0.2,0,0.3-0.1,0.4-0.3c0.1,0,0.1-0.1,0.3-0.1c0.1,0,0.2,0,0.3,0.1c0.2,0.1,0.3,0.1,0.4-0.1c0.2-0.3,0.6-0.4,1.1-0.4
				c0.2,0.1,0.4,0.1,0.4-0.1c0.1,0,0.1,0,0.2,0c0,0.1,0.1,0.1,0.1,0.2c0,0.4,0.2,0.5,0.5,0.2c0,0,0.1-0.1,0.3-0.1
				c0.1,0,0.2-0.1,0.3-0.2c0.1,0,0.2-0.1,0.4-0.2c0.2-0.1,0.3-0.2,0.3-0.4c0,0,0.1,0,0.3-0.1c0.1-0.1,0.2-0.1,0.3,0
				c0,0.1,0.1,0,0.3-0.1c0.1-0.2,0.3-0.3,0.5-0.3c0.2,0,0.3,0,0.4,0c-0.1,0.1-0.1,0.2-0.2,0.3c-0.1,0.1-0.1,0.2-0.1,0.3
				c0,0.1,0.1,0.3,0.4,0.6v-0.1c0-0.1,0.1-0.2,0.2-0.4c0.1-0.1,0.2-0.3,0.2-0.4c0.1,0,0.1,0,0.2,0.1c0,0.1,0.1,0.1,0.2,0
				c0-0.1,0.1-0.2,0.2-0.3c0.1-0.1,0.2-0.3,0.1-0.4c0-0.1,0-0.1,0.1-0.1c0.2,0,0.3,0,0.5-0.1c0.2-0.1,0.3-0.1,0.4-0.2l1-0.3
				c0.2,0,0.4-0.1,0.7-0.2c0.3-0.1,0.6-0.1,0.9-0.1c0,0,0.1-0.1,0.3-0.2c0.2,0.1,0.3,0.1,0.4,0.1c0.3,0,0.5-0.2,0.7-0.7
				c0.8,0,1.6-0.1,2.4-0.2c0.1,0,0.3-0.1,0.3-0.2c0.1-0.1,0.2-0.2,0.3-0.2c0.1,0,0.3-0.1,0.5-0.1c0.2,0,0.4-0.1,0.4-0.3l0.1,0.1
				c0,0,0.1,0,0.3-0.1c0.1,0,0.2,0,0.3,0c0.2,0.1,0.3,0.1,0.4,0.1c0.2,0,0.4-0.1,0.4-0.4c0.1,0,0.3,0.1,0.5,0.3
				c0.1,0,0.3-0.2,0.5-0.4c0.2-0.2,0.5-0.3,0.7-0.2H313.4z M264.9,58.4c-0.1,0.1-0.1,0.2-0.1,0.3c-0.1-0.1-0.2-0.3-0.2-0.7
				C264.8,58.1,264.9,58.2,264.9,58.4z M274.1,20.5L274.1,20.5C274.2,20.5,274.2,20.5,274.1,20.5z M274.8,19.5h-0.2
				C274.7,19.4,274.8,19.4,274.8,19.5z M286,36.2C286,36.2,286,36.2,286,36.2C286,36.2,286,36.2,286,36.2
				C286,36.2,286,36.2,286,36.2z"/>
			<path class="st1" d="M338.3,40.7c-0.2,0.1-0.3,0.3-0.6,0.4c-0.3,0.1-0.4,0.3-0.6,0.4c0,0.1,0,0.1-0.1,0.1c-0.1,0-0.1,0,0,0.1
				c0,0.2-0.1,0.4-0.3,0.5c-0.2,0.1-0.4,0.1-0.4,0.2l-0.7,0.6c-0.1,0-0.2,0-0.4,0c-0.2,0-0.3,0.1-0.4,0.2c-0.1,0.1-0.1,0.1-0.1,0.1
				c0,0.1,0,0.1,0,0.1c0,0,0.1,0,0.1,0c0.4-0.1,0.7-0.2,0.9-0.4c0,0.1,0,0.1-0.1,0.3c-0.1,0.1-0.2,0.1-0.3,0c0,0-0.1,0-0.2,0
				c0,0.1,0,0.3-0.1,0.3c-0.1,0.1-0.2,0.1-0.3,0.2c-0.1,0-0.1,0-0.1-0.1c-0.1,0-0.1-0.1-0.2-0.1l-0.1,0.1c0,0.2-0.1,0.4-0.4,0.5
				c-0.1,0.1-0.1,0.1-0.1,0.1c0,0.1-0.1,0.1-0.1,0.1l0.1,0.1c0.1,0,0.2,0,0.3-0.1c0.1-0.1,0.2-0.2,0.3-0.2c-0.1,0.1-0.1,0.1-0.1,0.2
				c0,0.1,0,0.1-0.1,0.2c-0.1,0.1-0.2,0.2-0.3,0.1c-0.3,0-0.5,0.1-0.5,0.3c0,0.1-0.1,0.1-0.1,0.1c-0.1,0-0.1,0-0.1,0.1v0.2
				c-0.2,0.3-0.4,0.4-0.7,0.5c-0.3,0.1-0.6,0.1-0.7,0.2c0,0.1,0,0.1,0.1,0.1c0,0.1,0,0.1,0,0.1c-0.1,0.1-0.2,0-0.4-0.1
				c-0.1,0.1-0.2,0.2-0.4,0.3c-0.2,0.1-0.4,0.2-0.5,0.4c0.1,0,0.2,0,0.4-0.1c0.2,0,0.2,0,0.2,0.2c0.1,0,0.3-0.1,0.5-0.2
				c0.2-0.1,0.3-0.1,0.5-0.1v0.2c0,0.3-0.1,0.5-0.3,0.7c-0.2,0.2-0.3,0.2-0.5,0.1c0.1,0,0.1-0.2,0.2-0.3c0-0.2,0.1-0.2,0.3-0.2
				c0-0.1,0-0.3-0.1-0.4c-0.1,0.1-0.2,0.3-0.4,0.3c-0.2,0.1-0.3,0.1-0.3,0c-0.1-0.1-0.1-0.2-0.2-0.1c-0.1,0.1-0.1,0.1-0.2,0.1
				c0,0.1,0,0.1,0.1,0.1c0.1,0,0.1,0,0.1,0.1c-0.1,0.1-0.2,0.2-0.3,0.5c-0.1,0.3-0.3,0.4-0.5,0.5c0,0.2,0.1,0.3,0,0.4
				c0,0.1-0.1,0.1-0.2,0c-0.1,0.1-0.3,0.2-0.5,0.3c-0.3,0.2-0.4,0.4-0.5,0.7c0-0.2-0.1-0.3-0.4-0.2c0.1,0.1,0,0.2-0.1,0.2
				c-0.2,0-0.3,0-0.3,0.1c0.1,0.1,0.2,0.1,0.4,0.1c0.1,0,0.2-0.1,0.3-0.1c0,0.4-0.2,0.7-0.4,0.8c-0.3,0.1-0.5,0.2-0.6,0.3
				c-0.1,0.1-0.2,0.1-0.3,0.2c-0.1,0.1-0.1,0.1-0.2,0.2c-0.4,0.3-0.8,0.5-1,0.4v0.4c0.1,0,0.2-0.1,0.4-0.2c0.1-0.1,0.3-0.2,0.4-0.2
				c0,0.1,0.1,0.1,0.2,0.2c0.1,0.1,0.1,0.2,0,0.3h-0.5c-0.1,0.1-0.2,0.3-0.4,0.7c-0.1,0.1-0.2,0.2-0.3,0.2c-0.1,0-0.3,0.1-0.4,0.2
				c0-0.2,0.1-0.3,0.3-0.4c0.2-0.1,0.3-0.2,0.3-0.3c-0.1,0-0.1-0.1-0.2,0c-0.1,0-0.1,0-0.1,0c0,0.1,0,0.1-0.1,0.1v-0.1V53l0.2-0.2
				c-0.1,0-0.2,0-0.3,0.1c-0.1,0.1-0.2,0.2-0.3,0.2c-0.1,0.1-0.2,0.1-0.2,0.1c-0.1-0.2-0.2-0.3-0.3-0.3c-0.2,0-0.3,0-0.3,0
				c0,0,0.1-0.1,0.2-0.1c0.1,0,0.2,0,0.2-0.1c0,0,0-0.1-0.1-0.1c-0.1,0-0.1-0.1-0.1-0.2c0.1,0.1,0.2,0.1,0.3,0.1
				c0.1,0,0.2-0.1,0.3-0.1c0.1,0,0.1-0.1,0-0.1c-0.1,0-0.1-0.1-0.1-0.1c0.1,0,0.1,0,0.2,0c0.1,0,0.1,0,0.2-0.1c0-0.1,0-0.1-0.1-0.1
				c-0.1,0-0.1-0.1-0.3-0.1c-0.1,0.1-0.1,0.1-0.3,0.1c-0.1,0-0.2,0-0.3,0.1c0,0.1,0,0.1,0.1,0.1c0.1,0,0.1,0,0.1,0.1
				c0,0.1-0.1,0.1-0.2,0.1V52c-0.6,0.1-0.9,0.2-1,0.2c-0.1,0-0.1,0-0.1,0.1c0,0.1,0,0.1,0.1,0.1c0.1,0.1,0.2,0.1,0.3,0.2
				c0.1,0.1,0.2,0.1,0.3,0.1c-0.1,0-0.1,0-0.1,0.1c-0.1,0.1-0.1,0.1-0.1,0.1c-0.1,0-0.1,0-0.1-0.1c0,0,0,0-0.1,0
				c-0.1,0.2-0.1,0.3,0.1,0.3c-0.4,0.2-0.6,0.5-0.5,0.9c0.1,0.1,0.2,0.2,0.2,0.3c0.1-0.1,0.2-0.2,0.4-0.4c0.1-0.1,0.3-0.2,0.4-0.3
				c-0.1-0.1-0.1-0.1-0.2-0.1c-0.1,0-0.2,0.1-0.3,0.1l0.4-0.2c0.1-0.1,0.2-0.1,0.2-0.1c0,0,0.1,0,0,0.1c0,0.1,0,0.1,0,0.2
				c0.1,0,0.1-0.1,0.2-0.2c0-0.2,0.1-0.2,0.3,0c0,0.1-0.1,0.1-0.2,0.2c-0.1,0-0.1,0.1,0,0.1h0.1c0,0,0.1,0,0.1-0.1h0.1h0.1
				c0,0.2-0.1,0.4-0.1,0.4c-0.1,0.1-0.2,0.1-0.3,0.2c-0.1,0.1-0.2,0.2-0.3,0.2c-0.1,0-0.2,0-0.3,0.1c-0.1,0.1-0.3,0.1-0.4,0
				c0,0-0.1,0-0.1,0.1c0,0.1,0,0.1,0.1,0.2c0.1,0.1,0.1,0.1,0.1,0.2l-0.7,0.6h-0.2c-0.1-0.1,0-0.2,0.1-0.3c0.1-0.1,0.2-0.2,0.3-0.4
				c0-0.1,0.1-0.3,0.1-0.4c-0.2,0.1-0.3,0.2-0.6,0.3c-0.3,0.1-0.4,0.2-0.4,0.4c0,0.1,0,0.1,0.1,0.1c0,0,0.1,0,0.1,0.1
				c0.1,0.1,0.1,0.2,0,0.2c-0.1,0.2-0.2,0.4-0.5,0.7c-0.1,0.1-0.1,0.1-0.1,0.1c0,0.1,0,0.1,0.1,0.1c0.1,0.1,0.2,0.1,0.3,0
				c0.2-0.1,0.2-0.1,0.3,0c-0.1,0.1-0.1,0.1-0.2,0.3c-0.1,0.1-0.1,0.2,0,0.3c-0.1,0.1-0.2,0.1-0.2,0c-0.1,0-0.1,0-0.2,0
				c0.1,0,0.1,0.1,0.2,0.2c0,0.1,0.1,0.1,0.3,0c0-0.1,0-0.1,0-0.1c0,0,0-0.1,0-0.1c0-0.1,0.2-0.2,0.4-0.2c0,0.1,0,0.1,0,0.3
				c0,0.1-0.1,0.3-0.2,0.4h-0.1c-0.1,0-0.2,0-0.3,0c-0.1,0-0.3,0-0.4-0.1c-0.1,0.1-0.2,0.3-0.2,0.6c0,0.3-0.1,0.4-0.3,0.5
				c0,0.2-0.1,0.4-0.4,0.7c-0.3,0.2-0.5,0.4-0.5,0.6c0,0.1-0.1,0.2-0.1,0.1c-0.3,0-0.4,0.1-0.4,0.4c0,0.1,0,0.1,0.1,0
				c0.1,0,0.1,0,0.2,0.1c-0.1,0-0.1,0-0.2,0c-0.1,0-0.1,0.1,0,0.2c-0.2-0.2-0.4-0.3-0.6-0.3c-0.1,0-0.2,0-0.2,0.1
				c0,0.1-0.1,0.1-0.1,0.1c-0.1,0-0.1,0-0.3,0c-0.1,0-0.2-0.1-0.3-0.3c-0.1,0.2-0.2,0.4-0.2,0.6v0.4c0,0.5-0.1,0.8-0.3,1
				c-0.2,0.3-0.2,0.5-0.1,0.7c-0.1,0-0.1,0-0.3,0c-0.1,0-0.1,0.1,0,0.3l-0.1,0.1c-0.1,0.1-0.2,0.3-0.4,0.6c-0.1,0.3-0.3,0.5-0.4,0.6
				c-0.1,0.1-0.1,0.2-0.1,0.4c-0.1,0-0.2,0.1-0.4,0.2c-0.3,0.5-0.7,0.9-1.2,1.2l-0.7,0.2l-0.2-0.1c-0.2-0.2-0.5-0.2-0.8-0.2
				c-0.2,0-0.4,0.1-0.7,0.2l-0.2-0.2c0-0.1,0-0.2-0.1-0.3c-0.1,0-0.2,0-0.3,0.1c-0.1,0.1-0.3,0-0.5-0.2c-0.3-0.2-0.4-0.3-0.4-0.4
				c-0.1-0.3-0.2-0.6-0.5-0.7c-0.3-0.2-0.6-0.6-0.9-1.2c-0.3-0.6-0.6-1.3-1.1-1.9c0-0.1-0.1-0.2-0.2-0.3c-0.2-0.1-0.4-0.4-0.4-0.7
				c0-0.2,0-0.3-0.1-0.4c-0.1-0.2-0.1-0.4,0.1-0.5v-0.1c0.1-0.5,0.2-0.9,0.3-1.3c0.1-0.4,0.2-0.7,0.3-0.9c0.1-0.4,0.3-0.9,0.4-1.6
				c0.2-0.6,0.3-1.2,0.4-1.6c0.1-0.2,0.1-0.6,0.2-1c0-0.4,0.1-0.7,0.2-1c0.1-0.2,0.1-0.5,0.2-0.7c0-0.2,0.1-0.5,0.1-0.7l-0.3-0.1
				v0.1c0,0.3-0.2,0.6-0.7,0.9l-0.2,0.2c-0.1,0.3-0.2,0.5-0.4,0.7c-0.2,0.2-0.4,0.3-0.5,0.4c-0.1,0.1-0.1,0.2-0.1,0.4v0.2l-0.1,0.1
				c-0.2-0.1-0.3-0.2-0.2-0.4c-0.1,0.1-0.1,0.2-0.1,0.3c0,0.1,0.1,0.2,0.3,0.3c-0.1,0.1-0.1,0.1-0.3,0c-0.1,0-0.2,0-0.3,0.2
				c-0.1,0-0.1-0.1-0.3-0.2c-0.1-0.1-0.1-0.2,0-0.3h0.1c0.1,0,0.2-0.1,0.2-0.2v-0.1c-0.1-0.2,0-0.2,0.2-0.2c-0.2-0.1-0.3-0.1-0.4,0
				c-0.3,0.3-0.4,0.5-0.6,0.5c0,0.1,0.1,0.3,0.2,0.4c0.2,0.2,0.2,0.3,0.2,0.4c0.2,0.1,0.3,0.2,0.3,0.5c0,0.1,0.1,0.1,0.2,0.1
				c-0.2,0.1-0.3,0.1-0.4,0c-0.1,0-0.1-0.1-0.1-0.3c0-0.2,0-0.2-0.1-0.3v0.1c-0.1,0-0.2,0-0.2,0.1c-0.1,0.2-0.1,0.3-0.1,0.4
				c-0.1,0.2-0.2,0.3-0.4,0.4c-0.2,0.1-0.3,0.1-0.4,0.1c-0.1,0.1-0.1,0.1-0.2,0.2c-0.1,0.1-0.1,0.2,0,0.3l-0.3,0.1
				c0,0.2,0,0.3,0.1,0.4c-0.1,0.3-0.2,0.4-0.3,0.5c0,0.1,0,0.2,0.2,0.4c0,0.1,0,0.1-0.1,0.2c-0.1,0.1-0.1,0.1-0.2,0.1
				c-0.1-0.1-0.1-0.3-0.1-0.5c-0.1,0-0.2,0.1-0.2,0.1c0,0.1,0,0.2-0.1,0.2l-0.3-0.1c-0.1,0-0.2,0.2-0.3,0.5c-0.1,0-0.3,0-0.5,0.1
				c0,0.1,0.1,0.2,0.2,0.3c0.2,0.1,0.2,0.2,0.2,0.3v0.2c-0.1,0.2-0.2,0.3-0.2,0.4c-0.1,0-0.2-0.1-0.1-0.3c0-0.1,0-0.2,0-0.3
				l-0.5,0.8c-0.1,0.1-0.1,0.1-0.2,0.2c-0.1,0.1-0.1,0.2-0.1,0.3c0,0.1,0,0.1-0.1,0.3c-0.1,0.1-0.1,0.2,0,0.3c0,0.1,0,0.1,0,0.2
				c-0.1,0.1-0.1,0.1-0.1,0.1c-0.1,0-0.1,0.1-0.2,0.4c0.2,0.1,0.3,0.2,0.3,0.3c0,0.1-0.1,0.2-0.3,0.4c0,0.1,0,0.1-0.1,0.2
				c-0.1,0.1-0.1,0.1-0.2,0.2c-0.1-0.1,0-0.2,0-0.3c0.1-0.1,0.1-0.2,0.1-0.2c-0.1-0.1-0.1-0.2-0.1-0.3c0-0.1-0.1-0.1-0.3-0.1
				c0.2-0.2,0.3-0.4,0.2-0.6c0,0,0.1,0,0.2,0c0.1,0,0.1,0,0.1-0.2c0-0.1-0.1-0.1-0.2-0.1c-0.1,0.1-0.1,0.1-0.1,0
				c-0.1,0-0.1-0.1-0.2-0.1c-0.1-0.1-0.3,0-0.4,0.1c-0.1,0.1,0,0.2,0,0.2c0.1,0.1,0.1,0.1,0.2,0.1c-0.1,0.1-0.1,0.1-0.2,0.1
				c-0.1,0-0.1,0-0.1,0.1c0,0.1,0,0.1,0,0.2c0,0.1,0,0.2,0,0.3c-0.1,0.1-0.1,0.1,0,0.1c0.1,0.1,0.2,0.2,0.1,0.3
				c-0.1,0.1-0.1,0.2-0.2,0.3c-0.2,0.3-0.1,0.5,0.3,0.6c-0.3,0.4-0.6,0.7-0.7,0.8c0.2-0.3,0.2-0.7,0-1c-0.3,0.3-0.6,0.4-0.8,0.4
				c0.1,0.1,0.1,0.2,0,0.3c-0.1,0.1-0.2,0.2-0.2,0.2v0.2c0,0.2-0.2,0.4-0.5,0.7c-0.2,0.1-0.4,0.3-0.5,0.7c-0.2,0.2-0.2,0.4-0.1,0.5
				c0,0.1,0,0.1-0.1,0.2c-0.1,0.1-0.2,0.2-0.3,0.2c-0.3,0-0.6-0.1-0.8-0.2c-0.1,0-0.2,0-0.4,0c0.1-0.1,0.1-0.2,0-0.3
				c-0.1,0-0.2-0.1-0.3-0.1c-0.1,0-0.1,0-0.2,0c-0.1,0-0.2,0-0.2,0c0,0.1-0.1,0.1-0.3,0.2c-0.2,0.1-0.3,0.2-0.3,0.3
				c-0.1,0-0.1,0-0.1-0.1s0-0.1-0.1,0c-0.1,0.1,0.1,0.2,0.4,0.4c-0.1,0.1-0.3,0.1-0.4,0c-0.1,0-0.2,0-0.3,0l-0.3,0.1
				c-0.1,0-0.3-0.1-0.5-0.4v-0.1c0.1,0,0.2,0,0.2-0.1V66c0,0-0.1-0.1-0.2-0.1c-0.1,0-0.2,0.1-0.2,0.1c-0.1,0.1,0,0.2,0.1,0.2
				l-0.2,0.1c-0.2,0.2-0.3,0.3-0.4,0.3c-0.1,0-0.2-0.1-0.3-0.4l-0.1-0.4c-0.1-0.1-0.2-0.2-0.5-0.2c0.1,0.1,0.2,0.2,0.3,0.4
				c-0.2,0.1-0.3,0.1-0.4-0.1c-0.1-0.2-0.3-0.3-0.5-0.2c-0.2,0-0.3,0-0.4-0.1c-0.2-0.2-0.3-0.3-0.4-0.3c-0.1-0.1-0.3-0.1-0.4-0.2
				c-0.2-0.3-0.4-0.6-0.4-0.9c0-0.1,0-0.2-0.1-0.4c-0.1-0.2-0.1-0.3-0.2-0.5c-0.4-0.6-0.5-1.3-0.4-2.1V61l-0.1-0.7
				c0.1-0.1,0.2-0.3,0.2-0.5c0-0.2,0.1-0.4,0.2-0.5c0.1-0.1,0.1-0.2,0.1-0.3c-0.1-0.1-0.1-0.1-0.2-0.1c-0.2,0-0.3,0-0.3-0.1l0.3-0.6
				c0.1-0.2,0.1-0.3,0-0.6c-0.2-0.2-0.2-0.4-0.2-0.7c0.1,0,0.1,0,0.1-0.1v-0.2c0-0.2,0.1-0.3,0.4-0.4c0,0,0-0.1,0-0.2
				c0,0,0-0.1,0-0.1c0,0,0-0.1,0-0.1c0,0,0,0,0,0.1c0.1,0.1,0.1,0.1,0.1,0.1c0,0.1,0,0.1,0,0.2c0.2,0.2,0.4,0.2,0.7-0.1
				c0.1-0.1,0.1-0.2,0-0.3c-0.1-0.1-0.1-0.1-0.1-0.2c0,0,0-0.1-0.1-0.2c-0.1-0.1,0-0.2,0.2-0.2c0-0.1,0.1-0.1,0.1-0.2
				c-0.1-0.1-0.1-0.2,0-0.4c0-0.1,0-0.3,0-0.4v-0.3c-0.2,0-0.3-0.2-0.4-0.3c-0.1-0.2-0.1-0.3,0-0.4c0-0.1,0.1-0.2,0.1-0.4
				c0-0.2,0.1-0.3,0.2-0.4c0.1-0.2,0.2-0.4,0.1-0.6c0-0.2,0.1-0.4,0.2-0.5c0,0,0.1-0.1,0.1-0.2c0-0.1,0-0.1,0.1-0.2h0.2v-0.2
				l0.1-0.7c0,0,0-0.1,0-0.1c0,0,0-0.1,0-0.1c0.1,0,0.3-0.2,0.4-0.4c0.1-0.2,0.1-0.4,0.1-0.6c0.1,0.1,0.2,0.1,0.2,0.1l0.2,0.1v0.1
				c0,0,0.1,0,0.1,0.1c0.1-0.2,0.3-0.6,0.4-1.1c-0.2,0.1-0.3,0.1-0.4,0.2c-0.1,0.1-0.2,0.1-0.3,0.1c-0.1,0-0.1-0.1-0.1-0.2
				c0.1-0.2,0.2-0.4,0.1-0.6c0-0.1,0.1-0.2,0.2-0.3c0,0,0.1-0.1,0-0.1c0,0,0-0.1,0-0.1c0-0.1,0.1-0.4,0.2-0.7
				c0.1-0.3,0.2-0.6,0.3-0.8c0.2,0.2,0.4,0.2,0.9,0.1c0-0.3-0.2-0.5-0.7-0.6c0-0.1,0.1-0.2,0-0.3c0-0.1,0-0.2,0-0.2
				c0.1,0,0.1-0.1,0.2,0c0,0,0.1,0,0.1,0c0.1-0.1,0.1-0.2,0-0.2c-0.1-0.1-0.1-0.2,0-0.4c0-0.1,0.1-0.3,0.2-0.6
				c0-0.2,0.1-0.4,0.1-0.5c0,0,0.1-0.1,0.2-0.1c0.3,0,0.5-0.1,0.5-0.4c-0.2,0-0.2-0.1-0.1-0.4c0-0.1,0-0.2,0-0.3
				c-0.1-0.2-0.1-0.4-0.1-0.4c0,0,0.1-0.1,0.3-0.1v-0.1c0-0.3,0.1-0.6,0.2-0.9c0.2-0.3,0.2-0.6,0.3-0.8c0,0,0.1,0,0.1,0
				c0,0.1,0.1,0.1,0.1,0.1c0-0.1,0.1-0.4,0.2-1c0,0,0.1,0,0.1,0.1c0,0.1,0.1,0.1,0.2,0c0.1-0.2,0-0.3-0.3-0.3
				c0.1-0.4,0.2-0.7,0.3-0.8c0.1-0.2,0.1-0.4,0.1-0.5c0,0,0-0.1,0.1-0.3c0.1-0.1,0.2-0.2,0.4-0.2l0.1-0.1c-0.2-0.2-0.1-0.3,0.1-0.4
				c0,0,0.1,0,0.1-0.1c-0.1-0.1-0.1-0.2-0.1-0.4s0.1-0.5,0.4-1c0.3-0.5,0.5-0.9,0.5-1.1c0-0.1,0.1-0.3,0.2-0.6
				c0.1-0.3,0.2-0.6,0.4-0.8c0.2,0,0.6,0,1.1-0.1c0.5-0.1,0.9-0.1,1.1-0.1c0.7,0,1.3,0.1,1.8,0.4l0.1,0.1c0.2,0.1,0.4,0.3,0.6,0.5
				c0.1,0.2,0.3,0.4,0.3,0.6c0.1,0.2,0.1,0.3,0.1,0.3c0.1,0.3,0.2,0.5,0.2,0.7c0,0.2-0.1,0.5-0.2,0.8c-0.1,0.2-0.2,0.4-0.2,0.6
				c0,0.2,0,0.4,0,0.6c-0.1,0.3-0.1,0.6-0.1,0.8l-0.2,0.7c0,0.1-0.1,0.2-0.1,0.2c-0.2,0.1-0.2,0.3-0.1,0.4c0.1,0.1,0,0.4-0.1,0.7
				c-0.1,0.3-0.2,0.6-0.2,1c-0.1,0.1-0.1,0.3-0.2,0.6c-0.1,0.2-0.1,0.4-0.1,0.6v0.2c0,0.3-0.1,0.5-0.3,0.5l0.1,0.3
				c-0.1,0.1-0.1,0.1-0.2,0c-0.1,0-0.1,0-0.1,0c-0.1,0.1-0.1,0.2,0,0.3c0.1,0.1,0.1,0.2,0.1,0.3c-0.2,0.2-0.3,0.4-0.3,0.7
				c0,0.2,0,0.4,0.1,0.6c-0.2,0.1-0.2,0.2-0.2,0.4c0,0.2,0,0.3,0,0.4c0,0.1,0,0.2-0.1,0.3c-0.1,0.1,0,0.2,0.1,0.3
				c0,0.1,0,0.2-0.1,0.4c-0.3,0.2-0.3,0.5-0.2,0.8c0,0.1,0.1,0.2,0.1,0.4c0,0.3-0.1,0.6-0.3,0.8c0,0.1,0,0.1,0,0.2
				c0,0.1-0.1,0.2-0.2,0.2c0,0.1,0.1,0.1,0.1,0.3c0,0.1,0.2,0.2,0.3,0.1c-0.1,0.2-0.2,0.4-0.2,0.6c0,0.2,0,0.4,0,0.4
				c0,0.1-0.1,0.3-0.2,0.4c-0.1,0.2-0.2,0.4-0.1,0.5c0.1,0,0.1-0.1,0.1-0.1c0,0,0.1,0,0.1,0c0,0.1,0,0.3-0.1,0.4
				c-0.1,0.2,0,0.3,0.1,0.4c-0.2,0.1-0.3,0.2-0.4,0.4c0,0.1,0,0.1,0.1,0.1c0.1-0.1,0.4-0.2,0.7-0.4c0.3-0.2,0.5-0.4,0.7-0.7
				c0.3-0.6,0.7-1,1.1-1.3c0.1-0.1,0.3-0.3,0.6-0.5c0.2-0.2,0.4-0.4,0.5-0.6c0.2-0.3,0.5-0.7,0.9-1.1c0.4-0.4,0.6-0.7,0.8-0.9
				c0.1,0,0.2,0,0.2-0.1c0-0.2,0.2-0.4,0.3-0.5c0.2-0.1,0.3-0.2,0.3-0.3c0.3-0.2,0.5-0.4,0.7-0.6c0.2-0.2,0.4-0.4,0.6-0.6l0.4-0.4
				c0.2,0.1,0.4,0,0.6-0.2c0.1-0.1,0.4-0.4,0.7-0.8c0-0.1,0.3-0.4,0.8-0.9c0.5-0.4,0.8-0.7,1-1l1.3-1.1c0.2-0.1,0.2-0.3,0.2-0.4
				c0.2-0.9,0.8-3,1.7-6.4c0.1-0.3,0.2-0.9,0.3-1.6c0.1-0.4,0.3-0.7,0.6-0.8c0.2-0.1,0.4-0.2,0.6-0.4c0.3-0.2,0.5-0.3,0.8-0.3
				c0.2,0,0.7-0.2,1.2-0.3c0.6-0.2,1.1-0.3,1.5-0.3c0.1,0,0.3,0,0.6,0c0.2,0,0.5,0,0.7,0c0.4,0,0.7,0,0.8,0.1
				c0.1,0.1,0.2,0.1,0.4,0.1c0.2,0,0.3,0,0.4,0c0,0.1,0,0.3,0.1,0.4c0,0.1,0.2,0.2,0.4,0.1c0,0,0.1,0.1,0.2,0.1c0,0.1,0,0.2,0,0.3
				c-0.1,0.1-0.1,0.2-0.1,0.4c0,0.1,0.1,0.4,0.2,0.7c0.1,0.2,0.1,0.4,0,0.6c-0.1,0.1-0.2,0.1-0.2,0.3c0,0.1,0,0.3,0,0.4
				c0,0.1,0,0.1,0,0.2c0,0.1,0,0.1-0.1,0.2c-0.1,0.1-0.1,0.1-0.1,0.2c0,0.1,0,0.1,0,0.2c0,0.1,0,0.1,0.1,0.2c0.1,0.1,0,0.2-0.3,0.3
				c-0.1,0.1-0.1,0.2-0.1,0.2c0.1,0.2,0.2,0.4,0.2,0.5c-0.1,0.1-0.1,0.1-0.2,0c-0.1,0-0.1,0-0.2,0c-0.1,0.1,0,0.3,0.1,0.3
				c0.1,0.1,0.2,0.1,0.2,0.2c-0.1,0.2-0.3,0.3-0.4,0.2c0,0.1,0.1,0.2,0.2,0.2c0.1,0.1,0.2,0.1,0.2,0.1c0,0.1-0.1,0.1-0.1,0.3
				c-0.1,0.1-0.1,0.2,0.1,0.3l-0.4,0.6c-0.2,0.6-0.2,0.9-0.2,1c0,0.2,0.1,0.4,0,0.5c0,0.1,0,0.3,0,0.4V39c-0.2,0.1-0.3,0.2-0.3,0.4
				c0,0.2,0,0.3,0,0.4c-0.1,0.1-0.1,0.1,0,0.2c0,0.1,0.1,0.2,0.1,0.3c0,0.2,0,0.4-0.1,0.5v0.3c-0.2,0.1-0.3,0.1-0.3,0.2
				c0,0.1,0,0.2,0.1,0.5c-0.1,0-0.1,0-0.2,0c-0.1,0-0.2,0.1-0.2,0.2c0,0.1,0.1,0.1,0.2,0c0.1,0,0.1,0,0.2,0.1
				c-0.1,0.1-0.1,0.1-0.2,0.2c-0.1,0.1-0.1,0.2,0.2,0.4c0,0.2,0,0.3-0.1,0.4c-0.1,0.1-0.2,0.1-0.2,0.3c0,0.1,0,0.2,0,0.3
				c-0.1,0.2-0.2,0.4-0.4,0.4c-0.1,0.1-0.1,0.1-0.1,0.1c0,0.1-0.1,0.1-0.1,0.1c0.1,0.1,0.2,0.1,0.3,0.1c0.1,0,0.1-0.1,0.2-0.1
				l-0.1,0.3c0,0.1,0,0.1,0.1,0.1c0,0.1,0,0.1,0,0.1c-0.1,0-0.2,0-0.3,0.1c-0.1,0.1-0.2,0.2-0.3,0.2c0,0.1,0,0.1,0.1,0.1
				c0.1,0.1,0.1,0.1,0,0.1c0.1,0,0.1,0,0.2,0c0.1,0,0.1,0,0.2,0c-0.3,0.1-0.3,0.3-0.1,0.5l-0.2,0.1c-0.1,0-0.1,0-0.2,0
				c-0.1,0-0.2,0.1-0.3,0.3h0.4c0.2,0,0.4,0,0.6-0.1c0,0.1,0,0.2-0.1,0.4l-0.4,0.7c-0.1,0.3-0.3,0.4-0.5,0.3c-0.1,0-0.1,0-0.2,0.1
				c0,0.1,0,0.1,0.1,0.1c0.1,0,0.1,0.1,0.1,0.1c0,0.3,0.1,0.3,0.2,0.3c0.1,0,0.1,0,0.2,0.1c0.1,0.1,0.1,0.1,0.2,0.1
				c-0.1,0.1-0.1,0.1-0.2,0.2c-0.1,0.1-0.2,0.1-0.3,0.1c-0.1,0-0.1,0.1-0.1,0.3c0,0.1,0,0.1,0,0.2c0,0.1,0,0.2,0,0.3
				c-0.1,0.1-0.2,0.1-0.3,0c-0.1,0-0.1,0-0.2,0c0,0.1-0.1,0.1-0.1,0.3c-0.1,0.1-0.1,0.3-0.1,0.4c0.1-0.1,0.2-0.2,0.4-0.3
				c0.2-0.1,0.3-0.1,0.4-0.2l-0.4,1.5c0,0.1,0,0.1-0.1,0.2c-0.1,0.1-0.1,0.1,0,0.2c0,0.1,0.1,0,0.3-0.1c0.5-0.5,1.4-1.2,2.6-1.9
				c0.2-0.1,0.4-0.3,0.7-0.4c0.2-0.1,0.5-0.3,0.8-0.6c0.9-0.6,1.4-1,1.5-1c0.2-0.2,1.3-0.9,3.3-2c1.2-0.8,3-1.8,5.5-3.1
				c0.4-0.2,0.8-0.4,1.3-0.7c0.5-0.3,1.1-0.6,1.7-0.9L338.3,40.7z M300.2,64.5c0.1,0,0.2,0,0.3-0.1c0,0.1,0,0.2-0.1,0.2
				c-0.1,0-0.1,0-0.2,0c-0.1,0.1-0.1,0.1-0.1,0.2c0,0.1,0,0.1-0.1,0.2c-0.1,0-0.2-0.2-0.2-0.4C300,64.5,300.1,64.5,300.2,64.5z
				 M304.9,58.2c0,0,0.1,0.1,0.2,0.2c0.1,0.1,0.2,0.3,0.1,0.5c-0.1,0-0.2-0.1-0.4-0.3c-0.1-0.1-0.3-0.2-0.4-0.1L304.9,58.2
				C304.9,58.2,304.9,58.2,304.9,58.2z M307.9,54.2C307.9,54.2,307.9,54.2,307.9,54.2c-0.1,0-0.2,0-0.2-0.1l0.1-0.2L307.9,54.2
				C307.9,54.2,307.9,54.2,307.9,54.2z M319.4,61.3c0-0.1-0.1-0.1-0.2-0.1c-0.1,0.1-0.2,0.1-0.2,0c0.1-0.1,0.1-0.1,0.1-0.2
				c-0.1,0-0.1-0.1-0.1-0.1C319.2,61,319.4,61.2,319.4,61.3z M320,49.8C320,49.8,320,49.8,320,49.8L320,49.8L320,49.8
				C320,49.8,320,49.8,320,49.8z M323.2,56.3c0,0-0.1,0-0.2-0.2c0.1-0.1,0.2-0.2,0.4-0.1C323.3,56.2,323.2,56.3,323.2,56.3z
				 M324.4,55.9c-0.1,0.3-0.3,0.5-0.6,0.5c-0.1,0.1-0.3,0.2-0.4,0.4c-0.1,0.1-0.1,0.1-0.1,0.1c-0.1,0-0.1,0-0.2-0.1
				c0.2,0,0.3-0.2,0.5-0.3c0.2-0.2,0.3-0.3,0.4-0.4C324.1,55.9,324.3,55.8,324.4,55.9z M324.1,55.3c0.1,0,0.2,0,0.2-0.1
				c0-0.1,0.1-0.1,0.2-0.2c-0.1,0.3-0.1,0.6-0.2,0.6c-0.1,0.1-0.3,0.1-0.5,0C323.8,55.4,323.9,55.3,324.1,55.3z M325.2,55.3
				c0-0.2,0.1-0.3,0.2-0.4c0.2-0.1,0.3-0.1,0.4-0.2l-0.4,0.7L325.2,55.3L325.2,55.3z M325.6,53.2L325.6,53.2L325.6,53.2L325.6,53.2z
				 M326.8,54.1c-0.1,0.2-0.2,0.3-0.3,0.4C326.4,54.3,326.5,54.2,326.8,54.1z M326.8,53.8c0,0,0.1,0,0.3,0l-0.3,0.3
				C326.8,53.9,326.8,53.8,326.8,53.8z M327.2,53c0.1,0,0.2,0.1,0.4,0.1c-0.3,0.1-0.5,0.1-0.7,0.1C327,53.1,327.1,53,327.2,53z
				 M327.9,51.7c0.1,0.1,0.1,0.1,0.2,0.1c0,0.1,0,0.1-0.2,0.2c-0.2,0.2-0.4,0.2-0.6,0c0-0.1,0.1-0.2,0.2-0.2c0.1,0,0.2-0.1,0.3-0.1
				C327.8,51.6,327.8,51.6,327.9,51.7z M329.3,50.6c0-0.1,0.1-0.2,0.3-0.2c0,0.1,0,0.1,0,0.3c0,0.1-0.1,0.2-0.3,0.2
				C329.3,50.8,329.3,50.7,329.3,50.6z M329.8,49.4c0.1,0,0.2-0.1,0.4-0.1l-0.2,0.4C329.9,49.7,329.8,49.6,329.8,49.4z M330.5,49.7
				c0.1,0.1,0.2,0.1,0.3,0.1c-0.1,0-0.1,0-0.2,0c-0.1,0-0.1,0.1-0.1,0.2c-0.2-0.1-0.2-0.2-0.2-0.2C330.3,49.7,330.4,49.7,330.5,49.7
				z"/>
			<path class="st1" d="M354.9,32.6c-0.1,0.3-0.2,0.6-0.2,0.9c0,0.4-0.1,0.7-0.3,0.9c-0.1,0.1-0.2,0.3-0.3,0.5
				c0,0.5-0.1,0.8-0.4,0.9c-0.2,0-0.3,0.2-0.4,0.5l-0.2,0.5c-0.1,0.1-0.2,0.1-0.3,0c-0.1,0-0.2,0-0.3,0c-0.1,0.1-0.1,0.2-0.1,0.4
				c-0.1,0.6-0.4,1.1-0.9,1.3c-0.1,0.1-0.2,0.2-0.4,0.4c-0.1,0.3-0.3,0.4-0.4,0.4c-0.2-0.2-0.4-0.3-0.7-0.3c-0.3,0-0.6,0.1-0.7,0.4
				c-0.1,0.1-0.2,0.3-0.5,0.6c-0.3,0.3-0.6,0.6-0.9,0.7c-0.1,0.1-0.1,0.2-0.1,0.3c0,0.1-0.1,0.2-0.1,0.2c-0.1,0.1-0.3,0.1-0.4,0.1
				l-0.2-0.1l-0.2-0.1c-0.1,0.1-0.1,0.3-0.2,0.5c-0.1,0.2-0.2,0.4-0.4,0.4c-0.3-0.1-0.5-0.3-0.7-0.6c-0.2-0.3-0.3-0.6-0.4-0.7
				c-0.2-0.3-0.4-0.7-0.5-0.9c-0.1-0.3-0.3-0.5-0.4-0.7c-0.1,0.1-0.2,0.1-0.4,0.1c-0.2,0-0.3-0.1-0.4-0.3c-0.2-0.2-0.3-0.3-0.4-0.4
				c-0.1,0.1-0.2,0.2-0.2,0.3c0,0.1,0,0.2,0,0.3c-0.3,0.1-0.5,0.2-0.5,0.3c-0.1,0.1-0.1,0.2-0.2,0.3c-0.1,0.1-0.1,0.3-0.1,0.3
				c-0.1,0.2-0.2,0.5-0.4,0.9c-0.1,0.2-0.3,0.6-0.4,1.1c0.2,0,0.4-0.2,0.6-0.4c0.1-0.2,0.3-0.3,0.4-0.4c0,0.1,0,0.2-0.1,0.4
				c-0.2,0.2-0.2,0.5-0.1,0.9c0,0.1,0,0.3-0.2,0.4c-0.4-0.4-1-0.6-1.7-0.6l-0.1,0.3c0,0.1,0,0.2,0.1,0.3c0.1,0.1,0.2,0.2,0.2,0.2
				c-0.1,0.1-0.1,0.3-0.2,0.5c-0.1,0.2-0.2,0.4-0.3,0.6c-0.1,0.1-0.1,0.2-0.1,0.4l0.1,0.4c0,0.2-0.1,0.4-0.3,0.6
				c0,0.1,0.1,0.1,0.1,0.3l0.6-1v0.1c0,0.1,0.1,0.3,0.2,0.4c0.2,0.1,0.2,0.2,0.2,0.3c-0.1,0.3-0.3,0.5-0.7,0.8
				c-0.1,0.1-0.2,0.3-0.2,0.5c0,0.1,0,0.2,0,0.4c0,0.2-0.1,0.3-0.2,0.4c-0.1,0.1-0.1,0.2,0,0.3c0.2,0.1,0.3,0.3,0.1,0.6
				c-0.1,0.2-0.1,0.3,0,0.4c0.1,0.1,0.2,0.1,0.3,0.1c0.1,0.2,0.1,0.4,0,0.5c-0.1,0-0.1-0.1-0.1-0.3v-0.1h-0.2l-0.5,0.1l-0.1,0.1
				c-0.1,0.1-0.2,0.3-0.4,0.7c0,0.1,0.2,0.3,0.4,0.3c0.2,0.1,0.4,0.1,0.5,0.2c-0.1,0.1-0.1,0.1-0.2,0.3c-0.1,0.1-0.2,0.2-0.4,0.1
				c-0.1,0-0.1,0-0.2,0c-0.1,0-0.1,0.1,0,0.1c0,0.1-0.1,0.2-0.2,0.3c-0.1,0-0.2,0.1-0.3,0.1c0,0.3,0,0.5,0.1,0.8
				c0,0.1,0.1,0.1,0.2,0c0.1,0,0.2-0.1,0.2-0.1c0,0.1,0,0.1,0.1,0.2c0,0.1,0,0.1-0.2,0.1c-0.1,0-0.1,0.1-0.1,0.2
				c0,0.1,0,0.2-0.1,0.3c-0.2,0.1-0.3,0.2-0.2,0.4c0,0.1,0,0.2-0.1,0.2c-0.1,0-0.1,0.1-0.1,0.2c-0.1,0.1-0.1,0.3-0.3,0.5
				s-0.2,0.4-0.1,0.5c0,0.1,0,0.2,0,0.4c-0.2,0.2-0.3,0.5-0.3,0.9c0,0.4,0,0.6,0,0.8c0,0.1,0.1,0.2,0.2,0.2c0.1,0.1,0.2,0.1,0.2,0.1
				c-0.1,0.1-0.3,0.3-0.3,0.6c-0.1,0.3-0.2,0.5-0.3,0.6c-0.1,0-0.1,0-0.1,0.1c0.1,0.2,0.2,0.4,0.2,0.6c0,0.2-0.1,0.3-0.2,0.6
				c-0.1,0.2-0.1,0.3-0.1,0.5s-0.1,0.4-0.2,0.5c-0.1,0.1,0,0.4,0.1,0.7c0.1,0.2,0.1,0.5,0.2,0.8c0,0.3,0.1,0.6,0.1,0.7
				c0,0.1,0,0.2,0.1,0.3c0.1,0.1,0.1,0.1,0.2,0.2c-0.1,0.1-0.2,0.2-0.4,0.3c-0.2,0.1-0.2,0.2-0.2,0.3c0,0.1,0,0.4-0.1,0.8
				c-0.4,0.1-0.6,0.3-0.7,0.5c-0.1,0-0.4,0.1-0.7,0.2c-0.3,0.1-0.7,0.1-1-0.1l-0.8-0.1h-0.1c-0.1,0-0.2,0-0.4,0.1
				c-0.2,0.1-0.3,0-0.4-0.1c-0.1-0.1-0.3-0.2-0.4-0.2c-0.2,0-0.3-0.1-0.4-0.1c-0.1-0.1-0.2-0.2-0.3-0.3c-0.2-0.1-0.3-0.2-0.3-0.3
				c-0.2,0-0.4-0.1-0.5-0.2c-0.2-0.1-0.3-0.2-0.4-0.2c-0.1-0.1-0.2-0.2-0.3-0.4c-0.1,0.1-0.2,0.1-0.4,0.1c-0.3,0-0.6-0.2-1-0.7
				c-0.2-0.3-0.4-0.4-0.7-0.4c-0.3-0.1-0.6-0.3-0.7-0.7c-0.1-0.2-0.1-0.3-0.1-0.6c0-0.5,0.1-1,0.4-1.5c0.3-0.7,0.5-1.3,0.5-1.9
				c-0.1-1.3,0-2.8,0.2-4.3c0.2-1.5,0.4-3,0.6-4.4c0.2-1.5,0.6-3.4,1-5.7c0.3-1.9,0.8-4,1.3-6.1c0.3-1.6,0.7-3,1.2-4.2
				c0.2-0.6,0.2-1,0.2-1.3c0-0.1,0.1-0.3,0.2-0.4c0.4-0.3,0.7-0.7,0.7-1c0-0.1,0.1-0.2,0.3-0.4c0.4-0.3,1.1-0.5,2-0.7l0.4,0.1
				c0.3,0.1,0.7,0.4,0.9,0.6c0.3,0.3,0.4,0.4,0.5,0.5c0.5,0.4,0.9,0.9,1.1,1.6c0,0.1,0,0.3,0.1,0.5c0.1,0.2,0.1,0.5,0.1,0.7
				c0.2,0,0.3-0.1,0.5-0.3c1.4-1.4,3.1-2.8,4.9-4c0.3-0.2,0.7-0.5,1.2-0.7c0.4-0.2,0.9-0.5,1.3-0.9c0.2-0.1,0.4-0.2,0.7-0.3
				c0.3,0,0.5,0,0.7,0c0.6-0.1,1.3-0.2,1.9-0.2c0.5,0,0.9,0,1.1,0.1c0.1,0.1,0.1,0.1,0.2,0.1s0.1,0,0.2,0.1c0.1,0.2,0.3,0.4,0.6,0.6
				c0.2,0.1,0.4,0.2,0.5,0.3c0.1,0.1,0.2,0.1,0.3,0.2c0.2,0.1,0.2,0.2,0.2,0.4c0,0.1,0.1,0.1,0.2,0.3c0.1,0.1,0.3,0.3,0.4,0.5
				c0,0.4,0.2,0.5,0.5,0.4c0.1,0.2,0.1,0.4-0.1,0.5c-0.1,0.1-0.1,0.2,0,0.4c0.1,0.1,0.2,0.4,0.2,0.6c0,0.3,0.1,0.5,0.1,0.6
				L354.9,32.6z M340.4,46.4c0.1,0,0.2,0.1,0.3,0.1c0,0.1,0,0.1-0.1,0.1c-0.1,0.1-0.1,0.1-0.2,0.1C340.3,46.7,340.3,46.6,340.4,46.4
				z M340.8,44.3c0.1,0,0.3,0,0.4,0.1v0.1l-0.1,0.1l-0.2,0.1l-0.1,0.1c0,0.1,0,0.1,0.2,0.2v0.1c0,0.1-0.1,0.2-0.2,0.2
				c-0.1,0-0.2,0-0.3,0c0-0.2-0.1-0.4-0.3-0.7C340.6,44.4,340.7,44.3,340.8,44.3z M340.8,43.9c0.1-0.1,0.1-0.2,0.1-0.2
				c0.1,0,0.2,0,0.4,0.1c0.2,0.1,0.2,0.1,0.3,0.1c-0.1,0-0.2,0-0.3,0c-0.2,0-0.3,0.1-0.4,0.3C340.8,44.1,340.8,44,340.8,43.9z
				 M341.8,44.6C341.8,44.6,341.8,44.7,341.8,44.6c0,0.1,0,0.1-0.1,0.1c-0.1,0-0.1,0-0.1-0.1C341.7,44.7,341.7,44.6,341.8,44.6
				C341.8,44.6,341.8,44.6,341.8,44.6z M342.4,40.9c0,0,0.1-0.1,0.3-0.4c0.2-0.3,0.4-0.5,0.6-0.6c0,0.1,0,0.1,0.1,0.2
				c0,0.1,0.1,0.2,0.1,0.3v0.1c0,0.1-0.1,0.1-0.1,0.2c-0.1,0-0.2-0.1-0.2-0.2c-0.2,0-0.3,0.1-0.4,0.4c-0.1,0.3-0.3,0.4-0.4,0.3
				l-0.1-0.1C342.4,41,342.4,40.9,342.4,40.9z M343.4,39.9C343.4,39.9,343.3,39.8,343.4,39.9c-0.1-0.1-0.1-0.1,0-0.1V39.9
				L343.4,39.9z"/>
			<path class="st1" d="M383.4,33.7c0,0,0.1,0.1,0.3,0.1c0.2,0.1,0.4,0.5,0.6,1.1c-0.4,0.3-0.7,0.6-0.9,1c0,0.5-0.2,1-0.4,1.3
				c-0.4,0.5-0.8,0.7-1.3,0.7c-0.1,0-0.3,0-0.4,0.2c-0.1,0.2-0.2,0.3-0.3,0.4c-0.2,0.1-0.3,0.2-0.4,0.2c0.1,0.1,0.1,0.2,0.1,0.4
				c0,0.4-0.2,0.7-0.6,1c-0.2,0.1-0.4,0.3-0.7,0.4c-0.3,0.1-0.5,0.2-0.8,0.2c0,0.1,0.2,0.2,0.4,0.2c0.2,0,0.3,0,0.3,0.2
				c-0.2,0.1-0.5,0.3-0.9,0.6c-0.4,0.3-0.7,0.5-0.9,0.6c-0.2,0.1-0.4,0.2-0.7,0.6c-0.3,0.3-0.6,0.5-1,0.6c-0.1,0.1,0,0.2,0.1,0.3
				c0.1,0.1,0.2,0.1,0.2,0.2h-0.2c-0.1,0-0.2,0.1-0.4,0.2c-0.2,0.1-0.4,0.2-0.6,0.1c-0.1,0-0.1,0-0.1,0.1c0,0.1,0,0.1-0.1,0.1
				c-0.1,0.1-0.1,0.1-0.1,0.1c0,0.1,0,0.1,0,0.1l0.3,0.2c-0.1,0.1-0.2,0.1-0.4,0c-0.2,0-0.3,0-0.4,0c-0.1,0.6-0.3,1.1-0.6,1.5
				c-0.4,0.3-0.9,0.7-1.7,1.1c-0.3-0.1-0.5-0.2-0.6-0.2c-0.1,0-0.3,0.2-0.4,0.5c-0.4,1.1-1.4,1.7-2.8,1.9c-0.4,0-0.6,0-0.7,0.1
				c-0.1,0.1-0.2,0.2-0.3,0.6c-0.4,0.3-1,0.4-1.7,0.6c-0.3,0.1-0.6,0.1-0.9,0.2c-0.3,0.1-0.6,0.1-0.8,0.1c-0.2,0.1-0.3,0.3-0.4,0.7
				c-0.1,0.3-0.3,0.5-0.6,0.6c0,0.1,0.1,0.3,0.1,0.4c0,0.1,0,0.3-0.1,0.6c-0.1,0.2-0.1,0.4,0,0.6v0.1c0,0.2-0.1,0.3-0.3,0.3
				c-0.2,0.1-0.4,0.1-0.4,0.1v0.1c0,0.1,0.1,0.2,0.2,0.3c0.1,0.1,0.2,0.2,0.2,0.3s-0.1,0.1-0.2,0.1c-0.1,0-0.2,0-0.3,0
				c0.1,0.2,0.2,0.4,0.2,0.7c0,0.3,0.1,0.5,0.3,0.7c0.1,0.2,0.3,0.3,0.6,0.4c1.8,0,3.3-0.3,4.5-0.8c1.4-0.6,2.6-1,3.4-1.1
				c0.2,0,0.4-0.2,0.7-0.3c0.2-0.2,0.4-0.3,0.5-0.3l6.3-2.7c0.4-0.1,0.8-0.3,1.2-0.4c0.4-0.1,0.8-0.2,1.2-0.4
				c0.2-0.1,0.4-0.1,0.6-0.1c0.2,0,0.4,0.1,0.5,0.2c0.2,0.4,0.2,0.8,0,1c-0.7,1.2-1.3,2-1.9,2.5c-0.7,0.7-1.4,1.1-2.1,1.3
				c-0.7,0.3-1.3,0.8-1.7,1.3c0,0.1,0.2,0.2,0.3,0.3c0.2,0.1,0.3,0.1,0.3,0.2V58c0,0.1,0.1,0.1,0.2,0.3c0.1,0.1,0.2,0.2,0.2,0.3
				c-0.5,0.1-0.9,0.5-1.3,1c-0.4,0.5-0.7,0.9-0.9,1.1v0.1c0,0.1,0,0.2,0.1,0.3c0.1,0.1,0.1,0.2,0,0.3c-0.1,0.1-0.3,0.2-0.4,0.4
				c-0.2,0.2-0.3,0.3-0.4,0.4c-0.1,0.1-0.3,0.1-0.5,0c0-0.1,0.1-0.2,0.2-0.2c0.1,0,0.1-0.1,0.2-0.2c-0.1-0.1-0.2-0.1-0.3-0.2
				c-0.1-0.1-0.2-0.1-0.3-0.1c0.1,0,0.1,0,0.2-0.1c0-0.1,0-0.1,0-0.2c-0.1-0.1-0.1-0.2-0.2-0.2c-0.1,0-0.2,0-0.3,0l-0.5,0.2
				c-0.3,0.2-0.5,0.4-0.7,0.6c-0.2,0.2-0.4,0.4-0.6,0.6c0,0.2,0.2,0.3,0.3,0.3c0.2,0.1,0.2,0.1,0.3,0.1c-0.1,0.1-0.3,0.4-0.6,0.8
				c-0.2,0.4-0.5,0.6-0.9,0.6c-0.3-0.3-0.6-0.4-0.8-0.4c-0.1,0-0.3,0.1-0.7,0.4c0,0.2,0.2,0.3,0.4,0.4c-0.1,0.1-0.2,0.1-0.2,0.1H368
				c-0.4,0.1-0.6,0.2-0.7,0.3c-0.1,0.2,0,0.4,0.2,0.6c0,0.1,0.1,0.2,0.1,0.4c-0.1,0.1-0.1,0.2-0.2,0.3c-0.1,0.1-0.3,0.1-0.5,0.2
				c-0.2-0.1-0.2-0.2-0.2-0.3c0,0,0.2-0.2,0.5-0.4c-0.3-0.1-0.5-0.2-0.7-0.2s-0.4,0.1-0.5,0.4c0,0.1-0.2,0.1-0.5,0.2
				c-0.3,0-0.5,0-0.7,0.1c-0.2,0.1-0.4,0.1-0.6,0.1c-0.3,0.1-0.5,0.1-0.9,0l-0.3-0.1c-0.2,0-0.3,0-0.6,0.1c-0.2,0.1-0.4,0.1-0.5,0
				c-0.7-0.3-1.3-0.4-1.6-0.4c-0.1,0.1-0.3,0.1-0.4,0c-0.1-0.2-0.3-0.3-0.6-0.4c-0.2-0.1-0.4-0.1-0.5-0.2c-0.3-0.1-0.8-0.5-1.7-1.1
				l-1.3-0.9c-0.4-0.2-0.7-0.6-0.8-1c-0.1-0.5-0.4-0.8-0.9-0.8c-0.1,0-0.3-0.1-0.4-0.2c0-0.1,0-0.2,0.1-0.2c0.1,0,0.1-0.1,0.1-0.2
				l-0.1-0.1c-0.2-0.1-0.4-0.3-0.6-0.7c-0.2-0.3-0.3-0.6-0.5-0.7c-0.1-0.1-0.1-0.1-0.1-0.2c0-0.2,0.1-0.3,0.4-0.4
				c-0.3-0.2-0.6-0.7-0.8-1.4l-0.5-2.5c-0.1-0.2-0.1-0.5-0.1-0.9l0.1-2.1c0-1.4,0.3-3,0.8-4.8c0.2-0.3,0.4-0.7,0.5-1.2
				c0.2-0.4,0.3-0.8,0.5-1.1c0.1,0.1,0.3,0.3,0.6,0.5l0.4-0.5c-0.1-0.1-0.2-0.1-0.4-0.1c-0.2,0.1-0.3,0.1-0.4,0.1
				c-0.3,0-0.3-0.2-0.1-0.6c0.8-1.3,1.5-2.5,2-3.7c0-0.3,0.3-0.5,0.8-0.6c0.3-0.1,0.4-0.2,0.4-0.3c0-0.1-0.1-0.3-0.3-0.6
				c0.8-0.1,1.3-0.5,1.3-1.3c0.1-0.2,0.3-0.6,0.7-1.1c0.1,0,0.1-0.1,0.1-0.1c0,0,0.1-0.1,0.1-0.1c0.4-0.1,0.7-0.3,0.9-0.6
				c0.2-0.3,0.4-0.6,0.5-0.7c0-0.1,0.1-0.2,0.2-0.4c0.1-0.1,0.2-0.2,0.3-0.3c0,0,0.2-0.1,0.4-0.2c0.2-0.1,0.3-0.3,0.3-0.4
				c0,0,0.1-0.2,0.4-0.4c0.5,0,0.9-0.2,1.3-0.6c0.4-0.3,0.6-0.5,0.8-0.6c0.3-0.2,0.8-0.5,1.4-0.7c0.6-0.2,1-0.4,1.2-0.5
				c0.5-0.2,0.9-0.5,1.3-0.7c0.4-0.2,0.7-0.3,1-0.4c0.3-0.1,0.7-0.2,1.2-0.3c0.3,0,0.6-0.1,0.8-0.2c0.2-0.1,0.5-0.1,0.8-0.2h0.6
				c0.5,0,0.9-0.1,1.1-0.2l0.1-0.1c0.1,0.1,0.4,0.1,0.8,0.1c0.5,0,0.9,0,1.3-0.1c0.4,0,0.7-0.1,1-0.1c0.7,0,1.7,0.3,3,0.9
				c0.6,0.2,0.9,0.5,1,0.8c0.1,0.4,0.4,0.8,0.9,1.3c0.4,0.5,0.7,0.9,0.8,1.2c-0.2,0.1-0.2,0.3-0.1,0.4c0,0.2,0.1,0.3,0.3,0.4
				C383.1,33.6,383.4,33.7,383.4,33.7z M353.7,45.7c-0.4,0.2-0.7,0.5-0.7,0.9c0.2,0,0.4,0,0.5-0.1c0.1-0.1,0.2-0.2,0.2-0.3
				C353.7,46,353.7,45.8,353.7,45.7z M375.8,34.5c0,0-0.1-0.1-0.4-0.4c-0.5-0.4-1-0.7-1.4-0.7c-0.2,0-0.4,0.1-0.5,0.2
				c-0.1,0.1-0.3,0.2-0.6,0.2l-0.4-0.4h-0.1c-0.3-0.2-0.5-0.3-0.6-0.3c-0.3,0-0.4,0.1-0.6,0.4c0,0.1,0.2,0.1,0.4,0
				c0.2,0,0.3,0,0.4,0c0,0.1,0,0.1-0.1,0.1h0.1c0.2,0.1,0.3,0.3,0.1,0.3c-0.2,0.1-0.3,0.1-0.3,0.1c-0.3,0.1-0.5,0.2-0.7,0.3
				c-0.2,0.2-0.4,0.3-0.6,0.4v0.1c0.1,0,0.3,0,0.3,0.1c0.1,0.1,0.1,0.2,0.2,0.4c-0.4,0-1,0.2-1.8,0.6c0.2,0.1,0.4,0.1,0.5,0
				c0.2,0,0.2,0,0.3,0h0.2c0,0.1,0,0.2,0,0.3c0,0.1-0.1,0.2-0.3,0.3c-0.4,0.1-0.6,0.3-0.7,0.5c0.1,0.1,0.2,0.1,0.3,0.1
				c0.2,0,0.3,0,0.3,0c-0.1,0.1-0.2,0.4-0.4,0.7c-0.2,0.3-0.4,0.6-0.4,0.9c-0.2,0-0.3-0.1-0.6-0.1c-0.3,0-0.5,0.1-0.7,0.3
				c-0.1,0.1-0.1,0.1-0.2,0.1c-0.1,0-0.2,0-0.2,0.1c-0.1,0.1-0.3,0.1-0.5,0.1c-0.2,0.1-0.4,0.1-0.5,0.2c0.2,0.3,0.6,0.4,1,0.4
				c0.2,0.1,0.3,0.1,0.4,0.3c0,0.1,0.1,0.2,0.1,0.3c-0.1,0.1-0.3,0.2-0.3,0.6c-0.1,0.3-0.2,0.6-0.5,0.7c-0.2-0.2-0.3-0.3-0.4-0.3
				c-0.1,0-0.2,0-0.4,0c-0.2,0-0.3,0-0.4-0.2c-0.2,0.2-0.4,0.4-0.7,0.5c-0.3,0.1-0.5,0.1-0.7,0.2c-0.1,0.1-0.3,0.2-0.7,0.6
				c0.1,0,0.2,0,0.3,0c0.1,0,0.2,0.1,0.3,0.1c0.1,0.1,0.2,0.1,0.4,0.1c0.2,0,0.3,0,0.4-0.1c0.1-0.1,0.3-0.1,0.4,0
				c0-0.2,0.1-0.4,0.4-0.4c0.1,0,0.2,0,0.3,0.1c0.1,0.1,0.2,0.1,0.3,0c0.3,0,0.6-0.1,0.7-0.2c0.4-0.3,1.4-1.1,3-2.2l2.5-1.8l1-1.1
				c0.9-0.9,1.5-1.6,1.9-2C375.7,34.8,375.8,34.5,375.8,34.5z M368.2,37.8c-0.3,0-0.5,0.2-0.7,0.7c0,0,0.1-0.1,0.2-0.1l0.6,0.1
				c0.2,0,0.4-0.1,0.4-0.4C368.5,37.9,368.3,37.8,368.2,37.8z M368,36.3c-0.2,0.1-0.3,0.1-0.3,0.3c0.4,0,0.8-0.3,1.3-0.8
				c-0.3,0-0.6,0.1-0.7,0.4C368.3,36.2,368.2,36.2,368,36.3z M370,64.6c0,0.2,0.2,0.2,0.3,0.2c-0.3,0.3-0.6,0.6-0.9,1l-0.4-0.3
				c0.1-0.1,0.2-0.3,0.3-0.6c0.1-0.2,0.3-0.4,0.5-0.6C369.9,64.4,370,64.5,370,64.6z M370.8,63.9c0.2-0.1,0.5-0.2,0.7-0.3
				c-0.1,0.2-0.1,0.4-0.2,0.6c-0.1,0.2-0.2,0.4-0.3,0.5c-0.1,0.1-0.2,0.2-0.4,0.2c-0.1,0,0-0.2,0.1-0.3c0.1-0.2,0-0.3-0.3-0.3
				C370.4,64.1,370.6,64,370.8,63.9z M372.9,62.7c0.2-0.1,0.3-0.2,0.4-0.3c0.1,0,0.3,0,0.6,0.1c-0.2,0.1-0.3,0.2-0.5,0.4
				c-0.2,0.2-0.5,0.2-0.9,0.1C372.7,62.9,372.8,62.8,372.9,62.7z M373.1,61.3c-0.1,0-0.1,0-0.2,0h0.3
				C373.2,61.2,373.2,61.3,373.1,61.3z"/>
		</g>
		<path class="st1" d="M211.2,12.1c0.1,0.1,0.2,0.1,0.3,0c0.1-0.1,0.2-0.1,0.3-0.1c0.1,0.3,0.3,0.5,0.7,0.6
			c-0.4,0.3-0.6,0.6-0.7,1.1c-0.1,0.4-0.1,0.8-0.2,1c-0.1,0.1-0.1,0.3-0.1,0.5c0,0.2-0.1,0.3-0.2,0.5c-0.2,0.2-0.2,0.3-0.1,0.4
			c0.1,0.2,0.1,0.3,0,0.5c-0.1,0.2-0.2,0.3-0.2,0.5c-0.1,0.2-0.1,0.3-0.2,0.5c-0.1,0.1-0.2,0.3-0.2,0.5c0,0.2,0,0.3-0.1,0.4
			s-0.2,0.1-0.4,0.1h-0.3c-0.2-0.1-0.3-0.1-0.3,0.2c0,0.1,0.1,0.1,0.2,0.1c0.1,0,0.2,0.1,0.2,0.3c-0.1,0.1-0.2,0.1-0.3,0
			c-0.1-0.1-0.3,0-0.4,0.1c0.3,0.3,0.3,0.8,0,1.5c-0.1,0.2-0.3,0.3-0.5,0.4c-0.2,0-0.4,0-0.5,0c0.1-0.3,0.2-0.6,0.2-0.8
			c0-0.2,0-0.3-0.1-0.3c-0.1-0.1-0.2-0.2-0.5-0.4c-0.2,0.1-0.3,0.2-0.2,0.4c0.1,0.4,0.1,0.8-0.1,1.2c-0.2,0.3-0.1,0.6,0.1,0.9
			c0.1,0.1,0.1,0.2,0.2,0.4c0.1,0.1,0.2,0.3,0.2,0.4l-0.2,0.3c-0.1,0.1-0.2,0.2-0.3,0.1c-0.2,0-0.3,0-0.3,0
			c-0.5,0.1-0.8,0.3-0.8,0.7l0.1,0.3c0,0.2,0.1,0.4,0.2,0.6c0.2,0.2,0.3,0.5,0.3,0.8c0,0.3-0.1,0.5-0.3,0.7
			c-0.3,0.2-0.6,0.6-0.7,1.1c-0.2,1.1-0.5,1.8-0.9,2.3c-0.1,0.2-0.4,0.7-0.8,1.6c-0.1,0.3-0.3,0.7-0.5,1.1c-0.2,0.4-0.4,0.7-0.5,0.8
			c-0.1,0.2-0.4,0.7-0.9,1.7l-1,1.7c-0.1,0.1-0.2,0.4-0.4,0.8c-0.2,0.4-0.5,0.7-0.9,0.9c0.1,0.2,0.1,0.4,0.1,0.7
			c-0.3,0.6-0.6,1-0.9,1.5c-0.3,0.4-0.5,0.8-0.7,1.1c-0.8,1.3-1.3,2.3-1.6,3c-0.7,1.4-1.4,2.7-2.3,3.8c-0.2,0.3-0.4,0.7-0.6,1.1
			c-0.2,0.5-0.4,0.8-0.5,1.1c-0.2,0.3-0.4,0.7-0.7,1.3c-0.3,0.6-0.6,1.1-1,1.5c-0.1,0.1-0.1,0.2-0.1,0.3c-0.1,0.4-0.3,0.9-0.7,1.3
			c-0.3,0.4-0.5,0.9-0.8,1.4c-0.2,0.6-0.4,1-0.5,1.3c-0.1,0.2-0.2,0.4-0.4,0.7c-0.2,0.3-0.3,0.6-0.4,0.9c-0.2,0.6-0.5,1.3-1.1,2.3
			c-0.6,1-1.1,1.7-1.5,2.2c-0.4,0.5-0.8,0.9-1.4,1.3c-0.2,0.1-0.3,0.3-0.5,0.5c-0.1,0.2-0.3,0.3-0.4,0.4c-1.7,0.9-3,1.4-3.9,1.5
			c-0.1,0-0.2,0-0.4,0.1c-0.1,0.1-0.3,0.1-0.5,0.1c-0.7,0.2-1.7,0.3-3.2,0.3c-0.5,0-0.9,0-1.1,0.1c-0.2,0.1-0.5,0.3-0.8,0.6
			l-0.3-0.3c-0.2-0.5-0.5-0.8-1.1-0.8c-0.4-0.1-0.8-0.3-1.2-0.8c-0.7-0.9-1.4-1.7-2.1-2.2c-0.1-0.1-0.1-0.1-0.2-0.1
			c-0.1,0-0.1,0-0.1-0.1c-0.1-0.2-0.1-0.4-0.2-0.6c-0.1-0.3-0.1-0.5-0.1-0.9c0-0.4,0.2-0.9,0.6-1.3c0.3-0.3,0.5-0.6,0.5-1
			c0-0.2,0-0.4-0.1-0.5c-0.6-2-1-3.5-1.3-4.5l-0.1-0.2c0.1-0.3,0-0.7-0.1-1.2c-0.1-0.5-0.2-0.8-0.2-1c0.1-0.1,0-0.3-0.1-0.5
			c-0.2-0.2-0.3-0.5-0.2-0.9c0-0.1,0-0.2,0-0.3c0-0.1,0-0.2,0-0.3c-0.2-0.3-0.2-0.5-0.2-0.7c0-0.3,0.1-0.7,0.3-1
			c0.2-0.3,0.4-0.5,0.4-0.6l0.3-0.2v-0.2c-0.4-0.4-0.8-0.4-1.3,0.1c-0.1-0.1-0.2-0.1-0.2-0.3c0-0.1,0-0.2,0-0.2l-0.2-1.7
			c-0.1-0.8-0.2-1.3-0.3-1.7c-0.1-0.1,0-0.2,0-0.3c0.1-0.1,0.2-0.2,0.2-0.3c-0.3-0.6-0.5-1.2-0.6-1.8c-0.1-0.6-0.1-1-0.1-1.1
			c-0.1-0.3-0.1-0.6-0.1-1.1c0-0.4-0.1-0.8-0.3-1.1c-0.2-0.3-0.2-0.6-0.1-0.9c0.1-0.2,0.2-0.4,0.1-0.6c0-0.2-0.1-0.4-0.2-0.6
			c-0.2-0.3-0.3-0.7-0.3-1.2c-0.1-0.4-0.1-0.8-0.1-0.9c-0.4-2.2-0.9-3.8-1.5-4.7c-0.2-0.3-0.3-0.7-0.3-1.2c0-0.8,0.3-1.4,0.8-2
			c0.5-0.5,1.2-0.8,2.1-0.9c0.6-0.1,1.2-0.2,1.9-0.4c0.4-0.1,0.9-0.2,1.5-0.2c0.6,0,1.1,0,1.5-0.1c0.2-0.1,0.4,0,0.7,0
			c0.3,0.1,0.5,0.1,0.8,0.1c0.4,0,0.9,0.1,1.3,0.3c0.4,0.2,0.9,0.4,1.3,0.6c1.4,0.8,2.3,2.1,2.7,4.1c0.1,0.8,0.2,1.3,0.2,1.7
			c0,0.4,0,0.8-0.1,1v0.2c0.2,0.4,0.2,0.8,0.2,1.3c0,0.3-0.1,0.8-0.2,1.5c-0.1,0.7-0.2,1.2-0.2,1.6c0,0.2-0.1,0.5-0.3,0.8
			c-0.1,0.1-0.1,0.3-0.2,0.5c-0.1,0.2-0.2,0.4-0.2,0.6l0.1,0.3c0.1,0.2,0,0.3-0.2,0.4c-0.2,0.1-0.3,0.2-0.5,0.2c0,0.4-0.1,0.7-0.2,1
			l-0.5,0.5c0.1,0.1,0.1,0.1,0.3,0.2c0.1,0.1,0.2,0.1,0.2,0.3c-0.2,0-0.4,0-0.6,0.1c-0.2,0.1-0.3,0.2-0.5,0.4
			c-0.2,0.2-0.3,0.3-0.3,0.5c-0.8,0-1.2,0.3-1.2,0.8c0,0.3,0.1,0.4,0.3,0.5l0.5,0.1c0.1-0.1,0.2-0.2,0.2-0.3c0-0.2,0.1-0.3,0.1-0.3
			c0.1,0,0.2,0,0.2,0.1c0.2,0.2,0.2,0.6,0,1c-0.1,0.3-0.1,0.6-0.1,1c-0.1,0-0.3,0-0.6,0c-0.3,0-0.5,0.1-0.6,0.5
			c0.2,0.1,0.4,0.2,0.5,0.2c0.1,0,0.3-0.1,0.5-0.3c0.1,0,0.2,0.1,0.3,0.2c0.1,0.1,0.2,0.2,0.3,0.3c-0.1,0.1-0.3,0.2-0.5,0.3
			c-0.2,0.1-0.4,0.3-0.4,0.5c0,0.1,0,0.3-0.1,0.5c-0.1,0.2-0.1,0.4-0.3,0.5c0.1,0.1,0.2,0.1,0.3,0.1c0.2,0,0.3,0.1,0.3,0.2
			c0,0.1-0.1,0.2-0.2,0.2c-0.1,0-0.2,0.1-0.2,0.1c0,0.1,0.1,0.2,0.2,0.3c0.2,0.1,0.2,0.2,0.2,0.3c-0.1,0.3-0.2,0.4-0.4,0.5
			c-0.1,0-0.1-0.1-0.2-0.2c-0.1-0.1-0.1-0.2-0.2-0.2c-0.2,0.3-0.5,0.5-0.8,0.5c-0.1,0.1,0,0.2,0.1,0.2c0.1,0,0.2,0.1,0.2,0.2
			l-0.2,0.8c0.2,0.2,0.5,0.3,0.8,0.3l0.9-0.1c0-0.4,0.2-0.8,0.6-1.2c0.4-0.5,0.9-1.3,1.5-2.4c0.1-0.2,0.2-0.4,0.2-0.5
			c0.1-0.3,0.2-0.6,0.3-0.7c0.1-0.1,0.3-0.2,0.5-0.2h0.3h0.2c-0.1-0.2-0.2-0.4-0.2-0.5c0-0.1,0.1-0.3,0.2-0.5v-0.2
			c-0.1-0.2-0.1-0.4,0.1-0.6c0.2-0.2,0.3-0.3,0.3-0.3c0.3-0.3,0.8-0.9,1.4-2c0.1-0.3,0.3-0.6,0.5-0.9c0.2-0.3,0.4-0.6,0.5-0.8
			c0.1-0.2,0.2-0.5,0.4-0.8c0.2-0.3,0.4-0.5,0.5-0.8c0.1-0.3,0.3-0.6,0.5-0.8c0.2-0.3,0.4-0.6,0.5-0.8c0.2-0.3,0.4-0.5,0.7-0.5
			c0.2,0,0.3,0,0.3,0.1c0.4,0.1,0.6,0,0.6-0.4c-0.1-0.1-0.2,0-0.4,0c-0.1,0.1-0.2,0.1-0.3,0.1c-0.1,0-0.1-0.1-0.3-0.2
			c0-0.1,0-0.1,0.1-0.2c0.1-0.1,0.2-0.1,0.2-0.2c0.3-0.3,0.5-0.6,0.5-0.8V36c-0.1-0.2,0-0.3,0.2-0.5c0.2-0.2,0.4-0.3,0.7-0.4
			c0.1,0.1,0,0.2,0,0.3c-0.1,0.1-0.1,0.2-0.1,0.3c0.3,0,0.5-0.1,0.7-0.3c0.2-0.3,0.3-0.6,0.5-1.1c0-0.1-0.1-0.1-0.2-0.2
			c-0.2-0.1-0.3-0.1-0.3-0.2c0-0.2,0.1-0.3,0.3-0.3c0.8-0.3,1.3-0.7,1.3-1.3v-0.2c0-0.5,0.2-0.8,0.7-1c-0.1-0.2,0-0.4,0.1-0.7
			c0.1-0.3,0.2-0.5,0.2-0.7c0-0.2,0.1-0.4,0.3-0.6c0.2-0.3,0.4-0.5,0.4-0.6c0.2,0.2,0.5,0.4,0.8,0.6c-0.1-0.5,0.1-1,0.5-1.4
			c0.4-0.4,0.6-0.8,0.7-0.9c0-0.1-0.1-0.1-0.3-0.1c-0.1-0.4,0.1-0.9,0.4-1.4c0.3-0.5,0.6-0.8,0.7-1.1c0-0.1-0.1-0.1-0.2-0.1
			c-0.1,0-0.1-0.1-0.1-0.2c0.2-0.4,0.6-0.7,1.1-0.8c0.5-0.1,0.8-0.2,0.9-0.2c-0.2-0.2-0.2-0.4-0.1-0.7c0.2-0.2,0.3-0.4,0.3-0.4
			c0.1-0.3,0.1-0.5,0.1-0.6c0.4,0,0.7-0.2,0.9-0.8c0.3-0.4,0.5-0.6,0.8-0.6c0.1-0.1,0.1-0.2,0.1-0.4c0-0.2,0.1-0.3,0.2-0.5
			c0.1-0.2,0.3-0.3,0.5-0.3l0.2-0.2c0-0.3,0.2-0.7,0.5-1.1c0.4-0.4,0.6-0.7,0.6-0.8c0.2-0.1,0.3-0.2,0.5-0.5
			c0.2-0.3,0.3-0.5,0.5-0.5c-0.1-0.2,0-0.3,0.1-0.5c0.1-0.2,0.2-0.3,0.3-0.5c-0.1-0.1-0.2-0.2-0.3-0.2c-0.1,0-0.2-0.1-0.3-0.1
			c0.2-0.3,0.4-0.4,0.6-0.2c0.3,0.1,0.5,0,0.7-0.2c0.1-0.2,0.8-1.1,2.1-2.8c0-0.1,0-0.2-0.1-0.3c-0.1-0.1-0.2-0.1-0.2-0.2
			c0.2-0.2,0.5-0.5,0.9-0.8c0.4-0.3,0.7-0.6,0.9-1c0.1-0.1,0.2,0,0.3,0c0.1,0.1,0.1,0.1,0.2,0.1c0.1-0.1,0.2-0.2,0.2-0.2
			c0-0.8,0.3-1.4,1-2c0.3-0.2,0.5-0.6,0.6-1c0-0.4,0.2-0.7,0.7-0.8c0.2-0.1,0.3-0.2,0.4-0.4c1.3-2.2,2.2-3.6,2.7-4.3
			c0.2-0.1,0.3-0.1,0.5,0c0.2,0,0.3,0,0.3,0c0.1,0.2,0.1,0.5,0.1,0.8c0,0.3,0.1,0.5,0.2,0.8c0.1,0.1,0.1,0.3,0,0.5
			c-0.1,0.2-0.1,0.4-0.1,0.4c-0.1,0.2,0,0.5,0.1,0.9c0.1,0.4,0.2,0.7,0.2,1v0.2c0,0.4-0.1,0.7-0.3,0.8c0,0.1,0.1,0.2,0.2,0.3
			c0.1,0.1,0.2,0.2,0.2,0.3c-0.1,0.3-0.2,0.6-0.2,0.8c0,0.3,0.2,0.6,0.6,0.7c-0.1,0.2-0.2,0.3-0.3,0.3c-0.1,0-0.2,0.1-0.2,0.2
			c0.1,0.1,0.1,0.1,0.2,0c0.1,0,0.2,0,0.3,0C212,8,212,8.1,212,8.2c-0.1,0.1-0.1,0.3-0.2,0.6c-0.1,0.3-0.2,0.5-0.3,0.6
			c-0.1,0.1-0.1,0.1,0,0.2c0.1,0.1,0.1,0.2,0.2,0.2c0.1,0,0.1,0,0.2,0.1c0.1,0.1,0.1,0.1,0.1,0.2c0,0.4,0,0.6-0.1,0.8
			c-0.1,0.1-0.2,0.3-0.4,0.6c-0.1,0.3-0.2,0.4-0.2,0.4S211.3,12,211.2,12.1z M174.2,44c0-0.1,0-0.1,0-0.1c0,0,0.1,0,0.1,0l0.2,0.1
			l-0.1,0.2C174.3,44.2,174.2,44.1,174.2,44z M175.9,43.7c0.2-0.2,0.3-0.3,0.5-0.2C176.3,43.7,176.2,43.8,175.9,43.7z M207.5,23.7
			l-0.4,0.6c0-0.2,0-0.3,0.1-0.4C207.2,23.7,207.3,23.7,207.5,23.7z"/>
	</g>
	<g id="Tent_Symbol_1_">
		<g>
			<path class="st1" d="M112,64.8c-0.8,0-3.1,0-4.8,0c-1.5,0-5.1-0.1-4.4-0.1c0,0-1.8,2.4-2.1,2.4h1.7c0.6,0,3.4,0,4.1-0.1
				c4.6,0,0.5,0,5.2,0c2.3,0,0.7,0,3.1,0c3.4,0,6.9,0,10.3,0c-1.5-2.5-3-5.1-4.5-7.7c-1.4-2.3-5.6-9.4-10.6-18.1
				c-2.5-4.3-5.2-9-7.9-13.7c-3.2-5.5-6.4-11-9.2-15.9c-2.1,3.7-4.1,7.1-5.8,10.1c-1.3,2.2-2.3,4-3.1,5.4c-0.2,0.3-0.4,0.6-0.6,1
				c-3.4,5.8-7.4,12.8-10.1,17.8c-1.2,2.3-2.4,4.7-3.6,7c0.7-1,1.3-2,1.9-2.8c-1.3,2.3-2.7,4.6-3.1,5.6c-2.7,5-0.9,2.3,0.5,0.6
				c0.9-1.3,0,0.6,1.4-1.4c-0.9,1.5-1.3,2.3-2.2,3.9c0,0.2,2.7-4.8,2.2-3.6c-0.9,1.5-1.8,3.2-2.7,4.7c0.5-0.5,3.1-5.3,3.1-5
				c-0.4,0.9-2.7,4.2-2.7,4.6c0,0.1,0.9-1.5,1.3-2.2c-2.7,4.8-4,7.5-1.3,3.3c-0.9,1.5-2.2,3.6-3.1,5.2c0,0,0,0,0,0
				c0.5-0.8,1.3-2.1,1.7-2.9c-0.5,0.9-1.1,1.8-1.6,2.7c0.1-0.1,0.2-0.3,0.3-0.4c0.4-0.7,0.8-1.3,1.2-2c-0.3,0.6-0.7,1.2-1,1.8
				c0.3-0.4,0.7-0.9,1.1-1.4c1.4-2.1,2.7-4,3.4-5.2c5.5-9.3,11-18.7,16.4-28c-0.1-0.1-0.4,0.4,0-0.4c1.3-2.5,2.7-4.3,4-6.8
				c0-0.1,0-0.2,0-0.2c0.6-0.9,1.2-1.9,1.7-2.8c0.1-0.2,0.3-0.5,0.4-0.7l0.1-0.2l0.1-0.1l0,0l0,0l0,0l0,0c0,0,0,0,0,0c0,0,0,0,0.1,0
				l0,0c0,0,0,0,0.1,0.1l0,0l0,0l0,0l0,0l0,0l0.1,0.2l0.4,0.6c0.2,0.4,0.5,0.8,0.7,1.2c1,1.7,2,3.3,2.9,5c0-0.1,0-0.2,0.2,0.2
				c0.9,1.5,2.1,3.6,3.3,5.8c0.2,0.3,0.4,0.6,0.6,1c0.2,0.2,0.2,0.3,0.3,0.3c0.6,1,1.1,1.9,1.5,2.7c2.9,4.8,5.8,9.5,8.7,14.5
				c1.5,2.5,3,4.9,4.5,7.5c0.8,1.3,1.5,2.5,2.3,3.8c0.2,0.3,0.4,0.6,0.6,1c0.1,0.2,0.2,0.3,0.3,0.5c0.2,0.3,0.4,0.7,0.7,1
				c-0.3,0-0.6,0-1,0c-0.2,0-0.4,0-0.6,0c-0.1,0-0.2,0-0.3,0c-0.2,0-2,0.3-2.1,0.3L112,64.8z"/>
			<g>
				<path class="st1" d="M67.2,65.7c-0.1,0-0.3,0-0.4,0C66.9,65.7,67,65.7,67.2,65.7z"/>
				<path class="st1" d="M66.8,65.7c-0.1,0-0.1,0-0.2,0C66.6,65.7,66.7,65.7,66.8,65.7z"/>
				<path class="st1" d="M85.1,63.8c-0.6,0-1.2,0-1.4,0.1c0,0-1-0.1-1.5,0c0,0-0.2,0-0.7,0.1c-0.2,0-0.2,0-0.2,0.1c0,0,0,0,0-0.1
					c-0.2,0.1-0.5,0-0.7,0.1c0,0,0,0,0-0.1c-0.3,0.1-0.7,0-1,0.1c0,0,0,0,0-0.1c-0.2,0-0.3,0-0.3,0c0,0,0,0,0-0.1
					c-0.2,0-0.5,0.1-0.5,0c0,0,0,0,0,0.1c-0.7,0-1.1,0-1.6,0c-1.3-0.1-2.9,0-4.4,0.1c-0.2,0-0.3,0.1-0.2,0.2c-0.2,0-0.3,0-0.5,0
					c-0.3,0-0.2,0.1-0.5,0.1c-2.6,0.3-5.2,0.1-7.9,0.3c0.7,0,1.1,0.1,1.8,0c0,0,0,0.1,0.2,0.1c1,0,2.1-0.1,2.6,0.1
					c0.2,0,0.3,0.1,0.8,0.1c-0.2,0-0.3,0-0.5,0c0,0,0,0.1,0,0.1c0.7,0,1.5,0,2.1,0.1c0,0,0,0.1,0,0.1l0.3,0c0.3,0.3-1.5,0.3-2.3,0.3
					c0,0,0,0.1,0,0.2l0.3,0l0,0.1c-0.8,0-1.4,0-2.2,0.1c0,0,0,0,0,0c0,0,0,0.1,0.2,0.1c-0.7,0-1.5,0-2.1,0.1c-0.2,0,0,0.2,0.5,0.2
					c0.5,0,0.8,0,1.3,0l0,0.1c-0.3,0-0.8,0-1.1,0c-0.2,0,0.3,0.1,0.2,0.2c-0.2,0-0.3,0-0.5,0.1c0.5,0,1.1-0.1,1.6,0
					c0.2,0,0.3,0.1,0.3,0.1c0.8-0.1,1.5,0,2,0.2c0.1,0.1,0.6,0,1.1,0c2.8,0.1,5.1,0.1,7.7,0.3c0.2,0,1.1,0,1.3,0
					c1.1,0.1,5.6,0,7.3,0C86,66,85.4,64.4,85.1,63.8z"/>
			</g>
		</g>
		<g>
			<path class="st1" d="M121.4,64.7L92.7,15.6l-28,50.2h21.5L86,65.6l-0.2-0.3c-0.3-0.6-0.6-1.2-0.9-1.8c-0.5-1.2-0.8-2.5-0.9-4
				c-0.1-1.3-0.1-2.6,0-4l0.1-1.2l0.1,0.2c0-0.2,0.2-1,0.2-1l0.1-0.4l0.2-0.9l0.2-0.6c0-0.1,0.2-0.5,0.3-0.9
				c0.1-0.2,0.1-0.4,0.2-0.5l0.6-2l0.9,1.8l0.5,0.9c0.1,0.3,0.3,0.8,0.4,1l0.1,0.2l0.1,0.2c0,0.1,0.1,0.1,0.1,0.2l-0.2,0.4l0.3-0.2
				l0.1,0.1L88,53.1l0.3-0.3l0,0.1l0.1-0.2c0.1-0.3,0.2-0.5,0.3-0.8c0.2-0.4,0.3-0.8,0.4-1.1l0.2-0.5l0.3-1.1
				c0.1-0.5,0.3-0.9,0.4-1.4c0.2-1,0.4-2,0.6-3c0.2-1.1,0.3-2.1,0.3-3.2l0-0.8l0-1.7L90.7,35l0.7,0.7l0.1,0.1l2.2,2.8l0.9,1.2
				l-0.2,0.4l0.3-0.2l0.6,0.9c0.3,0.5,0.6,0.9,0.9,1.3c0.5,1,0.9,1.8,1.2,2.7c0.2,0.5,0.3,1.1,0.4,1.7c0.1,0.6,0.2,1.2,0.2,1.8
				c0,0.6,0,1.2-0.1,1.8c-0.1,0.6-0.2,1.1-0.3,1.6c0,0.2-0.1,0.3-0.1,0.4l-0.4,0.1l0.4,0.1l0,0.1l0,0.1c0.1-0.1,0.2-0.2,0.2-0.2
				l0.1-0.1h0.2l0.1,0.1l0.2-0.5l0.4,0l-0.3-0.1l0.1-0.1l0.4,0l-0.3-0.2l0.1-0.3l0.1-0.4l0.3-1l0-0.1l0.1-0.2l0.1-0.2l0.4-0.1
				l0.1,0.2l0.1,0.1c0.1,0.1,0.2,0.3,0.3,0.5c0.2,0.3,0.3,0.7,0.3,1l0,0.3l-0.2,0.1c0,0.1,0.1,0.2,0.1,0.2c0.1,0.1,0.1,0.3,0.1,0.4
				l0.1,0.2l0.1,0.3c0.1,0.2,0.1,0.5,0.2,0.7l0.3,0.2l-0.2-0.3l0.1-0.1l0.1-0.1c0,0,0.1-0.1,0.1-0.1l0.1-0.1l0.4,0.1l-0.3-0.3
				c0.1-0.2,0.4-0.6,0.5-0.9l0.6-0.9l1.1-1.7l0.4,2c0,0.1,0.1,0.3,0.1,0.5c0.1,0.3,0.2,0.7,0.2,0.9l0.1,0.8l0.1,1.2
				c0,0,0.1,0.9,0.1,1.2l0,0l0.1,1c0,1.4-0.2,2.7-0.5,3.9c-0.3,1.4-0.8,2.7-1.4,3.8c-0.2,0.4-0.5,0.9-0.8,1.3l0.6,0L121.4,64.7z"/>
		</g>
	</g>
</g>
<g id="Inverse_Hollow">
</g>
<g id="Standard_Hollow">
</g>
<g id="Standard_Filled_1_">
</g>
</svg>
