<?xml version="1.0" encoding="utf-8"?>
<!-- Generator: Adobe Illustrator 19.1.0, SVG Export Plug-In . SVG Version: 6.00 Build 0)  -->
<svg version="1.1" xmlns="http://www.w3.org/2000/svg" xmlns:xlink="http://www.w3.org/1999/xlink" x="0px" y="0px"
	 viewBox="0 0 384 68.7" style="enable-background:new 0 0 384 68.7;" xml:space="preserve">
<style type="text/css">
	.st0{fill:#FFFFFF;}
	.st1{fill:none;stroke:#FFFFFF;stroke-width:3.1323;stroke-miterlimit:10;}
	.st2{fill:#010101;}
</style>
<g id="Scraps">
</g>
<g id="Mark_Only__x28_Hollow_x29_">
</g>
<g id="Mark_Only__x28_Filled_x29_">
</g>
<g id="Inverse_Filled">
</g>
<g id="Inverse_Hollow">
</g>
<g id="Standard_Hollow">
</g>
<g id="Standard_Filled_1_">
	<g id="Standard_Filled">
		<g>
			<path class="st2" d="M230.4,35.4c0,0,0.1,0.1,0.3,0.1c0.2,0.1,0.4,0.5,0.6,1.1c-0.4,0.3-0.7,0.6-0.9,1c0,0.5-0.2,1-0.4,1.3
				c-0.4,0.5-0.8,0.7-1.3,0.7c-0.1,0-0.3,0-0.4,0.2c-0.1,0.2-0.2,0.3-0.3,0.4c-0.2,0.1-0.3,0.2-0.4,0.2c0,0.1,0.1,0.2,0.1,0.4
				c0,0.4-0.2,0.7-0.6,1c-0.2,0.1-0.4,0.3-0.7,0.4c-0.2,0.1-0.5,0.2-0.8,0.2c0,0.1,0.2,0.2,0.4,0.2c0.2,0,0.3,0,0.3,0.2
				c-0.2,0.1-0.5,0.3-0.9,0.6c-0.4,0.3-0.7,0.5-0.9,0.6c-0.2,0.1-0.4,0.2-0.7,0.6c-0.3,0.3-0.6,0.5-1,0.6c-0.1,0.1,0,0.2,0.1,0.3
				c0.1,0.1,0.1,0.1,0.1,0.2h-0.1c-0.1,0-0.2,0.1-0.4,0.2c-0.2,0.1-0.4,0.2-0.6,0.1c-0.1,0-0.1,0-0.1,0.1c0,0.1,0,0.1-0.1,0.1
				c-0.1,0.1-0.1,0.1-0.1,0.1c0,0.1,0,0.1,0,0.1l0.3,0.2c-0.1,0.1-0.2,0.1-0.4,0c-0.1,0-0.3,0-0.4,0c-0.1,0.6-0.3,1.1-0.6,1.5
				c-0.4,0.3-0.9,0.7-1.7,1.1c-0.3-0.1-0.5-0.2-0.6-0.2c-0.1,0-0.3,0.2-0.4,0.5c-0.4,1.1-1.4,1.7-2.8,1.9c-0.4,0-0.6,0-0.7,0.1
				c-0.1,0.1-0.2,0.2-0.3,0.6c-0.4,0.3-1,0.4-1.7,0.6c-0.3,0.1-0.6,0.1-0.9,0.2c-0.3,0.1-0.6,0.1-0.8,0.1c-0.1,0.1-0.3,0.3-0.4,0.7
				c-0.1,0.3-0.3,0.5-0.6,0.6c0,0.1,0.1,0.3,0.1,0.4c0,0.1,0,0.3-0.1,0.6c-0.1,0.2-0.1,0.4,0,0.6v0.1c0,0.2-0.1,0.3-0.3,0.3
				c-0.2,0.1-0.4,0.1-0.4,0.1v0.1c0,0.1,0.1,0.2,0.2,0.3c0.1,0.1,0.2,0.2,0.2,0.3c0,0.1-0.1,0.1-0.2,0.1c-0.1,0-0.2,0-0.3,0
				c0.1,0.2,0.2,0.4,0.2,0.7c0,0.3,0.1,0.5,0.3,0.7c0.1,0.2,0.3,0.3,0.6,0.4c1.8,0,3.3-0.3,4.5-0.8c1.4-0.6,2.6-1,3.4-1.1
				c0.2,0,0.4-0.2,0.7-0.3c0.2-0.2,0.4-0.3,0.5-0.3l6.3-2.7c0.4-0.1,0.8-0.3,1.2-0.4c0.4-0.1,0.8-0.2,1.2-0.4
				c0.2-0.1,0.4-0.1,0.6-0.1c0.2,0,0.4,0.1,0.5,0.2c0.2,0.4,0.2,0.8,0,1c-0.7,1.2-1.3,2-1.9,2.5c-0.7,0.7-1.4,1.1-2.1,1.3
				c-0.7,0.3-1.3,0.8-1.7,1.3c0,0.1,0.2,0.2,0.3,0.3c0.2,0.1,0.3,0.1,0.3,0.2v0.1c0,0.1,0.1,0.1,0.2,0.3c0.1,0.1,0.2,0.2,0.2,0.3
				c-0.5,0.1-0.9,0.5-1.3,1c-0.4,0.5-0.7,0.9-0.9,1.1v0.1c0,0.1,0,0.2,0.1,0.3c0.1,0.1,0.1,0.2,0,0.3c-0.1,0.1-0.3,0.2-0.4,0.4
				c-0.1,0.2-0.3,0.3-0.4,0.4c-0.1,0.1-0.3,0.1-0.5,0c0-0.1,0.1-0.2,0.2-0.2c0.1,0,0.1-0.1,0.2-0.2c-0.1-0.1-0.2-0.1-0.3-0.2
				c-0.1-0.1-0.2-0.1-0.3-0.1c0,0,0.1,0,0.1-0.1c0-0.1,0-0.1,0-0.2c-0.1-0.1-0.1-0.2-0.2-0.2c-0.1,0-0.2,0-0.3,0l-0.5,0.2
				c-0.3,0.2-0.5,0.4-0.7,0.6c-0.2,0.2-0.4,0.4-0.6,0.6c0,0.2,0.1,0.3,0.3,0.3c0.1,0.1,0.2,0.1,0.3,0.1c-0.1,0.1-0.3,0.4-0.6,0.8
				c-0.2,0.4-0.5,0.6-0.9,0.6c-0.3-0.3-0.6-0.4-0.8-0.4c-0.1,0-0.3,0.1-0.7,0.4c0,0.2,0.2,0.3,0.4,0.4c-0.1,0.1-0.2,0.1-0.2,0.1H215
				c-0.4,0.1-0.6,0.2-0.7,0.3c-0.1,0.2,0,0.4,0.2,0.6c0,0.1,0.1,0.2,0.1,0.4c-0.1,0.1-0.1,0.2-0.2,0.3c-0.1,0.1-0.3,0.1-0.5,0.2
				c-0.1-0.1-0.2-0.2-0.2-0.3c0,0,0.2-0.2,0.5-0.4c-0.3-0.1-0.5-0.2-0.7-0.2c-0.2,0-0.4,0.1-0.5,0.4c0,0.1-0.2,0.1-0.5,0.2
				c-0.2,0-0.5,0-0.7,0.1c-0.2,0.1-0.4,0.1-0.6,0.1c-0.3,0.1-0.5,0.1-0.9,0l-0.3-0.1c-0.1,0-0.3,0-0.6,0.1c-0.2,0.1-0.4,0.1-0.5,0
				c-0.7-0.3-1.3-0.4-1.6-0.4c-0.1,0.1-0.3,0.1-0.4,0c-0.1-0.2-0.3-0.3-0.6-0.4c-0.3-0.1-0.4-0.1-0.5-0.2c-0.2-0.1-0.8-0.5-1.7-1.1
				l-1.3-0.9c-0.4-0.2-0.7-0.6-0.8-1c-0.1-0.5-0.4-0.8-0.9-0.8c-0.1,0-0.3-0.1-0.4-0.2c0-0.1,0-0.2,0.1-0.2c0.1,0,0.1-0.1,0.1-0.2
				l-0.1-0.1c-0.2-0.1-0.4-0.3-0.6-0.7c-0.2-0.3-0.3-0.6-0.5-0.7c-0.1-0.1-0.1-0.1-0.1-0.2c0-0.2,0.1-0.3,0.4-0.4
				c-0.3-0.2-0.6-0.7-0.8-1.4l-0.5-2.5c-0.1-0.2-0.1-0.5-0.1-0.9l0.1-2.1c0-1.4,0.3-3,0.8-4.8c0.2-0.3,0.4-0.7,0.5-1.2
				c0.1-0.4,0.3-0.8,0.5-1.1c0.1,0.1,0.3,0.3,0.6,0.5l0.4-0.5c-0.1-0.1-0.2-0.1-0.4-0.1c-0.2,0.1-0.3,0.1-0.4,0.1
				c-0.2,0-0.3-0.2-0.1-0.6c0.8-1.3,1.5-2.5,2-3.7c0-0.3,0.3-0.5,0.8-0.6c0.3-0.1,0.4-0.2,0.4-0.3c0-0.1-0.1-0.3-0.3-0.6
				c0.8-0.1,1.3-0.5,1.3-1.3c0-0.2,0.3-0.6,0.7-1.1c0,0,0.1-0.1,0.1-0.1c0,0,0.1-0.1,0.1-0.1c0.4-0.1,0.7-0.3,0.9-0.6
				c0.2-0.3,0.4-0.6,0.5-0.7c0-0.1,0.1-0.2,0.2-0.4c0.1-0.1,0.2-0.2,0.3-0.3c0,0,0.2-0.1,0.4-0.2c0.2-0.1,0.3-0.3,0.3-0.4
				c0,0,0.1-0.2,0.4-0.4c0.5,0,0.9-0.2,1.3-0.6c0.4-0.3,0.6-0.5,0.8-0.6c0.3-0.2,0.8-0.5,1.4-0.7c0.6-0.2,1-0.4,1.2-0.5
				c0.5-0.2,0.9-0.5,1.3-0.7c0.4-0.2,0.7-0.3,1-0.4c0.3-0.1,0.7-0.2,1.2-0.3c0.3,0,0.6-0.1,0.8-0.2c0.2-0.1,0.5-0.1,0.8-0.2h0.6
				c0.5,0,0.9-0.1,1.1-0.2l0.1-0.1c0.1,0.1,0.4,0.1,0.8,0.1c0.5,0,0.9,0,1.3-0.1c0.4,0,0.7-0.1,1-0.1c0.7,0,1.7,0.3,3,0.9
				c0.6,0.2,0.9,0.5,1,0.8c0.1,0.4,0.4,0.8,0.9,1.3c0.4,0.5,0.7,0.9,0.8,1.2c-0.2,0.1-0.2,0.3-0.1,0.4c0,0.2,0.1,0.3,0.3,0.4
				C230.1,35.4,230.4,35.4,230.4,35.4z M200.7,47.5c-0.4,0.2-0.7,0.5-0.7,0.9c0.2,0,0.4,0,0.5-0.1c0.1-0.1,0.2-0.2,0.2-0.3
				C200.7,47.8,200.7,47.6,200.7,47.5z M222.8,36.3c0,0-0.1-0.1-0.4-0.4c-0.5-0.4-1-0.7-1.4-0.7c-0.2,0-0.4,0.1-0.5,0.2
				c-0.1,0.1-0.3,0.2-0.6,0.2l-0.4-0.4h-0.1c-0.3-0.2-0.5-0.3-0.6-0.3c-0.2,0-0.4,0.1-0.6,0.4c0,0.1,0.2,0.1,0.4,0
				c0.2,0,0.3,0,0.4,0c0,0.1,0,0.1-0.1,0.1h0.1c0.2,0.1,0.3,0.3,0.1,0.3c-0.2,0.1-0.3,0.1-0.3,0.1c-0.3,0.1-0.5,0.2-0.7,0.3
				c-0.2,0.2-0.4,0.3-0.6,0.4v0.1c0.1,0,0.3,0,0.3,0.1c0.1,0.1,0.1,0.2,0.2,0.4c-0.4,0-1,0.2-1.8,0.6c0.2,0.1,0.4,0.1,0.5,0
				c0.1,0,0.2,0,0.3,0h0.1c0,0.1,0,0.2,0,0.3s-0.1,0.2-0.3,0.3c-0.4,0.1-0.6,0.3-0.7,0.5c0,0.1,0.2,0.1,0.3,0.1c0.2,0,0.3,0,0.3,0
				c-0.1,0.1-0.2,0.4-0.4,0.7c-0.2,0.3-0.4,0.6-0.4,0.9c-0.1,0-0.3-0.1-0.6-0.1c-0.3,0-0.5,0.1-0.7,0.3c-0.1,0.1-0.1,0.1-0.2,0.1
				c-0.1,0-0.2,0-0.2,0.1c-0.1,0.1-0.3,0.1-0.5,0.1c-0.2,0.1-0.4,0.1-0.5,0.2c0.2,0.3,0.6,0.4,1,0.4c0.2,0.1,0.3,0.1,0.4,0.3
				c0,0.1,0.1,0.2,0.1,0.3c-0.1,0.1-0.3,0.2-0.3,0.6c-0.1,0.3-0.2,0.6-0.5,0.7c-0.1-0.2-0.3-0.3-0.4-0.3c-0.1,0-0.2,0-0.4,0
				c-0.2,0-0.3,0-0.4-0.2c-0.1,0.2-0.4,0.4-0.7,0.5c-0.3,0.1-0.5,0.1-0.7,0.2c-0.1,0.1-0.3,0.2-0.7,0.6c0.1,0,0.2,0,0.3,0
				c0.1,0,0.2,0.1,0.3,0.1c0.1,0.1,0.2,0.1,0.4,0.1c0.1,0,0.3,0,0.4-0.1c0.1-0.1,0.3-0.1,0.4,0c0-0.2,0.1-0.4,0.4-0.4
				c0.1,0,0.2,0,0.3,0.1c0.1,0.1,0.2,0.1,0.3,0c0.3,0,0.6-0.1,0.7-0.2c0.4-0.3,1.4-1.1,3-2.2l2.5-1.8l1-1.1c0.9-0.9,1.5-1.6,1.9-2
				C222.7,36.5,222.8,36.3,222.8,36.3z M215.1,39.6c-0.3,0-0.5,0.2-0.7,0.7c0,0,0.1-0.1,0.2-0.1l0.6,0.1c0.2,0,0.4-0.1,0.4-0.4
				C215.5,39.7,215.3,39.6,215.1,39.6z M215,38c-0.2,0.1-0.3,0.1-0.3,0.3c0.4,0,0.8-0.3,1.3-0.8c-0.3,0-0.6,0.1-0.7,0.4
				C215.3,37.9,215.2,38,215,38z M217,66.4c0,0.2,0.1,0.2,0.3,0.2c-0.3,0.3-0.6,0.6-0.9,1l-0.4-0.3c0.1-0.1,0.2-0.3,0.3-0.6
				c0.1-0.2,0.3-0.4,0.5-0.6C216.9,66.1,217,66.2,217,66.4z M217.8,65.7c0.2-0.1,0.5-0.2,0.7-0.3c-0.1,0.2-0.1,0.4-0.2,0.6
				c-0.1,0.2-0.2,0.4-0.3,0.5c-0.1,0.1-0.2,0.2-0.4,0.2c-0.1,0,0-0.2,0.1-0.3c0.1-0.2,0-0.3-0.3-0.3
				C217.4,65.9,217.6,65.7,217.8,65.7z M219.9,64.5c0.1-0.1,0.3-0.2,0.4-0.3c0.1,0,0.3,0,0.6,0.1c-0.1,0.1-0.3,0.2-0.5,0.4
				c-0.2,0.2-0.5,0.2-0.9,0.1C219.7,64.7,219.8,64.6,219.9,64.5z M220.1,63c-0.1,0-0.1,0-0.2,0h0.3C220.2,63,220.2,63,220.1,63z"/>
			<path class="st2" d="M270.8,45.8c0,0.1,0,0.2-0.1,0.2c-0.1,0.1-0.1,0.1-0.1,0.1c0.1,0.3,0.1,0.6-0.1,0.9
				c-0.2,0.2-0.3,0.4-0.3,0.5c0,0.1,0.1,0.1,0.3,0.1c-0.3,0.3-0.5,0.6-0.7,0.7c-0.1,0.1-0.2,0.3-0.4,0.6c-0.2,0.2-0.3,0.5-0.3,0.7
				c0,0.3-0.1,0.4-0.3,0.4c-0.2,0.1-0.3,0.3-0.4,0.5c0,0.1-0.1,0.3-0.3,0.5c-0.2,0.2-0.3,0.3-0.3,0.4c0,0.1,0,0.1-0.1,0.1
				c-0.1,0-0.1,0-0.1,0h-0.1c-0.1,0.2-0.1,0.4-0.1,0.5c0,0.1,0.2,0.2,0.4,0.3c-0.1,0.1-0.2,0.2-0.4,0.2c-0.4,0-0.8,0.2-1.1,0.7
				c0.1,0,0.2,0,0.4,0c0.2,0,0.3-0.1,0.4-0.3c0.2,0.1,0.3,0.1,0.4,0.3l-0.1,0.1c-0.4,0.2-0.6,0.4-0.7,0.6c0,0.1,0,0.1-0.1,0.2
				c-0.1,0.1-0.1,0.1-0.2,0c-0.1,0-0.1,0-0.2,0c-0.1,0.1-0.1,0.1,0,0.2c0,0.2,0,0.3-0.1,0.4c-0.3,0.1-0.4,0.2-0.6,0.4
				c-0.1,0.3-0.2,0.4-0.3,0.5c-0.1,0.3-0.3,0.5-0.4,0.5c-0.2,0.2-0.3,0.3-0.4,0.4c-0.1,0.1-0.2,0.3-0.3,0.6c-0.3,0-0.5,0.1-0.7,0.3
				c-0.1,0.1-0.1,0.3,0,0.4c0.1,0.1,0.1,0.2,0.1,0.2v0.1c-0.1,0.1-0.1,0.1-0.3,0c-0.1,0-0.2,0-0.3,0c-0.1,0.3-0.3,0.5-0.7,0.5
				c0,0.1,0,0.1,0,0.3c0,0.1-0.1,0.3-0.2,0.5c-0.1,0.2-0.3,0.5-0.7,1c-0.5-0.1-0.9,0-1.2,0.3c0.1,0.1,0.1,0.2,0.3,0.2
				c0.1,0,0.2,0.1,0.3,0.1c-0.1,0.1-0.3,0.2-0.4,0.3c-0.2,0.1-0.3,0.1-0.4,0.2c-0.1,0.1-0.1,0.1,0,0.3c0,0.1,0,0.2,0,0.3
				c-0.1,0.1-0.2,0.1-0.3,0.1c-0.2,0-0.3,0.1-0.3,0.1l-0.1,0.6c-0.1,0.1-0.1,0.1-0.2,0.2c-0.1,0.1-0.2,0.1-0.2,0.1
				c-0.1,0.3-0.1,0.5-0.1,0.5c-0.1,0.1-0.1,0-0.2,0c-0.1-0.1-0.2-0.1-0.3,0c-0.1,0.1-0.2,0.2-0.4,0.3c-0.1,0.2-0.3,0.3-0.5,0.3h-0.2
				c0,0.4-0.1,0.7-0.1,0.8c0,0.1,0,0.2,0.1,0.2c0.1,0,0.1,0.1,0.2,0.1c-0.8,0.8-1.4,1.3-1.6,1.5c-0.3,0.3-0.6,0.5-1,0.7l-1,0.5
				c-0.4,0.1-0.8,0.1-1.1,0.1h-0.4c-0.7-0.1-1.2-0.3-1.6-0.5c-0.1-0.1-0.3-0.2-0.6-0.3c-0.2-0.1-0.4-0.1-0.6-0.2
				c-0.6-0.1-1-0.4-1.2-0.8c-0.1-0.1-0.2-0.3-0.4-0.4c-0.2-0.1-0.3-0.2-0.4-0.3c-0.5-0.3-0.8-0.9-0.8-1.6c0-0.3,0-0.5,0.1-0.7
				c0.1-0.2,0.2-0.3,0.2-0.4c0-0.6,0.1-1.6,0.3-2.9c0.2-1.1,0.3-1.9,0.3-2.5c0-0.6,0.2-1.3,0.3-2c0.2-0.7,0.3-1.3,0.3-1.6
				c0-0.3,0.1-0.9,0.2-1.8c0.1-0.9,0.2-1.6,0.3-2.3c0-0.1,0-0.3-0.1-0.4c-0.4,0.1-0.7,0.2-0.9,0.3c-0.2,0.2-0.2,0.4-0.2,0.7v0.5
				l-0.5,0.2c-0.3,0.1-0.4,0.2-0.2,0.4c0.2,0.1,0.2,0.1,0,0.3c-0.4,0.4-0.7,0.8-0.7,1.2c-0.1,0.1-0.2,0.2-0.3,0.2
				c-0.1,0.1-0.2,0.1-0.3,0.1c-0.4,0-0.7,0.2-0.8,0.6c-0.1,0.1-0.1,0.3-0.2,0.5c-0.1,0.2-0.2,0.4-0.2,0.6c0,0.1-0.1,0.3-0.1,0.8
				c-0.2-0.1-0.4-0.1-0.6,0.1c-0.2,0.2-0.3,0.3-0.4,0.3c0,0.3-0.2,0.8-0.4,1.3c-0.1,0.2-0.3,0.4-0.5,0.6c-0.2,0.2-0.4,0.4-0.5,0.5
				c-0.1,0.1-0.1,0.1-0.1,0.3c0,0.4-0.2,0.7-0.6,0.7c-0.2,0.1-0.3,0.2-0.4,0.3c-0.1,0.2-0.2,0.3-0.2,0.5c-0.1,0.4-0.2,0.8-0.3,1
				c-0.1,0.2-0.4,0.4-0.7,0.4c-0.2,0.4-0.3,0.7-0.3,0.9v0.2c0,0.1-0.1,0.3-0.2,0.6c-0.1,0.1-0.1,0.1-0.2,0.2
				c-0.1,0.1-0.1,0.2-0.1,0.3l0.1,0.3c-0.2,0-0.4,0.1-0.6,0.2c-0.1,0.1-0.2,0.3-0.2,0.4c0,0.2,0,0.3,0,0.3c-0.2,0.1-0.3,0-0.4,0
				c-0.1-0.1-0.2-0.1-0.2-0.2c-0.2,0.2-0.4,0.3-0.8,0.4c-0.1,0.1-0.3,0.2-0.3,0.4c-0.1,0.2-0.1,0.3-0.1,0.4
				c-0.2,0.1-0.3,0.2-0.6,0.3c-0.2,0.2-0.4,0.3-0.6,0.4c-0.1,0-0.2,0-0.4,0.1c-0.2,0.1-0.3,0-0.4-0.1c0,0-0.1-0.1-0.2-0.1
				c-0.3,0.1-0.4,0-0.6-0.2c-0.1-0.1-0.2-0.2-0.3-0.2c-0.1,0-0.2-0.1-0.3-0.1l-1-0.2c-0.3-0.1-0.4-0.3-0.6-0.5
				c-0.1-0.2-0.3-0.5-0.4-0.7c-0.1-0.1-0.2-0.2-0.3-0.4c-0.1-0.2-0.3-0.3-0.4-0.3c-0.1,0-0.2-0.1-0.3-0.3c-0.1-0.1-0.2-0.2-0.3-0.2
				c0-0.5,0-1.2,0.2-1.8s0.3-1.2,0.4-1.5c0.2-0.7,0.3-1.3,0.3-1.7c0-0.2,0-0.4,0.1-0.7c0.1-0.3,0.1-0.5,0.2-0.6
				c0.2-0.6,0.4-1.6,0.7-3.1l0.5-2.1c0-0.3,0.1-0.6,0.2-1c0.1-0.4,0.2-0.8,0.2-1.3c0-0.2,0.1-0.7,0.3-1.2c0.2-0.6,0.3-1,0.3-1.4
				c0-0.7,0.3-1.6,0.7-2.8c0-0.2,0.1-0.4,0-0.6c0-0.2,0-0.4,0-0.6l0.1-0.6c0.3-0.9,0.5-2.2,0.7-4c0.1-0.8,0.3-1.7,0.6-2.8
				c0.3-1.1,0.6-1.9,0.7-2.2c0-0.2,0-0.4,0-0.7c-0.1-0.2-0.1-0.5,0-0.7c0.2-0.1,0.4-0.2,0.6-0.4c0.2-0.1,0.5-0.3,0.8-0.4l1.6-1.1
				c0.2-0.1,0.3-0.1,0.4-0.1c0.4,0,0.9-0.1,1.3-0.4c0,0,0.1-0.1,0.3-0.1c0.1,0,0.2-0.1,0.3-0.1l1.5-0.4h0.9c0.1,0.1,0.3,0.1,0.6,0.1
				h0.2c0.3,0,0.5,0.1,0.5,0.4c0.1,0,0.2,0,0.3,0c0.1,0,0.2,0,0.3,0l0.1,0.1c-0.2,0.3-0.2,0.6,0.2,0.9l-0.2,0.4
				c-0.1,0.1-0.2,0.3-0.1,0.4c0.1,0.3,0.1,0.6-0.2,1c-0.1,0.3-0.2,0.6-0.3,1c-0.1,0.4-0.1,0.7-0.1,0.8s-0.1,0.5-0.1,1
				c-0.1,0.2-0.1,0.5-0.1,0.9c0,0.4-0.1,0.7-0.1,0.9c-0.1,0.3-0.2,0.8-0.3,1.4c-0.1,0.6-0.2,1.1-0.3,1.4c-0.1,0.2-0.1,0.4-0.2,0.6
				c-0.1,0.2-0.1,0.4-0.2,0.6c-0.1,0.1-0.1,0.3,0,0.5c0,0.2,0,0.4,0,0.6l0.2,0.1c-0.2,0.1-0.4,0.4-0.4,0.7c0,0.3-0.1,0.5-0.1,0.6
				c-0.1,0.1-0.2,0.4-0.2,0.7c-0.1,0.3-0.1,0.6-0.2,0.7c-0.1,0.1-0.1,0.1-0.1,0.2c0,0.1,0,0.2,0.1,0.3c0,0.2,0.1,0.4,0,0.5
				c0,0.1,0,0.3,0,0.4l0.2,0.1c0.4-0.3,0.8-0.9,1.3-1.6c0.6-0.8,1.1-1.4,1.5-1.8c0.4-0.5,0.7-0.9,0.8-1.2c0.4-0.6,1.2-1.5,2.2-2.7
				c0.2-0.3,0.5-0.6,0.7-0.9c0.2-0.3,0.4-0.6,0.7-0.9c0.1-0.1,0.2-0.3,0.4-0.5c0.2-0.2,0.3-0.4,0.4-0.6l0.1-0.3
				c-0.1-0.1-0.1-0.4-0.1-0.6c0-0.3,0.1-0.5,0.1-0.6c0-0.2,0-0.4,0.1-0.5c0.2-0.2,0.4-0.4,0.5-0.7c0.1-0.3,0.2-0.5,0.3-0.7
				c0.1-0.3,0.4-0.5,0.7-0.6c0.3,0,0.7-0.1,1.2-0.4c0.1-0.1,0.4-0.2,0.7-0.4c0.3-0.1,0.5-0.3,0.7-0.4c0.2-0.1,0.4-0.2,0.6-0.2
				c0.3,0,0.5-0.1,0.7-0.3c0.1,0,0.1-0.1,0.2-0.1c0.3,0,0.7-0.2,1.2-0.4c0.5-0.2,1-0.2,1.4-0.1c0.1,0.1,0.3,0,0.6-0.1
				c0.1,0.3,0.2,0.5,0.4,0.5l0.3-0.1c0.1,0,0.2-0.1,0.3-0.1c0.1,0,0.2-0.1,0.3-0.1h0.2c-0.1,0.1-0.1,0.2-0.2,0.3
				c-0.1,0.1-0.1,0.2-0.1,0.3c0.1,0.1,0.2,0.1,0.2,0.2c0,0.1,0.1,0.1,0.1,0.1c0.2,0.1,0.2,0.3,0.2,0.6l0.1,0.2
				c-0.1,0.3-0.1,0.5-0.1,0.7c0,0.3,0.1,0.5,0.2,0.7v0.4l-0.3,1.5c-0.1,0.9-0.3,1.8-0.5,2.5c-0.1,0.1-0.1,0.2-0.1,0.3
				c0,0.1-0.1,0.2-0.2,0.3c-0.1,0.1-0.2,0.3-0.2,0.6c-0.1,0.5-0.2,0.9-0.4,1.1c-0.1,0.2-0.2,0.5-0.2,0.7c0,0.2,0,0.3,0,0.4
				c-0.1,0.2-0.1,0.4-0.3,0.7c-0.1,0.3-0.2,0.5-0.3,0.7c0,0.1,0,0.1,0,0.3c0,0.1,0,0.2,0,0.3c0,0.3,0,0.6,0,1
				c-0.1,0.3-0.1,0.6-0.1,0.7c0,0.1,0,0.1-0.1,0.3c-0.1,0.1-0.1,0.2,0,0.3c0,0.1,0,0.3-0.1,0.4c-0.2,0.2-0.3,0.5-0.3,0.7
				c0,0.1,0.1,0.4,0.4,0.7c-0.1,0.1-0.1,0.2-0.2,0.4c-0.1,0.3-0.2,0.4-0.3,0.5c-0.1,0.1-0.1,0.1-0.1,0.3c0.1,0.3,0.2,0.6,0.2,1
				c0,0.4,0,0.7-0.1,1c-0.1,0.3-0.1,0.5-0.1,0.7c-0.1,0.4-0.1,1-0.1,1.9c-0.1,0.5-0.3,0.9-0.5,1.2c0,0.1,0.1,0.2,0.3,0.3
				c0.1,0.1,0.2,0.2,0.2,0.3v0.1c0.2-0.1,0.6-0.4,1.3-1c0.2,0.3,0.4,0.3,0.6,0c0.3-0.3,0.8-0.8,1.4-1.3c0.1-0.1,0.4-0.3,0.6-0.6
				c0.3-0.3,0.5-0.5,0.8-0.6c0.2-0.2,0.5-0.4,0.7-0.4c0.2-0.1,0.3-0.2,0.4-0.3c0.1-0.1,0.2-0.3,0.4-0.5c0.2-0.2,0.3-0.3,0.4-0.4
				c0.7-0.6,2.1-1.7,4.1-3.1c1.3-1,2.2-1.6,2.6-1.8c0,0.1,0,0.1,0,0.2C270.9,45.7,270.9,45.7,270.8,45.8
				C270.9,45.7,270.9,45.8,270.8,45.8z"/>
			<path class="st2" d="M313.2,21.9l0.5-0.1c0.2,0,0.4,0.1,0.5,0.4c-0.4,0.1-0.7,0.4-1.2,0.6c-0.4,0.3-0.8,0.5-1.2,0.6
				c-0.5,0.3-1,0.4-1.5,0.2c-0.2,0-0.4,0.1-0.4,0.1c-0.1,0.1,0,0.2,0,0.3c0.1,0.1,0.1,0.1,0.1,0.2c-1.1,0.4-1.9,0.7-2.4,1
				c-0.2,0.1-0.4,0.1-0.7,0.1s-0.5,0.2-0.7,0.5c-0.1,0.2-0.3,0.4-0.6,0.6s-0.5,0.3-0.7,0.4c-0.4,0.3-0.8,0.4-1.1,0.3
				c-0.1,0-0.2-0.1-0.3-0.1c-0.2,0-0.3,0.2-0.5,0.5c-0.1,0.3-0.3,0.5-0.5,0.6c-0.2,0.1-0.4,0.2-0.4,0.3l-0.8,0.6
				c-0.1,0-0.1-0.2-0.2-0.3c-0.1-0.2-0.1-0.3-0.2-0.3c0,0.5-0.4,0.9-1.1,1.2c-0.5,0.3-1,0.3-1.4,0.1c0,0.1,0,0.1-0.1,0.1
				c0,0.3,0.1,0.4,0.1,0.4c-0.5,0.2-1.1,0.5-1.7,1c-0.1,0-0.1,0-0.2,0.1c-0.1,0.1-0.2,0.1-0.3,0c-0.1-0.1,0-0.3,0.2-0.4
				c0.2-0.1,0.4-0.3,0.5-0.6c0.1-0.3,0.1-0.5,0-0.8l-0.1-0.2c0-0.1,0.1-0.3,0.2-0.6c0.1-0.1,0-0.3-0.1-0.4c-0.1-0.1-0.2-0.1-0.4-0.1
				c-0.2,0-0.3,0-0.3,0c-0.1,0-0.1,0.1-0.1,0.1c0,0.1,0,0.2,0.1,0.2c0.1,0.1,0.1,0.2,0.1,0.2c-0.1,0-0.2,0-0.4,0
				c-0.1,0-0.3,0-0.4-0.1c-0.1-0.1-0.2-0.1-0.2,0.1c-0.1,0.1-0.1,0.1-0.1,0.2c0,0.3,0.1,0.6,0.4,0.7c0.3,0.1,0.5,0.1,0.6,0.1
				c0.1,0.1,0.2,0.1,0.1,0.2c-0.1,0.1-0.1,0.2-0.1,0.3c-0.1-0.1-0.2-0.1-0.3-0.1c-0.1,0-0.2,0-0.3,0c-0.1,0.1-0.1,0.3,0,0.4
				c0.1,0.1,0.2,0.2,0.2,0.2c-0.1,0.1-0.1,0.1-0.2,0.1c-0.1,0-0.1,0-0.1,0.1l-0.2,0.1c0,0.1,0,0.2,0.1,0.3c0.1,0.2,0.2,0.3,0.3,0.4
				l-0.2,0.1c-0.1,0-0.1-0.1-0.1-0.1c0,0-0.1-0.1-0.1-0.1c-0.1,0.1-0.3,0.3-0.5,0.6c-0.2,0.2-0.5,0.4-0.7,0.6c0-0.1-0.1-0.2-0.4-0.2
				c-0.2,0.1-0.3,0.2-0.3,0.5c0,0.3,0,0.4-0.2,0.6c-0.5,0.3-1.3,0.9-2.2,1.7c-0.1,0.1-0.3,0.2-0.6,0.4c-0.3,0.2-0.5,0.3-0.6,0.5
				c-0.1,0.1-0.2,0.1-0.4,0c-0.3-0.2-0.5-0.1-0.7,0.2c-0.1,0-0.1-0.1-0.1-0.2c-0.1-0.1-0.1-0.2-0.2-0.1c-0.1,0.1-0.2,0.2-0.2,0.4
				c-0.1,0.1-0.2,0.2-0.4,0.4c-0.3,0.2-0.4,0.2-0.5,0.2c-0.1,0-0.1-0.1-0.1-0.2c0-0.1,0-0.1,0-0.2c-0.3,0-0.5,0.1-0.6,0.4
				c-0.2,0.3-0.3,0.4-0.5,0.5c0-0.1-0.1-0.3-0.3-0.4c-0.2-0.1-0.3-0.2-0.3-0.4c-0.1,0-0.2,0-0.3,0.1c-0.1,0.1-0.1,0.3,0,0.4
				c0.1,0.2,0.2,0.3,0.4,0.3c-0.2,0.1-0.4,0.2-0.7,0.4l-0.2,0.1l-0.3-0.1c-0.1,0-0.2,0.1-0.3,0.2c-0.1,0.1-0.2,0.2-0.3,0.3
				c-0.2,0.1-0.5,0.3-0.9,0.5c-0.3,0.2-0.6,0.4-0.9,0.5l-0.7,0.2c-0.1,0-0.1-0.1-0.1-0.2c0-0.1-0.1-0.1-0.1-0.1
				c-0.1,0-0.2,0.1-0.4,0.1c-0.1,0.1,0,0.1,0,0.1c0.1,0,0.1,0,0.2,0.1c-0.1,0.2-0.2,0.3-0.4,0.3c-0.2,0.1-0.3,0.1-0.5,0.2
				c-0.2,0.1-0.4,0.1-0.5,0.1c-0.2,0-0.2,0.1-0.2,0.2c-0.1,0.1-0.1,0.1-0.1,0.2c0,0.1,0,0.1-0.1,0h-0.1c-0.1,0-0.2,0.1-0.3,0.1
				c-0.1,0.1-0.2,0.1-0.3,0.1c-0.1,0-0.1-0.1,0-0.3c0-0.1,0.1-0.2,0.1-0.3c-0.4,0-0.6,0.3-0.5,0.7c0,0.1-0.1,0.2-0.1,0.5
				c-0.3,0.3-0.4,0.7-0.3,1.2c0,0.1,0,0.3,0,0.3c-0.1,0.1-0.1,0.1-0.1,0.3c0,0.1,0,0.2-0.1,0.3c-0.1,0.1-0.1,0.3-0.1,0.6
				c0,0.3,0,0.4,0,0.4c-0.1,0.1-0.1,0.2-0.1,0.4l0.1,0.6c0,0.1,0,0.1,0,0.2c0,0.1-0.1,0.2-0.2,0.2c-0.1,0.1-0.2,0.1-0.2,0.2
				c0,0.1,0,0.2,0.1,0.4v0.2c0,0.1-0.1,0.4-0.1,0.7c-0.3,0.4-0.5,0.7-0.7,0.8c-0.1,0.1-0.1,0.3,0,0.6c0.1,0,0.1-0.1,0.2-0.2
				c0.1-0.1,0.2-0.2,0.3-0.2c0.1,0.1,0.1,0.3,0.1,0.4c0,0.1,0,0.3-0.1,0.6c-0.1,0.2-0.1,0.4,0,0.6c0,0.1,0,0.1-0.1,0.2
				c-0.3,0.1-0.3,0.3-0.1,0.5c0.1,0.1,0.2,0.3,0.2,0.6c0,0.2,0,0.4,0,0.6v0.1c0,0.2-0.1,0.5-0.1,0.8c-0.1,0.3-0.1,0.6-0.1,0.8
				c0,0.1-0.1,0.2-0.1,0.3c-0.1,0.1-0.1,0.2,0,0.3c-0.1,0-0.1,0-0.3,0s-0.1,0.1,0,0.2c0.1,0.1,0.2,0.3,0.3,0.6
				c0.2,0.3,0.2,0.6,0,0.8c-0.1,0.1-0.1,0.3-0.1,0.5l0.1,0.4c0,0.3-0.1,0.5-0.3,0.7c-0.1,0.3-0.1,0.4,0.1,0.6
				c0.2,0.1,0.4,0.1,0.6-0.2c0.1-0.1,0.1-0.2,0.2-0.3c0.1-0.1,0.2-0.2,0.2-0.3c0-0.1,0-0.1,0.1-0.2c0-0.1,0.1-0.1,0.2,0
				c0.1,0,0.1,0,0.1-0.2c0.1-0.3,0.3-0.4,0.5-0.4c0,0,0.1,0,0.1-0.1c0.1-0.1,0.1-0.1,0.1-0.2c0.1-0.5,0.3-0.8,0.7-0.9
				c0.1,0,0.2-0.1,0.3-0.3c0.2-0.5,0.5-0.9,0.9-1l0.2-0.2c0.2-0.5,0.6-0.8,1-1c0.2-0.1,0.5-0.4,0.9-0.9c0.2-0.1,0.3-0.3,0.6-0.5
				c0.2-0.2,0.4-0.4,0.5-0.5c0.1-0.1,0.4-0.4,1-0.9l2.1-1.9l0.7-0.4c0.1,0.1,0.1,0.1,0.1,0.2c0,0.1,0,0.2,0,0.2
				c0.2,0.1,0.3,0.1,0.4-0.1c0-0.1,0-0.2-0.1-0.3c-0.1,0-0.2-0.1-0.2-0.1c0.2-0.2,0.5-0.5,1-0.9c0.5-0.3,0.8-0.6,1-0.8l-0.1,0.2
				c0,0.1,0.1,0.3,0.2,0.5c0.1,0.2,0.1,0.5,0,0.7c-0.2-0.1-0.3-0.2-0.3-0.2c-0.1,0-0.2,0.1-0.2,0.1c-0.1,0.1-0.1,0.2-0.2,0.2
				c-0.1,0.1-0.1,0.3-0.2,0.6c-0.1,0.2-0.3,0.4-0.4,0.6c-0.1,0-0.2-0.1-0.4-0.1c-0.2,0-0.3,0.1-0.4,0.2c-0.1,0.1-0.2,0.3-0.4,0.5
				c-0.1-0.1-0.2-0.2-0.3-0.2s-0.3,0-0.3-0.1c-0.1,0.1-0.1,0.3-0.1,0.4c0,0.1-0.1,0.1-0.2,0.1c-0.1,0-0.2,0.1-0.1,0.3
				c0.3,0,0.5-0.1,0.6-0.4c0,0.1,0,0.2,0.1,0.2c0,0.1,0,0.1-0.1,0.1c-0.1,0.1-0.1,0.1,0,0.1c0,0.1,0.1,0.1,0.1,0.1c0,0,0.1,0,0.1,0
				c0,0.1,0,0.1,0,0.2c0,0.1,0,0.2,0.1,0.2c0.1,0.1,0.2,0,0.4-0.2l0.1-0.1c0.2,0.1,0.3,0.2,0.3,0.4c0,0.2-0.1,0.3-0.2,0.5
				c-0.3,0.2-0.5,0.3-0.7,0.4c-0.3,0.1-0.4,0.2-0.3,0.6c-0.1-0.1-0.2-0.1-0.2-0.1c0,0.1-0.1,0.1-0.1,0.1c-0.2,0.3-0.4,0.5-0.7,0.4
				c-0.2,0-0.3,0.1-0.3,0.1c-0.1,0.1-0.1,0.2,0,0.3c0,0.1,0,0.2,0,0.3c0,0.1,0,0.2,0.1,0.3c-0.1,0-0.2,0.1-0.2,0.3
				c-0.1,0.2-0.1,0.3-0.3,0.2c0.1,0.1,0.2,0.1,0.3,0.3c0.1,0.1,0.2,0.2,0.4,0.1c-0.1,0.3-0.1,0.6-0.1,0.8c-0.1-0.1-0.2-0.2-0.3-0.2
				s-0.2,0-0.2,0c0-0.3-0.1-0.5-0.2-0.7c-0.1,0.1-0.2,0.1-0.2,0.2c-0.1,0.1-0.1,0.1-0.1,0.2c-0.2-0.1-0.3-0.1-0.4,0
				c-0.1,0.1-0.2,0.1-0.3,0.2c-0.1,0-0.1-0.2-0.2-0.4c-0.1-0.2-0.2-0.4-0.4-0.4c-0.2,0.1-0.3,0.2-0.1,0.3c0.1,0.1,0.3,0.3,0.3,0.5
				c0.1,0.2,0.2,0.4,0.3,0.5c0.1,0.1,0.3,0.2,0.5,0.2v0.6l0.2,0.1c0,0.1,0,0.1,0.1,0.1c0.2,0,0.2-0.1,0.3-0.3
				c0.2-0.4,0.4-0.6,0.7-0.6h0.1c0,0,0-0.1,0.1-0.1h0.1c0.1-0.1,0.1-0.1,0.1-0.3c0-0.1,0.1-0.2,0.1-0.3l0.3,0.1
				c0.1,0.1,0.2,0.1,0.3,0c0.1,0,0.1-0.1,0-0.1c-0.1-0.1,0-0.3,0.2-0.4c0,0.1,0.1,0.2,0.1,0.4c0,0.2-0.1,0.4-0.4,0.6
				c-0.1-0.2-0.2-0.2-0.3-0.1c-0.2,0.1-0.2,0.1-0.1,0.2l0.3,0.3c-0.1,0-0.1,0-0.1,0.1c0,0.1,0.1,0.3,0.1,0.5c0,0.4-0.1,0.7-0.3,0.9
				c-0.1,0.1-0.1,0.3-0.3,0.6c-0.1,0.3-0.2,0.5-0.3,0.8c-0.3,0-0.4,0.1-0.4,0.3c0,0.1,0,0.1-0.1,0.1c-0.1,0-0.1,0-0.2,0.1
				c-0.3,0-0.4,0.1-0.2,0.4v0.2c-0.2,0.1-0.3,0.3-0.3,0.6c-0.1,0.3-0.2,0.5-0.3,0.6c-0.1,0.1-0.1,0.1-0.1,0.2
				c-0.1,0.5-0.3,0.9-0.7,1c-0.1,0.1-0.1,0.1-0.1,0.2c0,0.1,0,0.2-0.1,0.2c-0.1,0.2-0.2,0.4-0.3,0.6c-0.1,0.1-0.2,0.3-0.3,0.4
				c-0.2,0.1-0.3,0.2-0.2,0.4c0,0.1,0,0.1-0.1,0.1c-0.3,0.1-0.4,0.3-0.5,0.6c-0.1,0.3-0.2,0.5-0.3,0.7c-0.1,0.2-0.2,0.3-0.4,0.3
				c-0.2,0.2-0.3,0.4-0.4,0.5c-0.1,0.4-0.4,0.6-0.8,0.7c-0.3,0.1-0.4,0.3-0.4,0.4c-0.1,0.4-0.4,0.7-0.8,1c-0.4,0.3-0.9,0.4-1.3,0.4
				c-0.2,0-0.4-0.1-0.7-0.2c-0.1-0.1-0.2-0.1-0.3-0.1c-0.1,0-0.2,0-0.3,0l-0.6,0.1c-0.4,0-1.1-0.1-1.9-0.3c-0.3-0.1-0.8-0.3-1.4-0.7
				l-0.3-0.1h-0.1c-0.2,0-0.4-0.1-0.6-0.3c-0.2-0.2-0.4-0.3-0.6-0.3s-0.4-0.1-0.5-0.3l-0.1-0.1l-0.2,0.1c-0.2,0-0.5-0.1-0.6-0.3
				c-0.2-0.2-0.3-0.3-0.5-0.4c-0.7-0.3-1.2-0.6-1.5-0.8c-0.5-0.4-1-1-1.4-1.9c-0.2-0.2-0.3-0.5-0.4-0.9c0.2-0.4,0.4-0.9,0.4-1.4
				c0-0.3-0.1-0.7-0.2-1.1c-0.1-0.4-0.2-0.8-0.3-1l-0.6,0.2c0-0.4,0.1-1.2,0.2-2.4c0.1-1.2,0.3-2.4,0.6-3.4c0.2-0.7,0.3-1.9,0.4-3.4
				c0.1-0.7,0.2-1.3,0.4-1.7c0.3-0.7,0.5-1.5,0.6-2.4c0.1-0.9,0.2-1.4,0.3-1.6c0.3-1.7,0.9-3.5,1.6-5.2c0-0.2,0.1-0.4,0.1-0.7
				c0.1-0.3,0.2-0.6,0.3-1c0-0.1,0-0.3,0-0.6c0-0.3,0.2-0.5,0.4-0.7v-0.1c0-0.1,0.1-0.3,0.2-0.6c0.2-0.2,0.2-0.4,0.1-0.6
				c0,0,0-0.1,0-0.1c0,0,0.1-0.1,0.2-0.1c0.2,0,0.4-0.1,0.4-0.4c0-0.2,0.1-0.4,0.4-0.6c0.2-0.2,0.3-0.5,0.3-0.8
				c0-0.3,0.1-0.6,0.4-0.9c0.2-0.2,0.4-0.2,0.5-0.1c0.1-0.2,0.2-0.4,0.1-0.7c-0.1,0-0.2,0-0.2,0c-0.1,0.1-0.1,0.1-0.1,0.1
				c-0.1-0.1-0.2-0.2-0.2-0.4s0-0.3,0.1-0.3c0.1-0.1,0.1-0.2,0.2-0.3c0-0.1,0.2-0.2,0.4-0.3c0.2-0.1,0.3-0.2,0.2-0.4
				c-0.2-0.1-0.3-0.1-0.6,0.1c-0.1,0-0.1-0.1-0.1-0.3s0.1-0.4,0.4-0.7c0-0.1,0.2-0.2,0.3-0.4c0.2-0.2,0.2-0.4,0.1-0.6l-0.1-0.2
				c0-0.3,0.2-0.5,0.7-0.6l0.1-0.1c0.1,0,0.1,0,0.1-0.1c-0.3-0.3-0.3-0.7-0.1-1c0.1-0.2,0.2-0.5,0.3-0.8c0.1-0.3,0.2-0.6,0.3-0.8
				l0.5-1.1l0.1,0.2c0,0.1,0.1,0.1,0.2,0.1c0,0,0.1-0.1,0.1-0.2c0-0.1,0-0.1,0.1-0.2c0,0,0.1,0,0.3,0.1c0.1,0.1,0.2,0,0.3-0.3
				l0.1,0.4c0.2,0.1,0.3,0.1,0.4-0.1c0,0-0.1-0.1-0.2-0.3c-0.2,0-0.3-0.1-0.3-0.3c-0.1-0.1-0.1-0.2-0.2-0.3l-0.1-0.1
				c0.2-0.1,0.3-0.3,0.4-0.5c0-0.1,0.1-0.3,0.2-0.5c0.1-0.2,0.1-0.3,0-0.4v-0.2c0-0.2,0.1-0.5,0.4-0.9c0,0,0.1,0,0.1-0.1
				c0-0.1,0-0.1,0-0.2c-0.1-0.2,0-0.3,0.2-0.3c0.1,0,0.2-0.1,0.3-0.2c0.1-0.1,0.1-0.2,0-0.2l-0.1-0.3c0-0.2,0.1-0.5,0.4-0.9
				c0.1-0.1,0.2-0.2,0.2-0.3c0-0.1,0-0.1,0-0.2c0-0.2,0-0.3,0.1-0.4c0.2-0.1,0.3-0.3,0.3-0.5c0-0.2,0-0.4,0-0.5
				c0.1-0.2,0.2-0.4,0.5-0.6c0.1-0.1,0.2-0.3,0.1-0.4v-0.1c0-0.2,0.1-0.5,0.4-0.7c0.1-0.1,0.2-0.3,0.3-0.5c0-0.1,0-0.2,0.1-0.4
				c0.1-0.1,0.1-0.3,0.2-0.4l1.9-3.5c0.1-0.2,0.3-0.4,0.7-0.4c0.2,0,0.4,0,0.6-0.1c0.2-0.1,0.3-0.3,0.4-0.5c0.3-0.6,0.8-0.9,1.6-0.7
				c0.2,0.1,0.3,0,0.6-0.1c0.4-0.2,0.7-0.2,1,0c0.2,0.1,0.6,0.3,1.2,0.4c0.4,0,0.7,0.1,0.9,0.4c0.1,0.2,0.2,0.3,0.4,0.3
				c0,0,0.1,0,0.2,0c0.1,0.1,0.1,0.1,0.1,0.1c0.1,0.2,0.2,0.4,0.3,0.5c0.2,0.1,0.3,0.2,0.3,0.3c0.4,0.4,0.7,0.9,0.7,1.3v0.1
				c-0.2,0.2-0.3,0.5-0.4,0.9c-0.1,0.4-0.1,0.7-0.2,0.9c0,0.1-0.1,0.1-0.1,0.1c-0.2,0.1-0.2,0.3-0.2,0.6c0,0.5-0.2,0.9-0.6,1.2
				c-0.3,0.2-0.5,0.5-0.5,0.9c0,0.3,0,0.6,0,0.7c0,0.3-0.2,0.6-0.4,0.9c-0.4,0.4-0.7,0.9-0.7,1.3c0,0.4-0.1,0.7-0.4,0.9
				c-0.1,0-0.2,0.1-0.2,0.3l0.1,0.4c0,0.3-0.2,0.6-0.7,0.7c-0.3,0.1-0.4,0.2-0.4,0.4c0,0.1,0.1,0.3,0.3,0.4l0.2,0.2
				c-0.2,0.1-0.3,0.4-0.3,0.6c-0.1,0.3-0.1,0.5-0.2,0.7c-0.2,0.3-0.4,0.7-0.6,1.1c-0.1,0-0.2,0-0.3-0.1c-0.1-0.1-0.2,0-0.2,0.1
				c-0.1,0.1-0.1,0.2,0,0.3c0.1,0.1,0.1,0.1,0.1,0.2v0.3c0,0.3,0,0.5-0.1,0.7c-0.1,0.1-0.1,0.2-0.2,0.3c-0.1,0.1-0.1,0.2-0.2,0.3
				c-0.5,0.6-0.7,1.3-0.7,1.9c0,0.4-0.2,0.6-0.7,0.7c0,0.4,0,0.8-0.1,1c-0.1,0.3-0.2,0.4-0.5,0.6c-0.1,0.1-0.1,0.1-0.1,0.2
				c0,0,0.1,0,0.1,0.1c0,0.1,0,0.3-0.1,0.4l-0.2,0.1v0.1c0,0.1,0,0.2-0.1,0.3c-0.1,0.1-0.1,0.2-0.1,0.3c0,0.2,0.1,0.4,0.2,0.6
				c0.1,0.1,0.3,0.2,0.5,0.1l0.3-0.1c0.3,0,0.6,0.2,0.8,0.5c0.1-0.2,0.3-0.3,0.6-0.3l-0.1-0.1c0-0.3,0.1-0.5,0.2-0.6
				c0.2-0.1,0.3-0.1,0.5,0c0.1-0.2,0.4-0.4,0.7-0.4c0.4,0,0.8,0.2,1,0.7c0.1,0.1,0.2,0.1,0.3,0.1c0.2,0,0.2-0.1,0.2-0.2
				c-0.1-0.1,0-0.3,0-0.6c0.1-0.3,0-0.5-0.1-0.7c0.3,0.1,0.6,0.1,0.9-0.1c0.1,0,0.2-0.1,0.4-0.3c0.2-0.1,0.5-0.2,0.7-0.2
				c0.1,0,0.4-0.1,0.6-0.2c0.3-0.1,0.5-0.2,0.6-0.2c0.1,0,0.2,0,0.4,0c0.2,0,0.4-0.1,0.7-0.2h0.2c0.4-0.5,0.7-0.5,0.7,0.1
				c0,0.1,0,0.1,0.2,0.1c0.1,0,0.1,0,0.1-0.1c-0.1-0.1,0-0.2,0-0.2c0.1,0,0.1-0.1,0.2-0.1c0.1-0.1,0.2-0.2,0.4-0.2
				c0.2,0,0.3-0.1,0.4-0.3c0.1,0,0.1-0.1,0.3-0.1c0.1,0,0.2,0,0.3,0.1c0.2,0.1,0.3,0.1,0.4-0.1c0.2-0.3,0.6-0.4,1.1-0.4
				c0.2,0.1,0.4,0.1,0.4-0.1c0.1,0,0.1,0,0.2,0c0,0.1,0.1,0.1,0.1,0.2c0,0.4,0.2,0.5,0.5,0.2c0,0,0.1-0.1,0.3-0.1
				c0.1,0,0.2-0.1,0.3-0.2c0.1,0,0.2-0.1,0.4-0.2c0.2-0.1,0.3-0.2,0.3-0.4c0,0,0.1,0,0.3-0.1c0.1-0.1,0.2-0.1,0.3,0
				c0,0.1,0.1,0,0.3-0.1c0.1-0.2,0.3-0.3,0.5-0.3c0.2,0,0.3,0,0.4,0c-0.1,0.1-0.1,0.2-0.2,0.3c-0.1,0.1-0.1,0.2-0.1,0.3
				c0,0.1,0.1,0.3,0.4,0.6v-0.1c0-0.1,0.1-0.2,0.2-0.4c0.1-0.1,0.2-0.3,0.2-0.4c0.1,0,0.1,0,0.2,0.1c0,0.1,0.1,0.1,0.2,0
				c0-0.1,0.1-0.2,0.2-0.3c0.1-0.1,0.2-0.3,0.1-0.4c0-0.1,0-0.1,0.1-0.1c0.2,0,0.3,0,0.5-0.1c0.2-0.1,0.3-0.1,0.4-0.2l1-0.3
				c0.2,0,0.4-0.1,0.7-0.2c0.3-0.1,0.6-0.1,0.9-0.1c0,0,0.1-0.1,0.3-0.2c0.2,0.1,0.3,0.1,0.4,0.1c0.3,0,0.5-0.2,0.7-0.7
				c0.8,0,1.6-0.1,2.4-0.2c0.1,0,0.3-0.1,0.3-0.2c0.1-0.1,0.2-0.2,0.3-0.2c0.1,0,0.3-0.1,0.5-0.1c0.2,0,0.4-0.1,0.4-0.3l0.1,0.1
				c0,0,0.1,0,0.3-0.1c0.1,0,0.2,0,0.3,0c0.2,0.1,0.3,0.1,0.4,0.1c0.2,0,0.4-0.1,0.4-0.4c0.1,0,0.3,0.1,0.5,0.3
				c0.1,0,0.3-0.2,0.5-0.4c0.2-0.2,0.5-0.3,0.7-0.2H313.2z M264.6,60.1c-0.1,0.1-0.1,0.2-0.1,0.3c-0.1-0.1-0.2-0.3-0.2-0.7
				C264.6,59.9,264.7,60,264.6,60.1z M273.9,22.3L273.9,22.3C274,22.3,273.9,22.3,273.9,22.3z M274.6,21.2h-0.2
				C274.4,21.1,274.5,21.1,274.6,21.2z M285.8,38C285.8,38,285.8,38,285.8,38C285.8,38,285.8,38,285.8,38
				C285.8,38,285.8,38,285.8,38z"/>
			<path class="st2" d="M338.1,42.5c-0.2,0.1-0.3,0.3-0.6,0.4c-0.3,0.1-0.4,0.3-0.6,0.4c0,0.1,0,0.1-0.1,0.1c-0.1,0-0.1,0,0,0.1
				c0,0.2-0.1,0.4-0.3,0.5c-0.2,0.1-0.4,0.1-0.4,0.2l-0.7,0.6c-0.1,0-0.2,0-0.4,0c-0.2,0-0.3,0.1-0.4,0.2c-0.1,0.1-0.1,0.1-0.1,0.1
				c0,0.1,0,0.1,0,0.1c0,0,0.1,0,0.1,0c0.4-0.1,0.7-0.2,0.9-0.4c0,0.1,0,0.1-0.1,0.3c-0.1,0.1-0.2,0.1-0.3,0c0,0-0.1,0-0.2,0
				c0,0.1,0,0.3-0.1,0.3c-0.1,0.1-0.2,0.1-0.3,0.2c-0.1,0-0.1,0-0.1-0.1c-0.1,0-0.1-0.1-0.2-0.1l-0.1,0.1c0,0.2-0.1,0.4-0.4,0.5
				c-0.1,0.1-0.1,0.1-0.1,0.1c0,0.1-0.1,0.1-0.1,0.1l0.1,0.1c0.1,0,0.2,0,0.3-0.1c0.1-0.1,0.2-0.2,0.3-0.2c-0.1,0.1-0.1,0.1-0.1,0.2
				s0,0.1-0.1,0.2c-0.1,0.1-0.2,0.2-0.3,0.1c-0.3,0-0.5,0.1-0.5,0.3c0,0.1-0.1,0.1-0.1,0.1c-0.1,0-0.1,0-0.1,0.1v0.2
				c-0.2,0.3-0.4,0.4-0.7,0.5c-0.3,0.1-0.6,0.1-0.7,0.2c0,0.1,0,0.1,0.1,0.1c0,0.1,0,0.1,0,0.1c-0.1,0.1-0.2,0-0.4-0.1
				c-0.1,0.1-0.2,0.2-0.4,0.3c-0.2,0.1-0.4,0.2-0.5,0.4c0.1,0,0.2,0,0.4-0.1c0.2,0,0.2,0,0.2,0.2c0.1,0,0.3-0.1,0.5-0.2
				c0.2-0.1,0.3-0.1,0.5-0.1V49c0,0.3-0.1,0.5-0.3,0.7c-0.2,0.2-0.3,0.2-0.5,0.1c0.1,0,0.1-0.2,0.2-0.3c0-0.2,0.1-0.2,0.3-0.2
				c0-0.1,0-0.3-0.1-0.4c-0.1,0.1-0.2,0.3-0.4,0.3c-0.2,0.1-0.3,0.1-0.3,0c-0.1-0.1-0.1-0.2-0.2-0.1c-0.1,0.1-0.1,0.1-0.2,0.1
				c0,0.1,0,0.1,0.1,0.1c0.1,0,0.1,0,0.1,0.1c-0.1,0.1-0.2,0.2-0.3,0.5c-0.1,0.3-0.3,0.4-0.5,0.5c0,0.2,0.1,0.3,0,0.4
				c0,0.1-0.1,0.1-0.2,0c-0.1,0.1-0.3,0.2-0.5,0.3c-0.3,0.2-0.4,0.4-0.5,0.7c0-0.2-0.1-0.3-0.4-0.2c0.1,0.1,0,0.2-0.1,0.2
				c-0.2,0-0.3,0-0.3,0.1c0.1,0.1,0.2,0.1,0.4,0.1c0.1,0,0.2-0.1,0.3-0.1c0,0.4-0.2,0.7-0.4,0.8c-0.3,0.1-0.5,0.2-0.6,0.3
				c-0.1,0.1-0.2,0.1-0.3,0.2c-0.1,0.1-0.1,0.1-0.2,0.2c-0.4,0.3-0.8,0.5-1,0.4v0.4c0.1,0,0.2-0.1,0.4-0.2c0.1-0.1,0.3-0.2,0.4-0.2
				c0,0.1,0.1,0.1,0.2,0.2c0.1,0.1,0.1,0.2,0,0.3h-0.5c-0.1,0.1-0.2,0.3-0.4,0.7c-0.1,0.1-0.2,0.2-0.3,0.2c-0.1,0-0.3,0.1-0.4,0.2
				c0-0.2,0.1-0.3,0.3-0.4c0.2-0.1,0.3-0.2,0.3-0.3c-0.1,0-0.1-0.1-0.2,0c-0.1,0-0.1,0-0.1,0c0,0.1,0,0.1-0.1,0.1v-0.1v-0.1l0.2-0.2
				c-0.1,0-0.2,0-0.3,0.1c-0.1,0.1-0.2,0.2-0.3,0.2c-0.1,0.1-0.2,0.1-0.2,0.1c-0.1-0.2-0.2-0.3-0.3-0.3c-0.2,0-0.3,0-0.3,0
				c0,0,0.1-0.1,0.2-0.1c0.1,0,0.2,0,0.2-0.1c0,0,0-0.1-0.1-0.1c-0.1,0-0.1-0.1-0.1-0.2c0.1,0.1,0.2,0.1,0.3,0.1
				c0.1,0,0.2-0.1,0.3-0.1c0.1,0,0.1-0.1,0-0.1c-0.1,0-0.1-0.1-0.1-0.1c0.1,0,0.1,0,0.2,0c0.1,0,0.1,0,0.2-0.1c0-0.1,0-0.1-0.1-0.1
				c-0.1,0-0.1-0.1-0.3-0.1c-0.1,0.1-0.1,0.1-0.3,0.1c-0.1,0-0.2,0-0.3,0.1c0,0.1,0,0.1,0.1,0.1c0.1,0,0.1,0,0.1,0.1
				c0,0.1-0.1,0.1-0.2,0.1v-0.1c-0.6,0.1-0.9,0.2-1,0.2c-0.1,0-0.1,0-0.1,0.1c0,0.1,0,0.1,0.1,0.1c0.1,0.1,0.2,0.1,0.3,0.2
				c0.1,0.1,0.2,0.1,0.3,0.1c-0.1,0-0.1,0-0.1,0.1c-0.1,0.1-0.1,0.1-0.1,0.1c-0.1,0-0.1,0-0.1-0.1c0,0,0,0-0.1,0
				c-0.1,0.2-0.1,0.3,0.1,0.3c-0.4,0.2-0.6,0.5-0.5,0.9c0.1,0.1,0.2,0.2,0.2,0.3c0.1-0.1,0.2-0.2,0.4-0.4c0.1-0.1,0.3-0.2,0.4-0.3
				c-0.1-0.1-0.1-0.1-0.2-0.1c-0.1,0-0.2,0.1-0.3,0.1l0.4-0.2c0.1-0.1,0.2-0.1,0.2-0.1c0,0,0.1,0,0,0.1c0,0.1,0,0.1,0,0.2
				c0.1,0,0.1-0.1,0.2-0.2c0-0.2,0.1-0.2,0.3,0c0,0.1-0.1,0.1-0.2,0.2c-0.1,0-0.1,0.1,0,0.1h0.1c0,0,0.1,0,0.1-0.1h0.1h0.1
				c0,0.2-0.1,0.4-0.1,0.4c-0.1,0.1-0.2,0.1-0.3,0.2c-0.1,0.1-0.2,0.2-0.3,0.2c-0.1,0-0.2,0-0.3,0.1c-0.1,0.1-0.3,0.1-0.4,0
				c0,0-0.1,0-0.1,0.1c0,0.1,0,0.1,0.1,0.2c0.1,0.1,0.1,0.1,0.1,0.2l-0.7,0.6h-0.2c-0.1-0.1,0-0.2,0.1-0.3c0.1-0.1,0.2-0.2,0.3-0.4
				c0-0.1,0.1-0.3,0.1-0.4c-0.2,0.1-0.3,0.2-0.6,0.3c-0.3,0.1-0.4,0.2-0.4,0.4c0,0.1,0,0.1,0.1,0.1c0,0,0.1,0,0.1,0.1
				c0.1,0.1,0.1,0.2,0,0.2c-0.1,0.2-0.2,0.4-0.5,0.7c-0.1,0.1-0.1,0.1-0.1,0.1c0,0.1,0,0.1,0.1,0.1c0.1,0.1,0.2,0.1,0.3,0
				c0.2-0.1,0.2-0.1,0.3,0c-0.1,0.1-0.1,0.1-0.2,0.3c-0.1,0.1-0.1,0.2,0,0.3c-0.1,0.1-0.2,0.1-0.2,0c-0.1,0-0.1,0-0.2,0
				c0.1,0,0.1,0.1,0.2,0.2c0,0.1,0.1,0.1,0.3,0c0-0.1,0-0.1,0-0.1c0,0,0-0.1,0-0.1c0-0.1,0.2-0.2,0.4-0.2c0,0.1,0,0.1,0,0.3
				c0,0.1-0.1,0.3-0.2,0.4h-0.1c-0.1,0-0.2,0-0.3,0c-0.1,0-0.3,0-0.4-0.1c-0.1,0.1-0.2,0.3-0.2,0.6c0,0.3-0.1,0.4-0.3,0.5
				c0,0.2-0.1,0.4-0.4,0.7c-0.3,0.2-0.5,0.4-0.5,0.6c0,0.1-0.1,0.2-0.1,0.1c-0.3,0-0.4,0.1-0.4,0.4c0,0.1,0,0.1,0.1,0
				c0.1,0,0.1,0,0.2,0.1c-0.1,0-0.1,0-0.2,0c-0.1,0-0.1,0.1,0,0.2c-0.2-0.2-0.4-0.3-0.6-0.3c-0.1,0-0.2,0-0.2,0.1
				c0,0.1-0.1,0.1-0.1,0.1c-0.1,0-0.1,0-0.3,0c-0.1,0-0.2-0.1-0.3-0.3c-0.1,0.2-0.2,0.4-0.2,0.6v0.4c0,0.5-0.1,0.8-0.3,1
				c-0.2,0.3-0.2,0.5-0.1,0.7c-0.1,0-0.1,0-0.3,0c-0.1,0-0.1,0.1,0,0.3l-0.1,0.1c-0.1,0.1-0.2,0.3-0.4,0.6c-0.1,0.3-0.3,0.5-0.4,0.6
				c-0.1,0.1-0.1,0.2-0.1,0.4c-0.1,0-0.2,0.1-0.4,0.2c-0.3,0.5-0.7,0.9-1.2,1.2l-0.7,0.2l-0.2-0.1c-0.2-0.2-0.5-0.2-0.8-0.2
				c-0.2,0-0.4,0.1-0.7,0.2l-0.2-0.2c0-0.1,0-0.2-0.1-0.3c-0.1,0-0.2,0-0.3,0.1c-0.1,0.1-0.3,0-0.5-0.2c-0.3-0.2-0.4-0.3-0.4-0.4
				c-0.1-0.3-0.2-0.6-0.5-0.7c-0.3-0.2-0.6-0.6-0.9-1.2c-0.3-0.6-0.6-1.3-1.1-1.9c0-0.1-0.1-0.2-0.2-0.3c-0.2-0.1-0.4-0.4-0.4-0.7
				c0-0.2,0-0.3-0.1-0.4c-0.1-0.2-0.1-0.4,0.1-0.5v-0.1c0.1-0.5,0.2-0.9,0.3-1.3c0.1-0.4,0.2-0.7,0.3-0.9c0.1-0.4,0.3-0.9,0.4-1.6
				c0.2-0.6,0.3-1.2,0.4-1.6c0.1-0.2,0.1-0.6,0.2-1c0-0.4,0.1-0.7,0.2-1c0.1-0.2,0.1-0.5,0.2-0.7c0-0.2,0.1-0.5,0.1-0.7l-0.3-0.1
				v0.1c0,0.3-0.2,0.6-0.7,0.9l-0.2,0.2c-0.1,0.3-0.2,0.5-0.4,0.7c-0.2,0.2-0.4,0.3-0.5,0.4c-0.1,0.1-0.1,0.2-0.1,0.4v0.2l-0.1,0.1
				c-0.2-0.1-0.3-0.2-0.2-0.4c-0.1,0.1-0.1,0.2-0.1,0.3c0,0.1,0.1,0.2,0.3,0.3c-0.1,0.1-0.1,0.1-0.3,0c-0.1,0-0.2,0-0.3,0.2
				c-0.1,0-0.1-0.1-0.3-0.2c-0.1-0.1-0.1-0.2,0-0.3h0.1c0.1,0,0.2-0.1,0.2-0.2v-0.1c-0.1-0.2,0-0.2,0.2-0.2c-0.2-0.1-0.3-0.1-0.4,0
				c-0.3,0.3-0.4,0.5-0.6,0.5c0,0.1,0.1,0.3,0.2,0.4c0.2,0.2,0.2,0.3,0.2,0.4c0.2,0.1,0.3,0.2,0.3,0.5c0,0.1,0.1,0.1,0.2,0.1
				c-0.2,0.1-0.3,0.1-0.4,0c-0.1,0-0.1-0.1-0.1-0.3c0-0.2,0-0.2-0.1-0.3v0.1c-0.1,0-0.2,0-0.2,0.1c-0.1,0.2-0.1,0.3-0.1,0.4
				c-0.1,0.2-0.2,0.3-0.4,0.4c-0.2,0.1-0.3,0.1-0.4,0.1c-0.1,0.1-0.1,0.1-0.2,0.2c-0.1,0.1-0.1,0.2,0,0.3l-0.3,0.1
				c0,0.2,0,0.3,0.1,0.4c-0.1,0.3-0.2,0.4-0.3,0.5c0,0.1,0,0.2,0.2,0.4c0,0.1,0,0.1-0.1,0.2c-0.1,0.1-0.1,0.1-0.2,0.1
				c-0.1-0.1-0.1-0.3-0.1-0.5c-0.1,0-0.2,0.1-0.2,0.1c0,0.1,0,0.2-0.1,0.2l-0.3-0.1c-0.1,0-0.2,0.2-0.3,0.5c-0.1,0-0.3,0-0.5,0.1
				c0,0.1,0.1,0.2,0.2,0.3c0.2,0.1,0.2,0.2,0.2,0.3V61c-0.1,0.2-0.2,0.3-0.2,0.4c-0.1,0-0.2-0.1-0.1-0.3c0-0.1,0-0.2,0-0.3l-0.5,0.8
				c-0.1,0.1-0.1,0.1-0.2,0.2c-0.1,0.1-0.1,0.2-0.1,0.3c0,0.1,0,0.1-0.1,0.3c-0.1,0.1-0.1,0.2,0,0.3c0,0.1,0,0.1,0,0.2
				c-0.1,0.1-0.1,0.1-0.1,0.1c-0.1,0-0.1,0.1-0.2,0.4c0.2,0.1,0.3,0.2,0.3,0.3c0,0.1-0.1,0.2-0.3,0.4c0,0.1,0,0.1-0.1,0.2
				c-0.1,0.1-0.1,0.1-0.2,0.2c-0.1-0.1,0-0.2,0-0.3c0.1-0.1,0.1-0.2,0.1-0.2c-0.1-0.1-0.1-0.2-0.1-0.3c0-0.1-0.1-0.1-0.3-0.1
				c0.2-0.2,0.3-0.4,0.2-0.6c0,0,0.1,0,0.2,0c0.1,0,0.1,0,0.1-0.2c0-0.1-0.1-0.1-0.2-0.1c-0.1,0.1-0.1,0.1-0.1,0
				c-0.1,0-0.1-0.1-0.2-0.1c-0.1-0.1-0.3,0-0.4,0.1c-0.1,0.1,0,0.2,0,0.2c0.1,0.1,0.1,0.1,0.2,0.1c-0.1,0.1-0.1,0.1-0.2,0.1
				c-0.1,0-0.1,0-0.1,0.1c0,0.1,0,0.1,0,0.2c0,0.1,0,0.2,0,0.3c-0.1,0.1-0.1,0.1,0,0.1c0.1,0.1,0.2,0.2,0.1,0.3
				c-0.1,0.1-0.1,0.2-0.2,0.3c-0.2,0.3-0.1,0.5,0.3,0.6c-0.3,0.4-0.6,0.7-0.7,0.8c0.2-0.3,0.2-0.7,0-1c-0.3,0.3-0.6,0.4-0.8,0.4
				c0.1,0.1,0.1,0.2,0,0.3c-0.1,0.1-0.2,0.2-0.2,0.2v0.2c0,0.2-0.2,0.4-0.5,0.7c-0.2,0.1-0.4,0.3-0.5,0.7c-0.2,0.2-0.2,0.4-0.1,0.5
				c0,0.1,0,0.1-0.1,0.2c-0.1,0.1-0.2,0.2-0.3,0.2c-0.3,0-0.6-0.1-0.8-0.2c-0.1,0-0.2,0-0.4,0c0.1-0.1,0.1-0.2,0-0.3
				c-0.1,0-0.2-0.1-0.3-0.1c-0.1,0-0.1,0-0.2,0c-0.1,0-0.2,0-0.2,0c0,0.1-0.1,0.1-0.3,0.2c-0.2,0.1-0.3,0.2-0.3,0.3
				c-0.1,0-0.1,0-0.1-0.1c0-0.1,0-0.1-0.1,0c-0.1,0.1,0.1,0.2,0.4,0.4c-0.1,0.1-0.3,0.1-0.4,0c-0.1,0-0.2,0-0.3,0l-0.3,0.1
				c-0.1,0-0.3-0.1-0.5-0.4v-0.1c0.1,0,0.2,0,0.2-0.1v-0.1c0,0-0.1-0.1-0.2-0.1c-0.1,0-0.2,0.1-0.2,0.1c-0.1,0.1,0,0.2,0.1,0.2
				l-0.2,0.1c-0.2,0.2-0.3,0.3-0.4,0.3c-0.1,0-0.2-0.1-0.3-0.4l-0.1-0.4c-0.1-0.1-0.2-0.2-0.5-0.2c0.1,0.1,0.2,0.2,0.3,0.4
				c-0.2,0.1-0.3,0.1-0.4-0.1c-0.1-0.2-0.3-0.3-0.5-0.2c-0.2,0-0.3,0-0.4-0.1c-0.2-0.2-0.3-0.3-0.4-0.3c-0.1-0.1-0.3-0.1-0.4-0.2
				c-0.2-0.3-0.4-0.6-0.4-0.9c0-0.1,0-0.2-0.1-0.4c-0.1-0.2-0.1-0.3-0.2-0.5c-0.4-0.6-0.5-1.3-0.4-2.1v-0.2l-0.1-0.7
				c0.1-0.1,0.2-0.3,0.2-0.5c0-0.2,0.1-0.4,0.2-0.5c0.1-0.1,0.1-0.2,0.1-0.3c-0.1-0.1-0.1-0.1-0.2-0.1c-0.2,0-0.3,0-0.3-0.1l0.3-0.6
				c0.1-0.2,0.1-0.3,0-0.6c-0.2-0.2-0.2-0.4-0.2-0.7c0.1,0,0.1,0,0.1-0.1v-0.2c0-0.2,0.1-0.3,0.4-0.4c0,0,0-0.1,0-0.2
				c0,0,0-0.1,0-0.1c0,0,0-0.1,0-0.1c0,0,0,0,0,0.1c0.1,0.1,0.1,0.1,0.1,0.1c0,0.1,0,0.1,0,0.2c0.2,0.2,0.4,0.2,0.7-0.1
				c0.1-0.1,0.1-0.2,0-0.3c-0.1-0.1-0.1-0.1-0.1-0.2c0,0,0-0.1-0.1-0.2c-0.1-0.1,0-0.2,0.2-0.2c0-0.1,0.1-0.1,0.1-0.2
				c-0.1-0.1-0.1-0.2,0-0.4c0-0.1,0-0.3,0-0.4v-0.3c-0.2,0-0.3-0.2-0.4-0.3c-0.1-0.2-0.1-0.3,0-0.4c0-0.1,0.1-0.2,0.1-0.4
				c0-0.2,0.1-0.3,0.2-0.4c0.1-0.2,0.2-0.4,0.1-0.6c0-0.2,0.1-0.4,0.2-0.5c0,0,0.1-0.1,0.1-0.2c0-0.1,0-0.1,0.1-0.2h0.2v-0.2
				l0.1-0.7c0,0,0-0.1,0-0.1c0,0,0-0.1,0-0.1c0.1,0,0.3-0.2,0.4-0.4c0.1-0.2,0.1-0.4,0.1-0.6c0.1,0.1,0.2,0.1,0.2,0.1l0.2,0.1v0.1
				c0,0,0.1,0,0.1,0.1c0.1-0.2,0.3-0.6,0.4-1.1c-0.2,0.1-0.3,0.1-0.4,0.2c-0.1,0.1-0.2,0.1-0.3,0.1c-0.1,0-0.1-0.1-0.1-0.2
				c0.1-0.2,0.2-0.4,0.1-0.6c0-0.1,0.1-0.2,0.2-0.3c0,0,0.1-0.1,0-0.1c0,0,0-0.1,0-0.1c0-0.1,0.1-0.4,0.2-0.7
				c0.1-0.3,0.2-0.6,0.3-0.8c0.2,0.2,0.4,0.2,0.9,0.1c0-0.3-0.2-0.5-0.7-0.6c0-0.1,0.1-0.2,0-0.3c0-0.1,0-0.2,0-0.2
				c0.1,0,0.1-0.1,0.2,0c0,0,0.1,0,0.1,0c0.1-0.1,0.1-0.2,0-0.2c-0.1-0.1-0.1-0.2,0-0.4c0-0.1,0.1-0.3,0.2-0.6
				c0-0.2,0.1-0.4,0.1-0.5c0,0,0.1-0.1,0.2-0.1c0.3,0,0.5-0.1,0.5-0.4c-0.2,0-0.2-0.1-0.1-0.4c0-0.1,0-0.2,0-0.3
				c-0.1-0.2-0.1-0.4-0.1-0.4c0,0,0.1-0.1,0.3-0.1v-0.1c0-0.3,0.1-0.6,0.2-0.9c0.2-0.3,0.2-0.6,0.3-0.8c0,0,0.1,0,0.1,0
				c0,0.1,0.1,0.1,0.1,0.1c0-0.1,0.1-0.4,0.2-1c0,0,0.1,0,0.1,0.1c0,0.1,0.1,0.1,0.2,0c0.1-0.2,0-0.3-0.3-0.3
				c0.1-0.4,0.2-0.7,0.3-0.8c0.1-0.2,0.1-0.4,0.1-0.5c0,0,0-0.1,0.1-0.3c0.1-0.1,0.2-0.2,0.4-0.2l0.1-0.1c-0.2-0.2-0.1-0.3,0.1-0.4
				c0,0,0.1,0,0.1-0.1c-0.1-0.1-0.1-0.2-0.1-0.4s0.1-0.5,0.4-1c0.3-0.5,0.5-0.9,0.5-1.1c0-0.1,0.1-0.3,0.2-0.6
				c0.1-0.3,0.2-0.6,0.4-0.8c0.2,0,0.6,0,1.1-0.1c0.5-0.1,0.9-0.1,1.1-0.1c0.7,0,1.3,0.1,1.8,0.4l0.1,0.1c0.2,0.1,0.4,0.3,0.6,0.5
				c0.1,0.2,0.3,0.4,0.3,0.6c0.1,0.2,0.1,0.3,0.1,0.3c0.1,0.3,0.2,0.5,0.2,0.7c0,0.2-0.1,0.5-0.2,0.8c-0.1,0.2-0.2,0.4-0.2,0.6
				c0,0.2,0,0.4,0,0.6c-0.1,0.3-0.1,0.6-0.1,0.8l-0.2,0.7c0,0.1-0.1,0.2-0.1,0.2c-0.2,0.1-0.2,0.3-0.1,0.4c0.1,0.1,0,0.4-0.1,0.7
				c-0.1,0.3-0.2,0.6-0.2,1c-0.1,0.1-0.1,0.3-0.2,0.6c-0.1,0.2-0.1,0.4-0.1,0.6v0.2c0,0.3-0.1,0.5-0.3,0.5l0.1,0.3
				c-0.1,0.1-0.1,0.1-0.2,0c-0.1,0-0.1,0-0.1,0c-0.1,0.1-0.1,0.2,0,0.3c0.1,0.1,0.1,0.2,0.1,0.3c-0.2,0.2-0.3,0.4-0.3,0.7
				c0,0.2,0,0.4,0.1,0.6c-0.2,0.1-0.2,0.2-0.2,0.4c0,0.2,0,0.3,0,0.4c0,0.1,0,0.2-0.1,0.3c-0.1,0.1,0,0.2,0.1,0.3
				c0,0.1,0,0.2-0.1,0.4c-0.3,0.2-0.3,0.5-0.2,0.8c0,0.1,0.1,0.2,0.1,0.4c0,0.3-0.1,0.6-0.3,0.8c0,0.1,0,0.1,0,0.2
				c0,0.1-0.1,0.2-0.2,0.2c0,0.1,0.1,0.1,0.1,0.3c0,0.1,0.2,0.2,0.3,0.1c-0.1,0.2-0.2,0.4-0.2,0.6c0,0.2,0,0.4,0,0.4
				c0,0.1-0.1,0.3-0.2,0.4c-0.1,0.2-0.2,0.4-0.1,0.5c0.1,0,0.1-0.1,0.1-0.1c0,0,0.1,0,0.1,0c0,0.1,0,0.3-0.1,0.4
				c-0.1,0.2,0,0.3,0.1,0.4c-0.2,0.1-0.3,0.2-0.4,0.4c0,0.1,0,0.1,0.1,0.1c0.1-0.1,0.4-0.2,0.7-0.4c0.3-0.2,0.5-0.4,0.7-0.7
				c0.3-0.6,0.7-1,1.1-1.3c0.1-0.1,0.3-0.3,0.6-0.5c0.2-0.2,0.4-0.4,0.5-0.6c0.2-0.3,0.5-0.7,0.9-1.1c0.4-0.4,0.6-0.7,0.8-0.9
				c0.1,0,0.2,0,0.2-0.1c0-0.2,0.2-0.4,0.3-0.5c0.2-0.1,0.3-0.2,0.3-0.3c0.3-0.2,0.5-0.4,0.7-0.6c0.2-0.2,0.4-0.4,0.6-0.6l0.4-0.4
				c0.2,0.1,0.4,0,0.6-0.2c0.1-0.1,0.4-0.4,0.7-0.8c0-0.1,0.3-0.4,0.8-0.9c0.5-0.4,0.8-0.7,1-1l1.3-1.1c0.2-0.1,0.2-0.3,0.2-0.4
				c0.2-0.9,0.8-3,1.7-6.4c0.1-0.3,0.2-0.9,0.3-1.6c0.1-0.4,0.3-0.7,0.6-0.8c0.2-0.1,0.4-0.2,0.6-0.4c0.3-0.2,0.5-0.3,0.8-0.3
				c0.2,0,0.7-0.2,1.2-0.3c0.6-0.2,1.1-0.3,1.5-0.3c0.1,0,0.3,0,0.6,0c0.2,0,0.5,0,0.7,0c0.4,0,0.7,0,0.8,0.1
				c0.1,0.1,0.2,0.1,0.4,0.1c0.2,0,0.3,0,0.4,0c0,0.1,0,0.3,0.1,0.4c0,0.1,0.2,0.2,0.4,0.1c0,0,0.1,0.1,0.2,0.1c0,0.1,0,0.2,0,0.3
				c-0.1,0.1-0.1,0.2-0.1,0.4c0,0.1,0.1,0.4,0.2,0.7c0.1,0.2,0.1,0.4,0,0.6c-0.1,0.1-0.2,0.1-0.2,0.3c0,0.1,0,0.3,0,0.4
				c0,0.1,0,0.1,0,0.2c0,0.1,0,0.1-0.1,0.2c-0.1,0.1-0.1,0.1-0.1,0.2c0,0.1,0,0.1,0,0.2c0,0.1,0,0.1,0.1,0.2c0.1,0.1,0,0.2-0.3,0.3
				c-0.1,0.1-0.1,0.2-0.1,0.2c0.1,0.2,0.2,0.4,0.2,0.5c-0.1,0.1-0.1,0.1-0.2,0c-0.1,0-0.1,0-0.2,0c-0.1,0.1,0,0.3,0.1,0.3
				c0.1,0.1,0.2,0.1,0.2,0.2c-0.1,0.2-0.3,0.3-0.4,0.2c0,0.1,0.1,0.2,0.2,0.2c0.1,0.1,0.2,0.1,0.2,0.1c0,0.1-0.1,0.1-0.1,0.3
				c-0.1,0.1-0.1,0.2,0.1,0.3l-0.4,0.6c-0.2,0.6-0.2,0.9-0.2,1c0,0.2,0.1,0.4,0,0.5c0,0.1,0,0.3,0,0.4v0.1c-0.2,0.1-0.3,0.2-0.3,0.4
				c0,0.2,0,0.3,0,0.4c-0.1,0.1-0.1,0.1,0,0.2c0,0.1,0.1,0.2,0.1,0.3c0,0.2,0,0.4-0.1,0.5v0.3c-0.2,0.1-0.3,0.1-0.3,0.2
				c0,0.1,0,0.2,0.1,0.5c-0.1,0-0.1,0-0.2,0s-0.2,0.1-0.2,0.2c0,0.1,0.1,0.1,0.2,0c0.1,0,0.1,0,0.2,0.1c-0.1,0.1-0.1,0.1-0.2,0.2
				c-0.1,0.1-0.1,0.2,0.2,0.4c0,0.2,0,0.3-0.1,0.4c-0.1,0.1-0.2,0.1-0.2,0.3c0,0.1,0,0.2,0,0.3c-0.1,0.2-0.2,0.4-0.4,0.4
				c-0.1,0.1-0.1,0.1-0.1,0.1c0,0.1-0.1,0.1-0.1,0.1c0.1,0.1,0.2,0.1,0.3,0.1c0.1,0,0.1-0.1,0.2-0.1l-0.1,0.3c0,0.1,0,0.1,0.1,0.1
				c0,0.1,0,0.1,0,0.1c-0.1,0-0.2,0-0.3,0.1c-0.1,0.1-0.2,0.2-0.3,0.2c0,0.1,0,0.1,0.1,0.1c0.1,0.1,0.1,0.1,0,0.1c0.1,0,0.1,0,0.2,0
				c0.1,0,0.1,0,0.2,0c-0.3,0.1-0.3,0.3-0.1,0.5l-0.2,0.1c-0.1,0-0.1,0-0.2,0c-0.1,0-0.2,0.1-0.3,0.3h0.4c0.2,0,0.4,0,0.6-0.1
				c0,0.1,0,0.2-0.1,0.4l-0.4,0.7c-0.1,0.3-0.3,0.4-0.5,0.3c-0.1,0-0.1,0-0.2,0.1c0,0.1,0,0.1,0.1,0.1s0.1,0.1,0.1,0.1
				c0,0.3,0.1,0.3,0.2,0.3c0.1,0,0.1,0,0.2,0.1c0.1,0.1,0.1,0.1,0.2,0.1c-0.1,0.1-0.1,0.1-0.2,0.2c-0.1,0.1-0.2,0.1-0.3,0.1
				c-0.1,0-0.1,0.1-0.1,0.3c0,0.1,0,0.1,0,0.2c0,0.1,0,0.2,0,0.3c-0.1,0.1-0.2,0.1-0.3,0c-0.1,0-0.1,0-0.2,0c0,0.1-0.1,0.1-0.1,0.3
				c-0.1,0.1-0.1,0.3-0.1,0.4c0.1-0.1,0.2-0.2,0.4-0.3c0.2-0.1,0.3-0.1,0.4-0.2l-0.4,1.5c0,0.1,0,0.1-0.1,0.2
				c-0.1,0.1-0.1,0.1,0,0.2c0,0.1,0.1,0,0.3-0.1c0.5-0.5,1.4-1.2,2.6-1.9c0.2-0.1,0.4-0.3,0.7-0.4c0.2-0.1,0.5-0.3,0.8-0.6
				c0.9-0.6,1.4-1,1.5-1c0.2-0.2,1.3-0.9,3.3-2c1.2-0.8,3-1.8,5.5-3.1c0.4-0.2,0.8-0.4,1.3-0.7c0.5-0.3,1.1-0.6,1.7-0.9L338.1,42.5z
				 M299.9,66.2c0.1,0,0.2,0,0.3-0.1c0,0.1,0,0.2-0.1,0.2c-0.1,0-0.1,0-0.2,0c-0.1,0.1-0.1,0.1-0.1,0.2s0,0.1-0.1,0.2
				c-0.1,0-0.2-0.2-0.2-0.4C299.7,66.3,299.8,66.2,299.9,66.2z M304.7,59.9c0,0,0.1,0.1,0.2,0.2c0.1,0.1,0.2,0.3,0.1,0.5
				c-0.1,0-0.2-0.1-0.4-0.3c-0.1-0.1-0.3-0.2-0.4-0.1L304.7,59.9C304.7,59.9,304.7,59.9,304.7,59.9z M307.7,56
				C307.7,56,307.6,56,307.7,56c-0.1,0-0.2,0-0.2-0.1l0.1-0.2L307.7,56C307.7,56,307.7,56,307.7,56z M319.1,63.1
				c0-0.1-0.1-0.1-0.2-0.1c-0.1,0.1-0.2,0.1-0.2,0c0.1-0.1,0.1-0.1,0.1-0.2c-0.1,0-0.1-0.1-0.1-0.1
				C318.9,62.8,319.1,62.9,319.1,63.1z M319.8,51.6C319.8,51.6,319.7,51.6,319.8,51.6L319.8,51.6L319.8,51.6
				C319.8,51.5,319.8,51.6,319.8,51.6z M323,58.1c0,0-0.1,0-0.2-0.2c0.1-0.1,0.2-0.2,0.4-0.1C323.1,58,323,58.1,323,58.1z
				 M324.2,57.6c-0.1,0.3-0.3,0.5-0.6,0.5c-0.1,0.1-0.3,0.2-0.4,0.4c-0.1,0.1-0.1,0.1-0.1,0.1c-0.1,0-0.1,0-0.2-0.1
				c0.2,0,0.3-0.2,0.5-0.3c0.2-0.2,0.3-0.3,0.4-0.4C323.9,57.6,324,57.6,324.2,57.6z M323.9,57c0.1,0,0.2,0,0.2-0.1
				c0-0.1,0.1-0.1,0.2-0.2c-0.1,0.3-0.1,0.6-0.2,0.6c-0.1,0.1-0.3,0.1-0.5,0C323.6,57.2,323.7,57,323.9,57z M324.9,57.1
				c0-0.2,0.1-0.3,0.2-0.4c0.2-0.1,0.3-0.1,0.4-0.2l-0.4,0.7L324.9,57.1L324.9,57.1z M325.3,54.9L325.3,54.9L325.3,54.9L325.3,54.9z
				 M326.5,55.9c-0.1,0.2-0.2,0.3-0.3,0.4C326.1,56.1,326.2,56,326.5,55.9z M326.6,55.5c0,0,0.1,0,0.3,0l-0.3,0.3
				C326.6,55.6,326.6,55.5,326.6,55.5z M326.9,54.8c0.1,0,0.2,0.1,0.4,0.1c-0.3,0.1-0.5,0.1-0.7,0.1
				C326.8,54.9,326.8,54.8,326.9,54.8z M327.6,53.4c0.1,0.1,0.1,0.1,0.2,0.1c0,0.1,0,0.1-0.2,0.2c-0.2,0.2-0.4,0.2-0.6,0
				c0-0.1,0.1-0.2,0.2-0.2c0.1,0,0.2-0.1,0.3-0.1C327.5,53.4,327.6,53.4,327.6,53.4z M329.1,52.4c0-0.1,0.1-0.2,0.3-0.2
				c0,0.1,0,0.1,0,0.3c0,0.1-0.1,0.2-0.3,0.2C329,52.6,329,52.5,329.1,52.4z M329.6,51.2c0.1,0,0.2-0.1,0.4-0.1l-0.2,0.4
				C329.6,51.5,329.6,51.4,329.6,51.2z M330.2,51.5c0.1,0.1,0.2,0.1,0.3,0.1c-0.1,0-0.1,0-0.2,0c-0.1,0-0.1,0.1-0.1,0.2
				c-0.2-0.1-0.2-0.2-0.2-0.2C330.1,51.5,330.1,51.4,330.2,51.5z"/>
			<path class="st2" d="M354.7,34.4c-0.1,0.3-0.2,0.6-0.2,0.9c0,0.4-0.1,0.7-0.3,0.9c-0.1,0.1-0.2,0.3-0.3,0.5
				c0,0.5-0.1,0.8-0.4,0.9c-0.2,0-0.3,0.2-0.4,0.5l-0.2,0.5c-0.1,0.1-0.2,0.1-0.3,0c-0.1,0-0.2,0-0.3,0c-0.1,0.1-0.1,0.2-0.1,0.4
				c-0.1,0.6-0.4,1.1-0.9,1.3c-0.1,0.1-0.2,0.2-0.4,0.4c-0.1,0.3-0.3,0.4-0.4,0.4c-0.2-0.2-0.4-0.3-0.7-0.3c-0.3,0-0.6,0.1-0.7,0.4
				c-0.1,0.1-0.2,0.3-0.5,0.6c-0.3,0.3-0.6,0.6-0.9,0.7c-0.1,0.1-0.1,0.2-0.1,0.3c0,0.1-0.1,0.2-0.1,0.2c-0.1,0.1-0.3,0.1-0.4,0.1
				l-0.2-0.1l-0.2-0.1c-0.1,0.1-0.1,0.3-0.2,0.5c-0.1,0.2-0.2,0.4-0.4,0.4c-0.3-0.1-0.5-0.3-0.7-0.6c-0.2-0.3-0.3-0.6-0.4-0.7
				c-0.2-0.3-0.4-0.7-0.5-0.9c-0.1-0.3-0.3-0.5-0.4-0.7c-0.1,0.1-0.2,0.1-0.4,0.1c-0.2,0-0.3-0.1-0.4-0.3c-0.2-0.2-0.3-0.3-0.4-0.4
				c-0.1,0.1-0.2,0.2-0.2,0.3c0,0.1,0,0.2,0,0.3c-0.3,0.1-0.5,0.2-0.5,0.3c-0.1,0.1-0.1,0.2-0.2,0.3s-0.1,0.3-0.1,0.3
				c-0.1,0.2-0.2,0.5-0.4,0.9c-0.1,0.2-0.3,0.6-0.4,1.1c0.2,0,0.4-0.2,0.6-0.4c0.1-0.2,0.3-0.3,0.4-0.4c0,0.1,0,0.2-0.1,0.4
				c-0.2,0.2-0.2,0.5-0.1,0.9c0,0.1,0,0.3-0.2,0.4c-0.4-0.4-1-0.6-1.7-0.6l-0.1,0.3c0,0.1,0,0.2,0.1,0.3c0.1,0.1,0.2,0.2,0.2,0.2
				c-0.1,0.1-0.1,0.3-0.2,0.5c-0.1,0.2-0.2,0.4-0.3,0.6c-0.1,0.1-0.1,0.2-0.1,0.4l0.1,0.4c0,0.2-0.1,0.4-0.3,0.6
				c0,0.1,0.1,0.1,0.1,0.3l0.6-1V47c0,0.1,0.1,0.3,0.2,0.4c0.2,0.1,0.2,0.2,0.2,0.3c-0.1,0.3-0.3,0.5-0.7,0.8
				c-0.1,0.1-0.2,0.3-0.2,0.5c0,0.1,0,0.2,0,0.4c0,0.2-0.1,0.3-0.2,0.4c-0.1,0.1-0.1,0.2,0,0.3c0.2,0.1,0.3,0.3,0.1,0.6
				c-0.1,0.2-0.1,0.3,0,0.4c0.1,0.1,0.2,0.1,0.3,0.1c0.1,0.2,0.1,0.4,0,0.5c-0.1,0-0.1-0.1-0.1-0.3v-0.1h-0.2l-0.5,0.1l-0.1,0.1
				c-0.1,0.1-0.2,0.3-0.4,0.7c0,0.1,0.2,0.3,0.4,0.3c0.2,0.1,0.4,0.1,0.5,0.2c-0.1,0.1-0.1,0.1-0.2,0.3c-0.1,0.1-0.2,0.2-0.4,0.1
				c-0.1,0-0.1,0-0.2,0c-0.1,0-0.1,0.1,0,0.1c0,0.1-0.1,0.2-0.2,0.3c-0.1,0-0.2,0.1-0.3,0.1c0,0.3,0,0.5,0.1,0.8
				c0,0.1,0.1,0.1,0.2,0c0.1,0,0.2-0.1,0.2-0.1c0,0.1,0,0.1,0.1,0.2c0,0.1,0,0.1-0.2,0.1c-0.1,0-0.1,0.1-0.1,0.2
				c0,0.1,0,0.2-0.1,0.3c-0.2,0.1-0.3,0.2-0.2,0.4c0,0.1,0,0.2-0.1,0.2c-0.1,0-0.1,0.1-0.1,0.2c-0.1,0.1-0.1,0.3-0.3,0.5
				s-0.2,0.4-0.1,0.5c0,0.1,0,0.2,0,0.4c-0.2,0.2-0.3,0.5-0.3,0.9c0,0.4,0,0.6,0,0.8c0,0.1,0.1,0.2,0.2,0.2c0.1,0.1,0.2,0.1,0.2,0.1
				c-0.1,0.1-0.3,0.3-0.3,0.6c-0.1,0.3-0.2,0.5-0.3,0.6c-0.1,0-0.1,0-0.1,0.1c0.1,0.2,0.2,0.4,0.2,0.6c0,0.2-0.1,0.3-0.2,0.6
				c-0.1,0.2-0.1,0.3-0.1,0.5c0,0.2-0.1,0.4-0.2,0.5c-0.1,0.1,0,0.4,0.1,0.7c0.1,0.2,0.1,0.5,0.2,0.8c0,0.3,0.1,0.6,0.1,0.7
				c0,0.1,0,0.2,0.1,0.3c0.1,0.1,0.1,0.1,0.2,0.2c-0.1,0.1-0.2,0.2-0.4,0.3c-0.2,0.1-0.2,0.2-0.2,0.3c0,0.1,0,0.4-0.1,0.8
				c-0.4,0.1-0.6,0.3-0.7,0.5c-0.1,0-0.4,0.1-0.7,0.2c-0.3,0.1-0.7,0.1-1-0.1l-0.8-0.1h-0.1c-0.1,0-0.2,0-0.4,0.1
				c-0.2,0.1-0.3,0-0.4-0.1c-0.1-0.1-0.3-0.2-0.4-0.2c-0.2,0-0.3-0.1-0.4-0.1c-0.1-0.1-0.2-0.2-0.3-0.3c-0.2-0.1-0.3-0.2-0.3-0.3
				c-0.2,0-0.4-0.1-0.5-0.2c-0.2-0.1-0.3-0.2-0.4-0.2c-0.1-0.1-0.2-0.2-0.3-0.4c-0.1,0.1-0.2,0.1-0.4,0.1c-0.3,0-0.6-0.2-1-0.7
				c-0.2-0.3-0.4-0.4-0.7-0.4c-0.3-0.1-0.6-0.3-0.7-0.7c-0.1-0.2-0.1-0.3-0.1-0.6c0-0.5,0.1-1,0.4-1.5c0.3-0.7,0.5-1.3,0.5-1.9
				c-0.1-1.3,0-2.8,0.2-4.3c0.2-1.5,0.4-3,0.6-4.4c0.2-1.5,0.6-3.4,1-5.7c0.3-1.9,0.8-4,1.3-6.1c0.3-1.6,0.7-3,1.2-4.2
				c0.2-0.6,0.2-1,0.2-1.3c0-0.1,0.1-0.3,0.2-0.4c0.4-0.3,0.7-0.7,0.7-1c0-0.1,0.1-0.2,0.3-0.4c0.4-0.3,1.1-0.5,2-0.7l0.4,0.1
				c0.3,0.1,0.7,0.4,0.9,0.6c0.3,0.3,0.4,0.4,0.5,0.5c0.5,0.4,0.9,0.9,1.1,1.6c0,0.1,0,0.3,0.1,0.5c0.1,0.2,0.1,0.5,0.1,0.7
				c0.2,0,0.3-0.1,0.5-0.3c1.4-1.4,3.1-2.8,4.9-4c0.3-0.2,0.7-0.5,1.2-0.7c0.4-0.2,0.9-0.5,1.3-0.9c0.2-0.1,0.4-0.2,0.7-0.3
				c0.3,0,0.5,0,0.7,0c0.6-0.1,1.3-0.2,1.9-0.2c0.5,0,0.9,0,1.1,0.1c0.1,0.1,0.1,0.1,0.2,0.1c0.1,0,0.1,0,0.2,0.1
				c0.1,0.2,0.3,0.4,0.6,0.6c0.2,0.1,0.4,0.2,0.5,0.3c0.1,0.1,0.2,0.1,0.3,0.2c0.2,0.1,0.2,0.2,0.2,0.4c0,0.1,0.1,0.1,0.2,0.3
				c0.1,0.1,0.3,0.3,0.4,0.5c0,0.4,0.2,0.5,0.5,0.4c0.1,0.2,0.1,0.4-0.1,0.5c-0.1,0.1-0.1,0.2,0,0.4c0.1,0.1,0.2,0.4,0.2,0.6
				c0,0.3,0.1,0.5,0.1,0.6L354.7,34.4z M340.1,48.2c0.1,0,0.2,0.1,0.3,0.1c0,0.1,0,0.1-0.1,0.1c-0.1,0.1-0.1,0.1-0.2,0.1
				C340.1,48.5,340,48.4,340.1,48.2z M340.6,46.1c0.1,0,0.3,0,0.4,0.1v0.1l-0.1,0.1l-0.2,0.1l-0.1,0.1c0,0.1,0,0.1,0.2,0.2v0.1
				c0,0.1-0.1,0.2-0.2,0.2c-0.1,0-0.2,0-0.3,0c0-0.2-0.1-0.4-0.3-0.7C340.3,46.2,340.5,46.1,340.6,46.1z M340.6,45.7
				c0.1-0.1,0.1-0.2,0.1-0.2c0.1,0,0.2,0,0.4,0.1c0.2,0.1,0.2,0.1,0.3,0.1c-0.1,0-0.2,0-0.3,0c-0.2,0-0.3,0.1-0.4,0.3
				C340.5,45.9,340.5,45.8,340.6,45.7z M341.6,46.4C341.6,46.4,341.6,46.4,341.6,46.4c0,0.1,0,0.1-0.1,0.1c-0.1,0-0.1,0-0.1-0.1
				C341.4,46.4,341.5,46.4,341.6,46.4C341.6,46.4,341.6,46.4,341.6,46.4z M342.2,42.7c0,0,0.1-0.1,0.3-0.4c0.2-0.3,0.4-0.5,0.6-0.6
				c0,0.1,0,0.1,0.1,0.2c0,0.1,0.1,0.2,0.1,0.3v0.1c0,0.1-0.1,0.1-0.1,0.2c-0.1,0-0.2-0.1-0.2-0.2c-0.2,0-0.3,0.1-0.4,0.4
				c-0.1,0.3-0.3,0.4-0.4,0.3l-0.1-0.1C342.1,42.7,342.2,42.7,342.2,42.7z M343.2,41.6C343.1,41.6,343.1,41.6,343.2,41.6
				c-0.1-0.1-0.1-0.1,0-0.1V41.6L343.2,41.6z"/>
			<path class="st2" d="M383.1,35.4c0,0,0.1,0.1,0.3,0.1c0.2,0.1,0.4,0.5,0.6,1.1c-0.4,0.3-0.7,0.6-0.9,1c0,0.5-0.2,1-0.4,1.3
				c-0.4,0.5-0.8,0.7-1.3,0.7c-0.1,0-0.3,0-0.4,0.2c-0.1,0.2-0.2,0.3-0.3,0.4c-0.2,0.1-0.3,0.2-0.4,0.2c0.1,0.1,0.1,0.2,0.1,0.4
				c0,0.4-0.2,0.7-0.6,1c-0.2,0.1-0.4,0.3-0.7,0.4c-0.3,0.1-0.5,0.2-0.8,0.2c0,0.1,0.2,0.2,0.4,0.2c0.2,0,0.3,0,0.3,0.2
				c-0.2,0.1-0.5,0.3-0.9,0.6c-0.4,0.3-0.7,0.5-0.9,0.6c-0.2,0.1-0.4,0.2-0.7,0.6c-0.3,0.3-0.6,0.5-1,0.6c-0.1,0.1,0,0.2,0.1,0.3
				c0.1,0.1,0.2,0.1,0.2,0.2h-0.2c-0.1,0-0.2,0.1-0.4,0.2c-0.2,0.1-0.4,0.2-0.6,0.1c-0.1,0-0.1,0-0.1,0.1c0,0.1,0,0.1-0.1,0.1
				c-0.1,0.1-0.1,0.1-0.1,0.1c0,0.1,0,0.1,0,0.1l0.3,0.2c-0.1,0.1-0.2,0.1-0.4,0c-0.2,0-0.3,0-0.4,0c-0.1,0.6-0.3,1.1-0.6,1.5
				c-0.4,0.3-0.9,0.7-1.7,1.1c-0.3-0.1-0.5-0.2-0.6-0.2c-0.1,0-0.3,0.2-0.4,0.5c-0.4,1.1-1.4,1.7-2.8,1.9c-0.4,0-0.6,0-0.7,0.1
				c-0.1,0.1-0.2,0.2-0.3,0.6c-0.4,0.3-1,0.4-1.7,0.6c-0.3,0.1-0.6,0.1-0.9,0.2c-0.3,0.1-0.6,0.1-0.8,0.1c-0.2,0.1-0.3,0.3-0.4,0.7
				c-0.1,0.3-0.3,0.5-0.6,0.6c0,0.1,0.1,0.3,0.1,0.4c0,0.1,0,0.3-0.1,0.6c-0.1,0.2-0.1,0.4,0,0.6v0.1c0,0.2-0.1,0.3-0.3,0.3
				c-0.2,0.1-0.4,0.1-0.4,0.1v0.1c0,0.1,0.1,0.2,0.2,0.3c0.1,0.1,0.2,0.2,0.2,0.3c0,0.1-0.1,0.1-0.2,0.1c-0.1,0-0.2,0-0.3,0
				c0.1,0.2,0.2,0.4,0.2,0.7c0,0.3,0.1,0.5,0.3,0.7c0.1,0.2,0.3,0.3,0.6,0.4c1.8,0,3.3-0.3,4.5-0.8c1.4-0.6,2.6-1,3.4-1.1
				c0.2,0,0.4-0.2,0.7-0.3c0.2-0.2,0.4-0.3,0.5-0.3l6.3-2.7c0.4-0.1,0.8-0.3,1.2-0.4c0.4-0.1,0.8-0.2,1.2-0.4
				c0.2-0.1,0.4-0.1,0.6-0.1c0.2,0,0.4,0.1,0.5,0.2c0.2,0.4,0.2,0.8,0,1c-0.7,1.2-1.3,2-1.9,2.5c-0.7,0.7-1.4,1.1-2.1,1.3
				c-0.7,0.3-1.3,0.8-1.7,1.3c0,0.1,0.2,0.2,0.3,0.3s0.3,0.1,0.3,0.2v0.1c0,0.1,0.1,0.1,0.2,0.3c0.1,0.1,0.2,0.2,0.2,0.3
				c-0.5,0.1-0.9,0.5-1.3,1c-0.4,0.5-0.7,0.9-0.9,1.1v0.1c0,0.1,0,0.2,0.1,0.3c0.1,0.1,0.1,0.2,0,0.3c-0.1,0.1-0.3,0.2-0.4,0.4
				c-0.2,0.2-0.3,0.3-0.4,0.4c-0.1,0.1-0.3,0.1-0.5,0c0-0.1,0.1-0.2,0.2-0.2c0.1,0,0.1-0.1,0.2-0.2c-0.1-0.1-0.2-0.1-0.3-0.2
				c-0.1-0.1-0.2-0.1-0.3-0.1c0.1,0,0.1,0,0.2-0.1c0-0.1,0-0.1,0-0.2c-0.1-0.1-0.1-0.2-0.2-0.2c-0.1,0-0.2,0-0.3,0l-0.5,0.2
				c-0.3,0.2-0.5,0.4-0.7,0.6c-0.2,0.2-0.4,0.4-0.6,0.6c0,0.2,0.2,0.3,0.3,0.3c0.2,0.1,0.2,0.1,0.3,0.1c-0.1,0.1-0.3,0.4-0.6,0.8
				c-0.2,0.4-0.5,0.6-0.9,0.6c-0.3-0.3-0.6-0.4-0.8-0.4c-0.1,0-0.3,0.1-0.7,0.4c0,0.2,0.2,0.3,0.4,0.4c-0.1,0.1-0.2,0.1-0.2,0.1
				h-0.8c-0.4,0.1-0.6,0.2-0.7,0.3c-0.1,0.2,0,0.4,0.2,0.6c0,0.1,0.1,0.2,0.1,0.4c-0.1,0.1-0.1,0.2-0.2,0.3
				c-0.1,0.1-0.3,0.1-0.5,0.2c-0.2-0.1-0.2-0.2-0.2-0.3c0,0,0.2-0.2,0.5-0.4c-0.3-0.1-0.5-0.2-0.7-0.2s-0.4,0.1-0.5,0.4
				c0,0.1-0.2,0.1-0.5,0.2c-0.3,0-0.5,0-0.7,0.1s-0.4,0.1-0.6,0.1c-0.3,0.1-0.5,0.1-0.9,0l-0.3-0.1c-0.2,0-0.3,0-0.6,0.1
				c-0.2,0.1-0.4,0.1-0.5,0c-0.7-0.3-1.3-0.4-1.6-0.4c-0.1,0.1-0.3,0.1-0.4,0c-0.1-0.2-0.3-0.3-0.6-0.4c-0.2-0.1-0.4-0.1-0.5-0.2
				c-0.3-0.1-0.8-0.5-1.7-1.1l-1.3-0.9c-0.4-0.2-0.7-0.6-0.8-1c-0.1-0.5-0.4-0.8-0.9-0.8c-0.1,0-0.3-0.1-0.4-0.2
				c0-0.1,0-0.2,0.1-0.2c0.1,0,0.1-0.1,0.1-0.2l-0.1-0.1c-0.2-0.1-0.4-0.3-0.6-0.7c-0.2-0.3-0.3-0.6-0.5-0.7
				c-0.1-0.1-0.1-0.1-0.1-0.2c0-0.2,0.1-0.3,0.4-0.4c-0.3-0.2-0.6-0.7-0.8-1.4l-0.5-2.5c-0.1-0.2-0.1-0.5-0.1-0.9l0.1-2.1
				c0-1.4,0.3-3,0.8-4.8c0.2-0.3,0.4-0.7,0.5-1.2c0.2-0.4,0.3-0.8,0.5-1.1c0.1,0.1,0.3,0.3,0.6,0.5l0.4-0.5
				c-0.1-0.1-0.2-0.1-0.4-0.1c-0.2,0.1-0.3,0.1-0.4,0.1c-0.3,0-0.3-0.2-0.1-0.6c0.8-1.3,1.5-2.5,2-3.7c0-0.3,0.3-0.5,0.8-0.6
				c0.3-0.1,0.4-0.2,0.4-0.3c0-0.1-0.1-0.3-0.3-0.6c0.8-0.1,1.3-0.5,1.3-1.3c0.1-0.2,0.3-0.6,0.7-1.1c0.1,0,0.1-0.1,0.1-0.1
				c0,0,0.1-0.1,0.1-0.1c0.4-0.1,0.7-0.3,0.9-0.6c0.2-0.3,0.4-0.6,0.5-0.7c0-0.1,0.1-0.2,0.2-0.4c0.1-0.1,0.2-0.2,0.3-0.3
				c0,0,0.2-0.1,0.4-0.2c0.2-0.1,0.3-0.3,0.3-0.4c0,0,0.1-0.2,0.4-0.4c0.5,0,0.9-0.2,1.3-0.6c0.4-0.3,0.6-0.5,0.8-0.6
				c0.3-0.2,0.8-0.5,1.4-0.7c0.6-0.2,1-0.4,1.2-0.5c0.5-0.2,0.9-0.5,1.3-0.7c0.4-0.2,0.7-0.3,1-0.4c0.3-0.1,0.7-0.2,1.2-0.3
				c0.3,0,0.6-0.1,0.8-0.2c0.2-0.1,0.5-0.1,0.8-0.2h0.6c0.5,0,0.9-0.1,1.1-0.2l0.1-0.1c0.1,0.1,0.4,0.1,0.8,0.1c0.5,0,0.9,0,1.3-0.1
				c0.4,0,0.7-0.1,1-0.1c0.7,0,1.7,0.3,3,0.9c0.6,0.2,0.9,0.5,1,0.8c0.1,0.4,0.4,0.8,0.9,1.3c0.4,0.5,0.7,0.9,0.8,1.2
				c-0.2,0.1-0.2,0.3-0.1,0.4c0,0.2,0.1,0.3,0.3,0.4C382.8,35.4,383.1,35.4,383.1,35.4z M353.5,47.5c-0.4,0.2-0.7,0.5-0.7,0.9
				c0.2,0,0.4,0,0.5-0.1c0.1-0.1,0.2-0.2,0.2-0.3C353.4,47.8,353.4,47.6,353.5,47.5z M375.6,36.3c0,0-0.1-0.1-0.4-0.4
				c-0.5-0.4-1-0.7-1.4-0.7c-0.2,0-0.4,0.1-0.5,0.2c-0.1,0.1-0.3,0.2-0.6,0.2l-0.4-0.4h-0.1c-0.3-0.2-0.5-0.3-0.6-0.3
				c-0.3,0-0.4,0.1-0.6,0.4c0,0.1,0.2,0.1,0.4,0c0.2,0,0.3,0,0.4,0c0,0.1,0,0.1-0.1,0.1h0.1c0.2,0.1,0.3,0.3,0.1,0.3
				c-0.2,0.1-0.3,0.1-0.3,0.1c-0.3,0.1-0.5,0.2-0.7,0.3c-0.2,0.2-0.4,0.3-0.6,0.4v0.1c0.1,0,0.3,0,0.3,0.1c0.1,0.1,0.1,0.2,0.2,0.4
				c-0.4,0-1,0.2-1.8,0.6c0.2,0.1,0.4,0.1,0.5,0c0.2,0,0.2,0,0.3,0h0.2c0,0.1,0,0.2,0,0.3s-0.1,0.2-0.3,0.3
				c-0.4,0.1-0.6,0.3-0.7,0.5c0.1,0.1,0.2,0.1,0.3,0.1c0.2,0,0.3,0,0.3,0c-0.1,0.1-0.2,0.4-0.4,0.7c-0.2,0.3-0.4,0.6-0.4,0.9
				c-0.2,0-0.3-0.1-0.6-0.1c-0.3,0-0.5,0.1-0.7,0.3c-0.1,0.1-0.1,0.1-0.2,0.1c-0.1,0-0.2,0-0.2,0.1c-0.1,0.1-0.3,0.1-0.5,0.1
				c-0.2,0.1-0.4,0.1-0.5,0.2c0.2,0.3,0.6,0.4,1,0.4c0.2,0.1,0.3,0.1,0.4,0.3c0,0.1,0.1,0.2,0.1,0.3c-0.1,0.1-0.3,0.2-0.3,0.6
				c-0.1,0.3-0.2,0.6-0.5,0.7c-0.2-0.2-0.3-0.3-0.4-0.3c-0.1,0-0.2,0-0.4,0c-0.2,0-0.3,0-0.4-0.2c-0.2,0.2-0.4,0.4-0.7,0.5
				c-0.3,0.1-0.5,0.1-0.7,0.2c-0.1,0.1-0.3,0.2-0.7,0.6c0.1,0,0.2,0,0.3,0c0.1,0,0.2,0.1,0.3,0.1c0.1,0.1,0.2,0.1,0.4,0.1
				c0.2,0,0.3,0,0.4-0.1c0.1-0.1,0.3-0.1,0.4,0c0-0.2,0.1-0.4,0.4-0.4c0.1,0,0.2,0,0.3,0.1c0.1,0.1,0.2,0.1,0.3,0
				c0.3,0,0.6-0.1,0.7-0.2c0.4-0.3,1.4-1.1,3-2.2l2.5-1.8l1-1.1c0.9-0.9,1.5-1.6,1.9-2C375.4,36.5,375.6,36.3,375.6,36.3z
				 M367.9,39.6c-0.3,0-0.5,0.2-0.7,0.7c0,0,0.1-0.1,0.2-0.1l0.6,0.1c0.2,0,0.4-0.1,0.4-0.4C368.2,39.7,368,39.6,367.9,39.6z
				 M367.8,38c-0.2,0.1-0.3,0.1-0.3,0.3c0.4,0,0.8-0.3,1.3-0.8c-0.3,0-0.6,0.1-0.7,0.4C368,37.9,368,38,367.8,38z M369.8,66.4
				c0,0.2,0.2,0.2,0.3,0.2c-0.3,0.3-0.6,0.6-0.9,1l-0.4-0.3c0.1-0.1,0.2-0.3,0.3-0.6c0.1-0.2,0.3-0.4,0.5-0.6
				C369.7,66.1,369.7,66.2,369.8,66.4z M370.6,65.7c0.2-0.1,0.5-0.2,0.7-0.3c-0.1,0.2-0.1,0.4-0.2,0.6c-0.1,0.2-0.2,0.4-0.3,0.5
				c-0.1,0.1-0.2,0.2-0.4,0.2c-0.1,0,0-0.2,0.1-0.3c0.1-0.2,0-0.3-0.3-0.3C370.2,65.9,370.3,65.7,370.6,65.7z M372.7,64.5
				c0.2-0.1,0.3-0.2,0.4-0.3c0.1,0,0.3,0,0.6,0.1c-0.2,0.1-0.3,0.2-0.5,0.4c-0.2,0.2-0.5,0.2-0.9,0.1
				C372.4,64.7,372.5,64.6,372.7,64.5z M372.9,63c-0.1,0-0.1,0-0.2,0h0.3C373,63,372.9,63,372.9,63z"/>
		</g>
		<g>
			<path d="M211.2,12.1c0.1,0.1,0.2,0.1,0.3,0c0.1-0.1,0.2-0.1,0.3-0.1c0.1,0.3,0.3,0.5,0.7,0.6c-0.4,0.3-0.6,0.6-0.7,1.1
				c-0.1,0.4-0.1,0.8-0.2,1c-0.1,0.1-0.1,0.3-0.1,0.5c0,0.2-0.1,0.3-0.2,0.5c-0.2,0.2-0.2,0.3-0.1,0.4c0.1,0.2,0.1,0.3,0,0.5
				c-0.1,0.2-0.2,0.3-0.2,0.5c-0.1,0.2-0.1,0.3-0.2,0.5c-0.1,0.1-0.2,0.3-0.2,0.5c0,0.2,0,0.3-0.1,0.4s-0.2,0.1-0.4,0.1h-0.3
				c-0.2-0.1-0.3-0.1-0.3,0.2c0,0.1,0.1,0.1,0.2,0.1c0.1,0,0.2,0.1,0.2,0.3c-0.1,0.1-0.2,0.1-0.3,0c-0.1-0.1-0.3,0-0.4,0.1
				c0.3,0.3,0.3,0.8,0,1.5c-0.1,0.2-0.3,0.3-0.5,0.4c-0.2,0-0.4,0-0.5,0c0.1-0.3,0.2-0.6,0.2-0.8c0-0.2,0-0.3-0.1-0.3
				c-0.1-0.1-0.2-0.2-0.5-0.4c-0.2,0.1-0.3,0.2-0.2,0.4c0.1,0.4,0.1,0.8-0.1,1.2c-0.2,0.3-0.1,0.6,0.1,0.9c0.1,0.1,0.1,0.2,0.2,0.4
				c0.1,0.1,0.2,0.3,0.2,0.4l-0.2,0.3c-0.1,0.1-0.2,0.2-0.3,0.1c-0.2,0-0.3,0-0.3,0c-0.5,0.1-0.8,0.3-0.8,0.7l0.1,0.3
				c0,0.2,0.1,0.4,0.2,0.6c0.2,0.2,0.3,0.5,0.3,0.8c0,0.3-0.1,0.5-0.3,0.7c-0.3,0.2-0.6,0.6-0.7,1.1c-0.2,1.1-0.5,1.8-0.9,2.3
				c-0.1,0.2-0.4,0.7-0.8,1.6c-0.1,0.3-0.3,0.7-0.5,1.1c-0.2,0.4-0.4,0.7-0.5,0.8c-0.1,0.2-0.4,0.7-0.9,1.7l-1,1.7
				c-0.1,0.1-0.2,0.4-0.4,0.8c-0.2,0.4-0.5,0.7-0.9,0.9c0.1,0.2,0.1,0.4,0.1,0.7c-0.3,0.6-0.6,1-0.9,1.5c-0.3,0.4-0.5,0.8-0.7,1.1
				c-0.8,1.3-1.3,2.3-1.6,3c-0.7,1.4-1.4,2.7-2.3,3.8c-0.2,0.3-0.4,0.7-0.6,1.1c-0.2,0.5-0.4,0.8-0.5,1.1c-0.2,0.3-0.4,0.7-0.7,1.3
				c-0.3,0.6-0.6,1.1-1,1.5c-0.1,0.1-0.1,0.2-0.1,0.3c-0.1,0.4-0.3,0.9-0.7,1.3c-0.3,0.4-0.5,0.9-0.8,1.4c-0.2,0.6-0.4,1-0.5,1.3
				c-0.1,0.2-0.2,0.4-0.4,0.7c-0.2,0.3-0.3,0.6-0.4,0.9c-0.2,0.6-0.5,1.3-1.1,2.3c-0.6,1-1.1,1.7-1.5,2.2c-0.4,0.5-0.8,0.9-1.4,1.3
				c-0.2,0.1-0.3,0.3-0.5,0.5c-0.1,0.2-0.3,0.3-0.4,0.4c-1.7,0.9-3,1.4-3.9,1.5c-0.1,0-0.2,0-0.4,0.1c-0.1,0.1-0.3,0.1-0.5,0.1
				c-0.7,0.2-1.7,0.3-3.2,0.3c-0.5,0-0.9,0-1.1,0.1c-0.2,0.1-0.5,0.3-0.8,0.6l-0.3-0.3c-0.2-0.5-0.5-0.8-1.1-0.8
				c-0.4-0.1-0.8-0.3-1.2-0.8c-0.7-0.9-1.4-1.7-2.1-2.2c-0.1-0.1-0.1-0.1-0.2-0.1c-0.1,0-0.1,0-0.1-0.1c-0.1-0.2-0.1-0.4-0.2-0.6
				c-0.1-0.3-0.1-0.5-0.1-0.9c0-0.4,0.2-0.9,0.6-1.3c0.3-0.3,0.5-0.6,0.5-1c0-0.2,0-0.4-0.1-0.5c-0.6-2-1-3.5-1.3-4.5l-0.1-0.2
				c0.1-0.3,0-0.7-0.1-1.2c-0.1-0.5-0.2-0.8-0.2-1c0.1-0.1,0-0.3-0.1-0.5c-0.2-0.2-0.3-0.5-0.2-0.9c0-0.1,0-0.2,0-0.3
				c0-0.1,0-0.2,0-0.3c-0.2-0.3-0.2-0.5-0.2-0.7c0-0.3,0.1-0.7,0.3-1c0.2-0.3,0.4-0.5,0.4-0.6l0.3-0.2v-0.2
				c-0.4-0.4-0.8-0.4-1.3,0.1c-0.1-0.1-0.2-0.1-0.2-0.3c0-0.1,0-0.2,0-0.2l-0.2-1.7c-0.1-0.8-0.2-1.3-0.3-1.7c-0.1-0.1,0-0.2,0-0.3
				c0.1-0.1,0.2-0.2,0.2-0.3c-0.3-0.6-0.5-1.2-0.6-1.8c-0.1-0.6-0.1-1-0.1-1.1c-0.1-0.3-0.1-0.6-0.1-1.1c0-0.4-0.1-0.8-0.3-1.1
				c-0.2-0.3-0.2-0.6-0.1-0.9c0.1-0.2,0.2-0.4,0.1-0.6c0-0.2-0.1-0.4-0.2-0.6c-0.2-0.3-0.3-0.7-0.3-1.2c-0.1-0.4-0.1-0.8-0.1-0.9
				c-0.4-2.2-0.9-3.8-1.5-4.7c-0.2-0.3-0.3-0.7-0.3-1.2c0-0.8,0.3-1.4,0.8-2c0.5-0.5,1.2-0.8,2.1-0.9c0.6-0.1,1.2-0.2,1.9-0.4
				c0.4-0.1,0.9-0.2,1.5-0.2c0.6,0,1.1,0,1.5-0.1c0.2-0.1,0.4,0,0.7,0c0.3,0.1,0.5,0.1,0.8,0.1c0.4,0,0.9,0.1,1.3,0.3
				c0.4,0.2,0.9,0.4,1.3,0.6c1.4,0.8,2.3,2.1,2.7,4.1c0.1,0.8,0.2,1.3,0.2,1.7c0,0.4,0,0.8-0.1,1v0.2c0.2,0.4,0.2,0.8,0.2,1.3
				c0,0.3-0.1,0.8-0.2,1.5c-0.1,0.7-0.2,1.2-0.2,1.6c0,0.2-0.1,0.5-0.3,0.8c-0.1,0.1-0.1,0.3-0.2,0.5c-0.1,0.2-0.2,0.4-0.2,0.6
				l0.1,0.3c0.1,0.2,0,0.3-0.2,0.4c-0.2,0.1-0.3,0.2-0.5,0.2c0,0.4-0.1,0.7-0.2,1l-0.5,0.5c0.1,0.1,0.1,0.1,0.3,0.2
				c0.1,0.1,0.2,0.1,0.2,0.3c-0.2,0-0.4,0-0.6,0.1c-0.2,0.1-0.3,0.2-0.5,0.4c-0.2,0.2-0.3,0.3-0.3,0.5c-0.8,0-1.2,0.3-1.2,0.8
				c0,0.3,0.1,0.4,0.3,0.5l0.5,0.1c0.1-0.1,0.2-0.2,0.2-0.3c0-0.2,0.1-0.3,0.1-0.3c0.1,0,0.2,0,0.2,0.1c0.2,0.2,0.2,0.6,0,1
				c-0.1,0.3-0.1,0.6-0.1,1c-0.1,0-0.3,0-0.6,0c-0.3,0-0.5,0.1-0.6,0.5c0.2,0.1,0.4,0.2,0.5,0.2c0.1,0,0.3-0.1,0.5-0.3
				c0.1,0,0.2,0.1,0.3,0.2c0.1,0.1,0.2,0.2,0.3,0.3c-0.1,0.1-0.3,0.2-0.5,0.3c-0.2,0.1-0.4,0.3-0.4,0.5c0,0.1,0,0.3-0.1,0.5
				c-0.1,0.2-0.1,0.4-0.3,0.5c0.1,0.1,0.2,0.1,0.3,0.1c0.2,0,0.3,0.1,0.3,0.2c0,0.1-0.1,0.2-0.2,0.2c-0.1,0-0.2,0.1-0.2,0.1
				c0,0.1,0.1,0.2,0.2,0.3c0.2,0.1,0.2,0.2,0.2,0.3c-0.1,0.3-0.2,0.4-0.4,0.5c-0.1,0-0.1-0.1-0.2-0.2c-0.1-0.1-0.1-0.2-0.2-0.2
				c-0.2,0.3-0.5,0.5-0.8,0.5c-0.1,0.1,0,0.2,0.1,0.2c0.1,0,0.2,0.1,0.2,0.2l-0.2,0.8c0.2,0.2,0.5,0.3,0.8,0.3l0.9-0.1
				c0-0.4,0.2-0.8,0.6-1.2c0.4-0.5,0.9-1.3,1.5-2.4c0.1-0.2,0.2-0.4,0.2-0.5c0.1-0.3,0.2-0.6,0.3-0.7c0.1-0.1,0.3-0.2,0.5-0.2h0.3
				h0.2c-0.1-0.2-0.2-0.4-0.2-0.5c0-0.1,0.1-0.3,0.2-0.5v-0.2c-0.1-0.2-0.1-0.4,0.1-0.6c0.2-0.2,0.3-0.3,0.3-0.3
				c0.3-0.3,0.8-0.9,1.4-2c0.1-0.3,0.3-0.6,0.5-0.9c0.2-0.3,0.4-0.6,0.5-0.8c0.1-0.2,0.2-0.5,0.4-0.8c0.2-0.3,0.4-0.5,0.5-0.8
				c0.1-0.3,0.3-0.6,0.5-0.8c0.2-0.3,0.4-0.6,0.5-0.8c0.2-0.3,0.4-0.5,0.7-0.5c0.2,0,0.3,0,0.3,0.1c0.4,0.1,0.6,0,0.6-0.4
				c-0.1-0.1-0.2,0-0.4,0c-0.1,0.1-0.2,0.1-0.3,0.1c-0.1,0-0.1-0.1-0.3-0.2c0-0.1,0-0.1,0.1-0.2c0.1-0.1,0.2-0.1,0.2-0.2
				c0.3-0.3,0.5-0.6,0.5-0.8V36c-0.1-0.2,0-0.3,0.2-0.5c0.2-0.2,0.4-0.3,0.7-0.4c0.1,0.1,0,0.2,0,0.3c-0.1,0.1-0.1,0.2-0.1,0.3
				c0.3,0,0.5-0.1,0.7-0.3c0.2-0.3,0.3-0.6,0.5-1.1c0-0.1-0.1-0.1-0.2-0.2c-0.2-0.1-0.3-0.1-0.3-0.2c0-0.2,0.1-0.3,0.3-0.3
				c0.8-0.3,1.3-0.7,1.3-1.3v-0.2c0-0.5,0.2-0.8,0.7-1c-0.1-0.2,0-0.4,0.1-0.7c0.1-0.3,0.2-0.5,0.2-0.7c0-0.2,0.1-0.4,0.3-0.6
				c0.2-0.3,0.4-0.5,0.4-0.6c0.2,0.2,0.5,0.4,0.8,0.6c-0.1-0.5,0.1-1,0.5-1.4c0.4-0.4,0.6-0.8,0.7-0.9c0-0.1-0.1-0.1-0.3-0.1
				c-0.1-0.4,0.1-0.9,0.4-1.4c0.3-0.5,0.6-0.8,0.7-1.1c0-0.1-0.1-0.1-0.2-0.1c-0.1,0-0.1-0.1-0.1-0.2c0.2-0.4,0.6-0.7,1.1-0.8
				c0.5-0.1,0.8-0.2,0.9-0.2c-0.2-0.2-0.2-0.4-0.1-0.7c0.2-0.2,0.3-0.4,0.3-0.4c0.1-0.3,0.1-0.5,0.1-0.6c0.4,0,0.7-0.2,0.9-0.8
				c0.3-0.4,0.5-0.6,0.8-0.6c0.1-0.1,0.1-0.2,0.1-0.4c0-0.2,0.1-0.3,0.2-0.5c0.1-0.2,0.3-0.3,0.5-0.3l0.2-0.2c0-0.3,0.2-0.7,0.5-1.1
				c0.4-0.4,0.6-0.7,0.6-0.8c0.2-0.1,0.3-0.2,0.5-0.5c0.2-0.3,0.3-0.5,0.5-0.5c-0.1-0.2,0-0.3,0.1-0.5c0.1-0.2,0.2-0.3,0.3-0.5
				c-0.1-0.1-0.2-0.2-0.3-0.2c-0.1,0-0.2-0.1-0.3-0.1c0.2-0.3,0.4-0.4,0.6-0.2c0.3,0.1,0.5,0,0.7-0.2c0.1-0.2,0.8-1.1,2.1-2.8
				c0-0.1,0-0.2-0.1-0.3c-0.1-0.1-0.2-0.1-0.2-0.2c0.2-0.2,0.5-0.5,0.9-0.8c0.4-0.3,0.7-0.6,0.9-1c0.1-0.1,0.2,0,0.3,0
				c0.1,0.1,0.1,0.1,0.2,0.1c0.1-0.1,0.2-0.2,0.2-0.2c0-0.8,0.3-1.4,1-2c0.3-0.2,0.5-0.6,0.6-1c0-0.4,0.2-0.7,0.7-0.8
				c0.2-0.1,0.3-0.2,0.4-0.4c1.3-2.2,2.2-3.6,2.7-4.3c0.2-0.1,0.3-0.1,0.5,0c0.2,0,0.3,0,0.3,0c0.1,0.2,0.1,0.5,0.1,0.8
				c0,0.3,0.1,0.5,0.2,0.8c0.1,0.1,0.1,0.3,0,0.5c-0.1,0.2-0.1,0.4-0.1,0.4c-0.1,0.2,0,0.5,0.1,0.9c0.1,0.4,0.2,0.7,0.2,1v0.2
				c0,0.4-0.1,0.7-0.3,0.8c0,0.1,0.1,0.2,0.2,0.3c0.1,0.1,0.2,0.2,0.2,0.3c-0.1,0.3-0.2,0.6-0.2,0.8c0,0.3,0.2,0.6,0.6,0.7
				c-0.1,0.2-0.2,0.3-0.3,0.3c-0.1,0-0.2,0.1-0.2,0.2c0.1,0.1,0.1,0.1,0.2,0c0.1,0,0.2,0,0.3,0C212,8,212,8.1,212,8.2
				c-0.1,0.1-0.1,0.3-0.2,0.6c-0.1,0.3-0.2,0.5-0.3,0.6c-0.1,0.1-0.1,0.1,0,0.2c0.1,0.1,0.1,0.2,0.2,0.2c0.1,0,0.1,0,0.2,0.1
				c0.1,0.1,0.1,0.1,0.1,0.2c0,0.4,0,0.6-0.1,0.8c-0.1,0.1-0.2,0.3-0.4,0.6c-0.1,0.3-0.2,0.4-0.2,0.4S211.3,12,211.2,12.1z
				 M174.2,44c0-0.1,0-0.1,0-0.1c0,0,0.1,0,0.1,0l0.2,0.1l-0.1,0.2C174.3,44.2,174.2,44.1,174.2,44z M175.9,43.7
				c0.2-0.2,0.3-0.3,0.5-0.2C176.3,43.7,176.2,43.8,175.9,43.7z M207.5,23.7l-0.4,0.6c0-0.2,0-0.3,0.1-0.4
				C207.2,23.7,207.3,23.7,207.5,23.7z"/>
		</g>
		<g>
			<path class="st2" d="M35,43.7l0.1,0.8L35,45.3L35,46.2l-0.3,1.3l-0.2,0.9l-0.4,1.1l-0.3,0.7l-0.5,1l-0.5,0.7l-0.7,1l-0.6,0.6
				l-0.7,0.6l-0.7,0.6l-0.7,0.5l-0.7,0.5l-1.2,0.5l-0.8,0.4l-0.9,0.4L25,57.3l-1.2,0.3L23,57.8l-0.8,0.1L21.3,58l-1.4,0.1h-4.5
				L14.5,58l-0.9,0.1l-0.9,0.1l-0.6,0.1l-0.2,0.4l-0.1,0.7l-0.2,3.6v0.9l0.1,1.6l-0.1,0.8l-0.1,1.2L11.5,68l-0.2,0.3l-0.3,0.1
				l-0.6,0.1l-1.7,0.1l-2.1-0.1H5.8l-1.7,0.1l-0.9-0.1L2,68.5l-0.7-0.2L1,68l-0.1-0.6l-0.1-0.8l-0.1-0.9v-5.7L1,57.1v-0.9l-0.2-2.8
				v-0.9l-0.1-6.5v-0.9l0.2-2.9v-0.9l-0.2-2.8v-0.9L0.9,35v-0.8l-0.1-1.6l0.1-0.8l0.1-0.4L1,30.7l0.2-0.3l0.3-0.3L2,30.1L3.6,30
				L4.8,30h0.8L9.2,30h3.6l3.6,0.2h3.5l2-0.1l0.7,0.1h0.4l0.8,0.2l1.2,0.3l0.9,0.3l0.9,0.3l0.8,0.4l0.8,0.5l0.7,0.5l1,0.9l0.6,0.5
				l0.3,0.3l1,1l0.5,0.7l0.3,0.3l0.4,0.6l0.2,0.3l0.3,0.7l0.3,0.8l0.2,0.7l0.1,0.4l0.2,0.7l0.1,0.4l0.2,0.7l0.3,1.5V43.7z
				 M19.1,48.9l1-0.1l0.9-0.2l0.4-0.2l0.7-0.4l0.3-0.2l0.5-0.5l0.2-0.3l0.4-0.7l0.2-0.4l0.2-0.9l0.1-0.4v-1.3l-0.2-0.8l-0.2-0.4
				l-0.3-0.7l-0.2-0.3l-0.6-0.6l-0.4-0.3l-0.8-0.4l-1.4-0.4l-0.9-0.1h-1.2l-1.6,0.1l-2.3-0.2h-0.8l-0.4,0.1l-0.6,0.1l-0.2,0.2
				l-0.2,0.4l-0.1,0.6v1.2l0.2,2l0.1,0.9l0.1,3.1l0.1,0.6l0.2,0.4l0.6,0.2l2.8,0.2L19.1,48.9z"/>
			<path class="st2" d="M70.1,66l-0.1,0.9v0.5L69.9,68l-0.3,0.4l-0.4,0.2l-0.5,0.1h-0.4l-0.7,0.1l-5.9-0.3h-4l-4.8,0.3l-3.1-0.2h-4
				l-2.5,0.2h-0.8l-0.7-0.1l-0.6-0.1l-0.4-0.2L40.5,68l-0.1-0.6v-0.9l0.3-2l0.1-0.8l-0.2-2.8v-0.9l0.1-2.8v-0.9l0.1-6.5v-0.9
				l-0.2-6.5v-0.9l-0.1-2.8v-4.5l-0.1-1.6v-0.8l0.1-0.5l0.2-0.7l0.2-0.3l0.4-0.2l0.6-0.1h0.4l0.8-0.1l2.6,0.2h0.9l3.8-0.1h0.5
				l0.4,0.2l0.3,0.4v4.6l0.1,3.1v0.9l-0.2,3.1v0.9l0.1,3.1v0.9l0.2,3.1v0.9l-0.3,7l0.1,0.5l0.1,0.3l0.1,0.3l0.3,0.2l0.6,0.1l1.8,0.1
				l1.6-0.1h0.9l7.7-0.1l0.9-0.1l1.8-0.2l0.9-0.1h0.8l0.6,0.2l0.4,0.3l0.2,0.4l0.1,0.6l0.1,3l0.1,0.9L70.1,66z"/>
		</g>
		<g>
			<path class="st2" d="M158.2,37.5l-0.1,0.9v8.1l0.2,3.2v0.9l0.1,7.2v0.9l-0.1,0.4l-0.1,0.9l-0.2,2.6l0.1,3.2l-0.1,0.8l-0.2,0.7
				l-0.4,0.6l-0.5,0.4l-0.5,0.2l-0.8,0.1l-2.8,0.1l-0.9,0.1l-1.4,0.1h-0.9l-0.7-0.2l-0.7-0.3l-0.7-0.5l-0.5-0.7l-0.8-1.6l-0.5-0.7
				l-2.1-2.7l-0.5-0.7l-2.1-2.6l-0.5-0.7l-1.9-2.8l-0.5-0.7l-2.1-2.6l-0.5-0.7l-2-2.7l-0.5-0.4l-0.4,0.2l-0.2,0.7l-0.1,2.7v0.9
				l0.1,2.7v0.9l0.1,3.1v0.9l-0.2,3.1l0.1,0.9l0.3,2.2l0.1,0.9l-0.2,0.7l-0.4,0.4l-0.4,0.1l-0.7,0.1l-0.4,0.1l-0.9,0.1l-2.5-0.1
				h-0.9l-2.2,0.1h-0.9l-0.8-0.1l-0.6-0.1l-0.4-0.3l-0.2-0.4l-0.1-0.5l-0.1-0.4v-0.8l0.1-1.8l0.1-0.9l-0.2-2.9v-0.9l0.1-6.7l0.1-0.9
				l0.2-2.9l0.1-0.9v-3.8l-0.2-2.9v-0.9l0.2-2.9l-0.1-0.9l-0.2-3l-0.1-0.9v-1.3l0.1-0.8l0.1-0.8l0.1-0.6l0.2-0.4l0.3-0.2l0.6-0.1
				l1.6-0.1l1.6,0.1h4.1l0.7,0.1l0.3,0.2l0.3,0.5l2.3,2.5l0.5,0.7l2,2.6l0.5,0.7l2,2.7l0.5,0.7l2,2.7l0.5,0.7l2.1,2.6l0.5,0.7l2,2.7
				l0.4,0.4l0.4,0.1l0.4-0.3v-0.6l-0.4-2.3l-0.1-0.9l0.2-2.3v-0.9l-0.2-3.3v-0.9l0.2-3.3l-0.1-0.9l-0.2-2v-1.4l0.2-0.7l0.2-0.4
				l0.4-0.2l0.7-0.1h0.5l0.9-0.1l2.5,0.2h0.9l1.9-0.1l0.8,0.1l1.3,0.1l0.6,0.1l0.4,0.2l0.3,0.4l0.1,0.8l0.1,0.5l0.1,0.9l-0.1,1.7
				l-0.1,0.9L158.2,37.5z"/>
		</g>
		<g id="Tent_Mark">
			<path d="M111.5,66.3c-0.8,0-3.1,0-4.8,0c-1.5,0-5.1-0.1-4.4-0.1c0,0-1.8,2.4-2.1,2.4h1.7c0.6,0,3.4,0,4.1-0.1c4.6,0,0.5,0,5.2,0
				c2.3,0,0.7,0,3.1,0c3.4,0,6.9,0,10.3,0c-1.5-2.5-3-5.1-4.5-7.7c-1.4-2.3-5.6-9.4-10.6-18.1c-2.5-4.3-5.2-9-7.9-13.7
				c-3.2-5.5-6.4-11-9.2-15.9c-2.1,3.7-4.1,7.1-5.8,10.1c-1.3,2.2-2.3,4-3.1,5.4c-0.2,0.3-0.4,0.6-0.6,1
				c-3.4,5.8-7.4,12.8-10.1,17.8c-1.2,2.3-2.4,4.7-3.6,7c0.7-1,1.3-2,1.9-2.8c-1.3,2.3-2.7,4.6-3.1,5.6c-2.7,5-0.9,2.3,0.5,0.6
				c0.9-1.3,0,0.6,1.4-1.4c-0.9,1.5-1.3,2.3-2.2,3.9c0,0.2,2.7-4.8,2.2-3.6c-0.9,1.5-1.8,3.2-2.7,4.7c0.5-0.5,3.1-5.3,3.1-5
				c-0.4,0.9-2.7,4.2-2.7,4.6c0,0.1,0.9-1.5,1.3-2.2c-2.7,4.8-4,7.5-1.3,3.3c-0.9,1.5-2.2,3.6-3.1,5.2c0,0,0,0,0,0
				c0.5-0.8,1.3-2.1,1.7-2.9c-0.5,0.9-1.1,1.8-1.6,2.7c0.1-0.1,0.2-0.3,0.3-0.4c0.4-0.7,0.8-1.3,1.2-2c-0.3,0.6-0.7,1.2-1,1.8
				c0.3-0.4,0.7-0.9,1.1-1.4c1.4-2.1,2.7-4,3.4-5.2c5.5-9.3,11-18.7,16.4-28c-0.1-0.1-0.4,0.4,0-0.4c1.3-2.5,2.7-4.3,4-6.8
				c0-0.1,0-0.2,0-0.2c0.6-0.9,1.2-1.9,1.7-2.8c0.1-0.2,0.3-0.5,0.4-0.7l0.1-0.2l0.1-0.1l0,0l0,0l0,0l0,0c0,0,0,0,0,0c0,0,0,0,0.1,0
				l0,0c0,0,0,0,0.1,0.1l0,0l0,0l0,0l0,0l0,0l0.1,0.2l0.4,0.6c0.2,0.4,0.5,0.8,0.7,1.2c1,1.7,2,3.3,2.9,5c0-0.1,0-0.2,0.2,0.2
				c0.9,1.5,2.1,3.6,3.3,5.8c0.2,0.3,0.4,0.6,0.6,1c0.2,0.2,0.2,0.3,0.3,0.3c0.6,1,1.1,1.9,1.5,2.7c2.9,4.8,5.8,9.5,8.7,14.5
				c1.5,2.5,3,4.9,4.5,7.5c0.8,1.3,1.5,2.5,2.3,3.8c0.2,0.3,0.4,0.6,0.6,1c0.1,0.2,0.2,0.3,0.3,0.5c0.2,0.3,0.4,0.7,0.7,1
				c-0.3,0-0.6,0-1,0c-0.2,0-0.4,0-0.6,0c-0.1,0-0.2,0-0.3,0c-0.2,0-2,0.3-2.1,0.3L111.5,66.3z"/>
			<path d="M66.7,67.3c-0.1,0-0.3,0-0.4,0C66.5,67.3,66.6,67.3,66.7,67.3z"/>
			<path d="M66.3,67.3c-0.1,0-0.1,0-0.2,0C66.2,67.3,66.2,67.3,66.3,67.3z"/>
			<path d="M84.7,65.4c-0.6,0-1.2,0-1.4,0.1c0,0-1-0.1-1.5,0c0,0-0.2,0-0.7,0.1c-0.2,0-0.2,0-0.2,0.1c0,0,0,0,0-0.1
				c-0.2,0.1-0.5,0-0.7,0.1c0,0,0,0,0-0.1c-0.3,0.1-0.7,0-1,0.1c0,0,0,0,0-0.1c-0.2,0-0.3,0-0.3,0c0,0,0,0,0-0.1
				c-0.2,0-0.5,0.1-0.5,0c0,0,0,0,0,0.1c-0.7,0-1.1,0-1.6,0c-1.3-0.1-2.9,0-4.4,0.1c-0.2,0-0.3,0.1-0.2,0.2c-0.2,0-0.3,0-0.5,0
				c-0.3,0-0.2,0.1-0.5,0.1c-2.6,0.3-5.2,0.1-7.9,0.3c0.7,0,1.1,0.1,1.8,0c0,0,0,0.1,0.2,0.1c1,0,2.1-0.1,2.6,0.1
				c0.2,0,0.3,0.1,0.8,0.1c-0.2,0-0.3,0-0.5,0c0,0,0,0.1,0,0.1c0.7,0,1.5,0,2.1,0.1c0,0,0,0.1,0,0.1l0.3,0c0.3,0.3-1.5,0.3-2.3,0.3
				c0,0,0,0.1,0,0.2l0.3,0l0,0.1c-0.8,0-1.4,0-2.2,0.1c0,0,0,0,0,0c0,0,0,0.1,0.2,0.1c-0.7,0-1.5,0-2.1,0.1c-0.2,0,0,0.2,0.5,0.2
				c0.5,0,0.8,0,1.3,0l0,0.1c-0.3,0-0.8,0-1.1,0c-0.2,0,0.3,0.1,0.2,0.2c-0.2,0-0.3,0-0.5,0.1c0.5,0,1.1-0.1,1.6,0
				c0.2,0,0.3,0.1,0.3,0.1c0.8-0.1,1.5,0,2,0.2c0.1,0.1,0.6,0,1.1,0c2.8,0.1,5.1,0.1,7.7,0.3c0.2,0,1.1,0,1.3,0c1.1,0.1,5.6,0,7.3,0
				C85.6,67.6,84.9,66,84.7,65.4z"/>
			<path d="M121,66.3L92.2,17.2l-28,50.2h21.5l-0.1-0.2l-0.2-0.3c-0.3-0.6-0.6-1.2-0.9-1.8c-0.5-1.2-0.8-2.5-0.9-4
				c-0.1-1.3-0.1-2.6,0-4l0.1-1.2l0.1,0.2c0-0.2,0.2-1,0.2-1l0.1-0.4l0.2-0.9l0.2-0.6c0-0.1,0.2-0.5,0.3-0.9
				c0.1-0.2,0.1-0.4,0.2-0.5l0.6-2l0.9,1.8l0.5,0.9c0.1,0.3,0.3,0.8,0.4,1l0.1,0.2l0.1,0.2c0,0.1,0.1,0.1,0.1,0.2l-0.2,0.4l0.3-0.2
				l0.1,0.1l-0.1,0.4l0.3-0.3l0,0.1l0.1-0.2c0.1-0.3,0.2-0.5,0.3-0.8c0.2-0.4,0.3-0.8,0.4-1.1l0.2-0.5l0.3-1.1
				c0.1-0.5,0.3-0.9,0.4-1.4c0.2-1,0.4-2,0.6-3c0.2-1.1,0.3-2.1,0.3-3.2l0-0.8l0-1.7l-0.2-4.2l0.7,0.7l0.1,0.1l2.2,2.8l0.9,1.2
				L94,41.7l0.3-0.2l0.6,0.9c0.3,0.5,0.6,0.9,0.9,1.3c0.5,1,0.9,1.8,1.2,2.7c0.2,0.5,0.3,1.1,0.4,1.7c0.1,0.6,0.2,1.2,0.2,1.8
				c0,0.6,0,1.2-0.1,1.8c-0.1,0.6-0.2,1.1-0.3,1.6c0,0.2-0.1,0.3-0.1,0.4l-0.4,0.1l0.4,0.1l0,0.1l0,0.1c0.1-0.1,0.2-0.2,0.2-0.2
				l0.1-0.1h0.2l0.1,0.1l0.2-0.5l0.4,0l-0.3-0.1l0.1-0.1l0.4,0l-0.3-0.2l0.1-0.3l0.1-0.4l0.3-1l0-0.1l0.1-0.2l0.1-0.2l0.4-0.1
				l0.1,0.2l0.1,0.1c0.1,0.1,0.2,0.3,0.3,0.5c0.2,0.3,0.3,0.7,0.3,1l0,0.3l-0.2,0.1c0,0.1,0.1,0.2,0.1,0.2c0.1,0.1,0.1,0.3,0.1,0.4
				l0.1,0.2l0.1,0.3c0.1,0.2,0.1,0.5,0.2,0.7l0.3,0.2l-0.2-0.3l0.1-0.1l0.1-0.1c0,0,0.1-0.1,0.1-0.1l0.1-0.1l0.4,0.1l-0.3-0.3
				c0.1-0.2,0.4-0.6,0.5-0.9l0.6-0.9l1.1-1.7l0.4,2c0,0.1,0.1,0.3,0.1,0.5c0.1,0.3,0.2,0.7,0.2,0.9l0.1,0.8l0.1,1.2
				c0,0,0.1,0.9,0.1,1.2l0,0l0.1,1c0,1.4-0.2,2.7-0.5,3.9c-0.3,1.4-0.8,2.7-1.4,3.8c-0.2,0.4-0.5,0.9-0.8,1.3l0.6,0L121,66.3z"/>
		</g>
	</g>
</g>
</svg>
